<svg xmlns="http://www.w3.org/2000/svg" xmlns:svg="http://www.w3.org/2000/svg" id="svg5498" width="107" height="25" version="1.1" viewBox="0 0 107 25"><defs id="defs5500"><linearGradient id="SVGID_50_" x1="74.096" x2="74.096" y1="283.013" y2="240.299" gradientUnits="userSpaceOnUse"><stop id="stop4854" offset="0" stop-color="#1F1F20"/><stop id="stop4856" offset="1" stop-color="#A5A8AA"/></linearGradient><linearGradient id="SVGID_51_" x1="97.754" x2="97.754" y1="283.013" y2="240.299" gradientUnits="userSpaceOnUse"><stop id="stop4861" offset="0" stop-color="#1F1F20"/><stop id="stop4863" offset="1" stop-color="#A5A8AA"/></linearGradient><linearGradient id="SVGID_52_" x1="121.411" x2="121.411" y1="283.013" y2="240.299" gradientUnits="userSpaceOnUse"><stop id="stop4868" offset="0" stop-color="#1F1F20"/><stop id="stop4870" offset="1" stop-color="#A5A8AA"/></linearGradient><linearGradient id="SVGID_53_" x1="49.035" x2="49.035" y1="283.013" y2="240.299" gradientUnits="userSpaceOnUse"><stop id="stop4875" offset="0" stop-color="#1F1F20"/><stop id="stop4877" offset="1" stop-color="#A5A8AA"/></linearGradient><linearGradient id="SVGID_54_" x1="20.309" x2="20.309" y1="283.013" y2="240.299" gradientUnits="userSpaceOnUse"><stop id="stop4882" offset="0" stop-color="#1F1F20"/><stop id="stop4884" offset="1" stop-color="#A5A8AA"/></linearGradient><linearGradient id="SVGID_49_" x1="109.707" x2="85.934" y1="244.088" y2="278.454" gradientUnits="userSpaceOnUse"><stop id="stop4833" offset="0" stop-color="#130E1E"/><stop id="stop4835" offset=".023" stop-color="#1C1426"/><stop id="stop4837" offset=".145" stop-color="#442349"/><stop id="stop4839" offset=".255" stop-color="#652966"/><stop id="stop4841" offset=".351" stop-color="#7C287A"/><stop id="stop4843" offset=".429" stop-color="#8B2688"/><stop id="stop4845" offset=".478" stop-color="#91278F"/><stop id="stop4847" offset="1" stop-color="#ED1C24"/></linearGradient><linearGradient id="SVGID_48_" x1="86.049" x2="62.275" y1="244.088" y2="278.455" gradientUnits="userSpaceOnUse"><stop id="stop4808" offset="0" stop-color="#381F1F"/><stop id="stop4810" offset=".002" stop-color="#3A1F20"/><stop id="stop4812" offset=".038" stop-color="#5B2926"/><stop id="stop4814" offset=".076" stop-color="#7C2F28"/><stop id="stop4816" offset=".117" stop-color="#9B3029"/><stop id="stop4818" offset=".163" stop-color="#B62E28"/><stop id="stop4820" offset=".213" stop-color="#CC2927"/><stop id="stop4822" offset=".271" stop-color="#DC2325"/><stop id="stop4824" offset=".344" stop-color="#E81F25"/><stop id="stop4826" offset=".478" stop-color="#ED1C24"/><stop id="stop4828" offset="1" stop-color="#F7931E"/></linearGradient><linearGradient id="SVGID_47_" x1="133.363" x2="109.59" y1="244.089" y2="278.455" gradientUnits="userSpaceOnUse"><stop id="stop4801" offset=".478" stop-color="#39B54A"/><stop id="stop4803" offset="1" stop-color="#1B75BC"/></linearGradient></defs><metadata id="metadata5503"/><g id="layer1" transform="translate(-309.41899,-348.79076)"><polygon id="polygon4805" fill="url(#SVGID_47_)" points="104.378 278.591 127.999 244.146 138.439 244.146 114.823 278.591" transform="matrix(0.7684889,0,0,0.72579466,309.41899,171.5909)"/><polygon id="polygon4830" fill="url(#SVGID_48_)" points="57.062 278.591 80.68 244.146 91.126 244.146 67.51 278.591" transform="matrix(0.7684889,0,0,0.72579466,309.41899,171.5909)"/><polygon id="polygon4849" fill="url(#SVGID_49_)" points="80.722 278.591 104.342 244.146 114.783 244.146 91.167 278.591" transform="matrix(0.7684889,0,0,0.72579466,309.41899,171.5909)"/><g id="g4851" transform="matrix(0.7684889,0,0,0.72579466,309.41899,171.5909)"><linearGradient id="linearGradient5463" x1="74.096" x2="74.096" y1="283.013" y2="240.299" gradientUnits="userSpaceOnUse"><stop id="stop5465" offset="0" stop-color="#1F1F20"/><stop id="stop5467" offset="1" stop-color="#A5A8AA"/></linearGradient><polygon id="polygon4858" fill="url(#SVGID_50_)" points="91.126 278.591 67.51 244.146 57.065 244.146 80.68 278.591"/><linearGradient id="linearGradient5470" x1="97.754" x2="97.754" y1="283.013" y2="240.299" gradientUnits="userSpaceOnUse"><stop id="stop5472" offset="0" stop-color="#1F1F20"/><stop id="stop5474" offset="1" stop-color="#A5A8AA"/></linearGradient><polygon id="polygon4865" fill="url(#SVGID_51_)" points="114.787 278.591 91.167 244.146 80.722 244.146 104.342 278.591"/><linearGradient id="linearGradient5477" x1="121.411" x2="121.411" y1="283.013" y2="240.299" gradientUnits="userSpaceOnUse"><stop id="stop5479" offset="0" stop-color="#1F1F20"/><stop id="stop5481" offset="1" stop-color="#A5A8AA"/></linearGradient><polygon id="polygon4872" fill="url(#SVGID_52_)" points="138.443 278.591 114.823 244.146 104.378 244.146 127.999 278.591"/><linearGradient id="linearGradient5484" x1="49.035" x2="49.035" y1="283.013" y2="240.299" gradientUnits="userSpaceOnUse"><stop id="stop5486" offset="0" stop-color="#1F1F20"/><stop id="stop5488" offset="1" stop-color="#A5A8AA"/></linearGradient><rect id="rect4879" width="8.934" height="34.445" x="44.568" y="244.146" fill="url(#SVGID_53_)"/><linearGradient id="linearGradient5491" x1="20.309" x2="20.309" y1="283.013" y2="240.299" gradientUnits="userSpaceOnUse"><stop id="stop5493" offset="0" stop-color="#1F1F20"/><stop id="stop5495" offset="1" stop-color="#A5A8AA"/></linearGradient><polygon id="polygon4886" fill="url(#SVGID_54_)" points="31.74 258.245 31.74 278.591 40.618 278.591 40.618 244.146 30.988 244.146 20.307 261.321 9.631 244.146 0 244.146 0 278.591 8.76 278.591 8.76 258.42 20.076 275.596 20.307 275.596"/></g></g></svg>