<svg xmlns="http://www.w3.org/2000/svg" xmlns:svg="http://www.w3.org/2000/svg" id="svg4744" width="100" height="100" version="1.1" viewBox="0 0 100 100"><metadata id="metadata4749"/><g id="g5674" display="inline" opacity="1"><path id="circle10199-6" fill="none" fill-opacity="1" fill-rule="nonzero" stroke="#333ff0" stroke-dasharray="none" stroke-dashoffset="0" stroke-miterlimit="4" stroke-opacity="0" stroke-width="10" d="m -19.381684,45.150532 a 31,31 0 0 1 0,9.698936" color="#000" display="inline" enable-background="accumulate" opacity="1" overflow="visible" transform="matrix(0,-1,1,0,0,0)" visibility="visible" style="marker:none"/><path id="path5294-4-2" fill="none" fill-opacity="1" fill-rule="nonzero" stroke="#333" stroke-dasharray="none" stroke-dashoffset="0" stroke-miterlimit="4" stroke-opacity="1" stroke-width="10" d="m -23.837073,23.837048 a 37,37 0 0 1 10.83705,26.162951 37,37 0 0 1 -10.837049,26.162952" color="#000" display="inline" enable-background="accumulate" opacity=".75" overflow="visible" transform="matrix(0,-1,1,0,0,0)" visibility="visible" style="marker:none"/><path display="inline" style="line-height:normal;text-indent:0;text-align:start;text-decoration-line:none;text-decoration-style:solid;text-decoration-color:#000;text-transform:none;block-progression:tb;white-space:normal;isolation:auto;mix-blend-mode:normal;solid-color:#000;solid-opacity:1;marker:none" id="circle12929-5" fill="#d2d2d2" fill-opacity="1" fill-rule="nonzero" stroke="none" stroke-dasharray="none" stroke-dashoffset="0" stroke-linecap="butt" stroke-linejoin="miter" stroke-miterlimit="4" stroke-opacity="1" stroke-width="10" d="m 50,8.0000004 c -0.01177,0 -0.02339,0.00194 -0.03516,0.00195 C 48.296679,8.0033535 46.639854,8.1100279 45,8.306641 L 45,13 l 0,6.199219 c 1.643619,-0.259949 3.314601,-0.398438 5,-0.398438 1.685399,0 3.356381,0.138489 5,0.398438 L 55,13 55,8.3105473 c -1.638947,-0.196534 -3.29369,-0.3089955 -4.960938,-0.3105469 -0.01305,-1.21e-5 -0.02601,0 -0.03906,0 z" baseline-shift="baseline" clip-rule="nonzero" color="#000" color-interpolation="sRGB" color-interpolation-filters="linearRGB" color-rendering="auto" direction="ltr" enable-background="accumulate" font-family="sans-serif" font-size="medium" font-stretch="normal" font-style="normal" font-variant="normal" font-weight="normal" image-rendering="auto" letter-spacing="normal" opacity="1" overflow="visible" shape-rendering="auto" text-anchor="start" text-decoration="none" text-rendering="auto" visibility="visible" word-spacing="normal" writing-mode="lr-tb"/><path id="circle11130-2-0-5" fill="none" fill-opacity="1" fill-rule="nonzero" stroke="#222" stroke-dasharray="none" stroke-dashoffset="0" stroke-miterlimit="4" stroke-opacity="1" stroke-width="2" d="M -21.008646,21.008621 A 41,41 0 0 1 -9.0000229,49.999999 41,41 0 0 1 -21.008645,78.991378" color="#000" display="inline" enable-background="accumulate" opacity="1" overflow="visible" transform="matrix(0,-1,1,0,0,0)" visibility="visible" style="marker:none"/></g></svg>