<svg xmlns="http://www.w3.org/2000/svg" xmlns:svg="http://www.w3.org/2000/svg" id="svg4744" width="100" height="100" version="1.1" viewBox="0 0 100 100"><metadata id="metadata4749"/><g id="layer4" display="inline"><path id="rect5449-8" fill="#333" fill-opacity="1" fill-rule="nonzero" stroke="none" stroke-dasharray="none" stroke-dashoffset="0" stroke-miterlimit="4" stroke-opacity="1" stroke-width="0" d="M 0,0 0,100 100,100 100,0 0,0 Z M 50,5 A 45,45 0 0 1 95,50 45,45 0 0 1 50,95 45,45 0 0 1 5,50 45,45 0 0 1 50,5 Z" color="#000" display="inline" enable-background="accumulate" opacity="1" overflow="visible" visibility="visible" style="marker:none"/><circle id="circle11130-0" cx="-50" cy="50" r="44" fill="none" fill-opacity="1" fill-rule="nonzero" stroke="#d2d2d2" stroke-dasharray="none" stroke-dashoffset="0" stroke-miterlimit="4" stroke-opacity="1" stroke-width="4" color="#000" display="inline" enable-background="accumulate" opacity="1" overflow="visible" transform="matrix(0,-1,1,0,0,0)" visibility="visible" style="marker:none"/><circle id="circle11130-2" cx="-50" cy="50" r="41" fill="none" fill-opacity="1" fill-rule="nonzero" stroke="#222" stroke-dasharray="none" stroke-dashoffset="0" stroke-miterlimit="4" stroke-opacity="1" stroke-width="2" color="#000" display="inline" enable-background="accumulate" opacity="1" overflow="visible" transform="matrix(0,-1,1,0,0,0)" visibility="visible" style="marker:none"/></g></svg>