<svg xmlns="http://www.w3.org/2000/svg" xmlns:svg="http://www.w3.org/2000/svg" id="svg2" width="32" height="32" version="1.1" viewBox="0 0 32 32"><metadata id="metadata12"/><path id="path6" fill="#d2d2d2" fill-opacity="1" d="m 27,12 2,0 c 0.554,0 1,0.446 1,1 l 0,8 c 0,0.554 -0.446,1 -1,1 l -2,0 c -0.554,0 -1,-0.446 -1,-1 l 0,-8 c 0,-0.554 0.446,-1 1,-1 z m -24,0 2,0 c 0.554,0 1,0.446 1,1 l 0,8 c 0,0.554 -0.446,1 -1,1 L 3,22 C 2.446,22 2,21.554 2,21 L 2,13 C 2,12.446 2.446,12 3,12 Z M 8,12 8,13.1563 8,14 8,24.844 c 0,0.6463 0.446,1.1562 1,1.1562 l 1,0 0,3 c 0,0.554 0.446,1 1,1 l 2,0 c 0.554,0 1,-0.446 1,-1 l 0,-3 4,0 0,3 c 0,0.554 0.446,1 1,1 l 2,0 c 0.554,0 1,-0.446 1,-1 l 0,-3 1,0 c 0.554,0 1,-0.5099 1,-1.1562 L 24,14 24,13.1563 24,12 23,12 9,12 8,12 Z M 16,1.938 c -4.4183,0 -8,3.5967 -8,8.0313 0,0.011 -4.09e-5,0.021 0,0.031 l 16,0 c 4.1e-5,-0.011 0,-0.021 0,-0.031 C 24,5.5347 20.4183,1.938 16,1.938 Z m -3.5,3.0625 c 0.82843,0 1.5,0.6716 1.5,1.5 0,0.8284 -0.67157,1.5 -1.5,1.5 -0.82843,0 -1.5,-0.6716 -1.5,-1.5 0,-0.8284 0.67157,-1.5 1.5,-1.5 z m 7,0 c 0.82843,0 1.5,0.6716 1.5,1.5 0,0.8284 -0.67157,1.5 -1.5,1.5 -0.82843,0 -1.5,-0.6716 -1.5,-1.5 0,-0.8284 0.67157,-1.5 1.5,-1.5 z" color="#000"/></svg>