<svg xmlns="http://www.w3.org/2000/svg" xmlns:svg="http://www.w3.org/2000/svg" id="svg2" width="32" height="32" version="1.1" viewBox="0 0 32 32"><metadata id="metadata12"/><path style="text-indent:0;text-decoration-line:none;text-decoration-style:solid;text-decoration-color:#000;text-transform:none;block-progression:tb;white-space:normal;isolation:auto;mix-blend-mode:normal;solid-color:#000" id="path6" fill="#d2d2d2" fill-opacity="1" d="m 28.981,2 a 1.0001,1.0001 0 0 0 -0.6875,0.3027 l -6,6 a 1.0001,1.0001 0 1 0 1.4141,1.4141 l 6,-6 A 1.0001,1.0001 0 0 0 28.98104,2 Z M 10.03,22.01 C 9.7398397,22 9.4604397,22.1201 9.2643797,22.3342 l -5.2012,5.6738 -1.0449,-0.01 c -0.24329,0 -0.47869,0.086 -0.66211,0.2461 -0.01882,0.016 -0.03707,0.032 -0.05469,0.049 l -0.0098,0.012 c -0.19722,0.1978 -0.30273,0.469 -0.29102,0.7481 0.02506,0.5339 0.46551,0.9537 1,0.9532 l 1.4941,0 10.9770003,0 0.03125,0 11.496,0 0.002,0 c 1.3147,-0.017 1.3166,-1.9801 0.002,-2 l -0.002,0 -4.998,-0.01 -0.0039,0 -6.0586,0.01 -5.2012,-5.6758 C 10.55657,22.1311 10.30078,22.0141 10.03033,22.0064 Z M 30.001,20.2347 A 12.887,12.887 0 0 1 17.553,23.5702 12.887,12.887 0 0 1 8.4402997,14.4575 12.887,12.887 0 0 1 11.7758,2.0095" color="#000" color-rendering="auto" image-rendering="auto" shape-rendering="auto" text-decoration="none"/></svg>