<svg xmlns="http://www.w3.org/2000/svg" xmlns:svg="http://www.w3.org/2000/svg" id="svg2" version="1.1" viewBox="0 0 48 48"><metadata id="metadata12"/><path id="path4" fill="none" d="m0 0h48v48h-48z"/><path id="path6" fill="#d2d2d2" fill-opacity="1" d="m 24,7 c -6.813,0 -11.16,3.69 -13.666,7.299 -0.102,0.147 -0.185,0.292 -0.281,0.439 -0.1889,0.277 -0.3575,0.54 -0.5061,0.791 -0.0631,0.106 -0.1214,0.208 -0.1817,0.313 -0.0498,0.089 -0.0921,0.166 -0.1367,0.25 -1.6311,2.919 -2.2051,5.429 -2.2051,5.429 A 1.0001,1.0001 0 0 0 7,21.74 l 0,9.629 a 1.0001,1.0001 0 0 0 0.4121,0.811 l 4.9629,3.601 c 0.063,2.007 0.303,4.047 0.687,6.219 L 18,42 18,25.004 13.965,24.975 c -0.962,2.949 -1.446,5.652 -1.572,8.347 L 9,30.859 9,21.885 c 0.0189,-0.082 0.4028,-1.689 1.41,-3.752 l 1.018,0.328 c 0,0 0.561,-1.767 2.424,-3.649 1.862,-1.881 4.92,-3.796 10.195,-3.796 5.275,0 8.304,1.913 10.142,3.791 1.838,1.877 2.379,3.64 2.379,3.64 l 1.02,-0.318 c 1.009,2.065 1.393,3.674 1.412,3.756 l 0,8.974 -3.014,2.19 C 35.951,30.344 35.608,27.642 34.938,25 L 30,25 l 0,17 4.938,0 c 0.537,-2.119 0.868,-4.277 0.998,-6.443 L 40.588,32.18 A 1.0001,1.0001 0 0 0 41,31.369 l 0,-9.629 a 1.0001,1.0001 0 0 0 -0.023,-0.219 c 0,0 -0.554,-2.41 -2.11,-5.253 C 38.589,15.71 38.214,15.052 37.666,14.299 35.16,10.69 30.813,7 24,7 Z"/></svg>