<svg xmlns="http://www.w3.org/2000/svg" xmlns:svg="http://www.w3.org/2000/svg" id="svg2" width="48" height="48" version="1.1" viewBox="0 0 48 48"><metadata id="metadata12"/><path id="path6" fill="none" d="M 0,2 H 48 V 50 H 0 Z"/><path id="path4-9" fill="none" d="M 48,-2e-7 H 96 V 48 H 48 Z"/><g id="g6137" transform="translate(-1.5820024,-0.40981284)"><g id="g6198" transform="translate(-0.57599546)"><path id="path4" fill="none" stroke-width=".98" d="M 2.1579978,1.3446317 H 50.157998 V 47.474994 H 2.1579978 Z"/><path id="path6269" fill="#d2d2d2" fill-opacity="1" stroke-width=".98" d="m 28.157998,4.2277794 h -4 V 23.448764 h 4 z"/><path id="path1420" fill="#d2d2d2" fill-opacity="1" stroke-width="1.132" d="M 17.110011,43.016738 27.958204,36.07353 19.478011,26.375733 c -2.368012,16.641 -2.368012,16.641 -2.368012,16.641 z"/><path id="path6273" fill="#fff" fill-opacity="0" fill-rule="evenodd" stroke="#d2d2d2" stroke-dasharray="none" stroke-linecap="round" stroke-linejoin="miter" stroke-miterlimit="4" stroke-opacity="1" stroke-width="2.821" d="M 18.574341,35.029256 A 13.755358,13.219576 0 0 1 9.9235355,23.467846 13.755358,13.219576 0 0 1 17.210466,11.068535" opacity="1" paint-order="normal"/><path id="path6273-8" fill="#fff" fill-opacity="0" fill-rule="evenodd" stroke="#d2d2d2" stroke-dasharray="none" stroke-linecap="round" stroke-linejoin="miter" stroke-miterlimit="4" stroke-opacity="1" stroke-width="2.821" d="m -30.722533,35.671316 a 13.755358,13.219576 0 0 1 -10.736999,-11.088888 13.755358,13.219576 0 0 1 7.147418,-13.50027" opacity="1" paint-order="normal" transform="scale(-1,1)"/></g></g></svg>