<svg xmlns="http://www.w3.org/2000/svg" xmlns:svg="http://www.w3.org/2000/svg" id="svg2" width="48" height="48" version="1.1" viewBox="0 0 48 48"><metadata id="metadata12"/><path id="path4" fill="none" d="m0 0h48v48h-48z"/><path id="path6" fill="#d2d2d2" fill-opacity="1" d="m 26,7 -4,0 0,20 4,0 z m 7.13,4.87 -2.89,2.89 C 33.69,16.87 36,20.66 36,25 36,31.63 30.63,37 24,37 17.37,37 12,31.63 12,25 12,20.66 14.31,16.87 17.76,14.76 L 14.87,11.87 C 10.72,14.76 8,19.56 8,25 c 0,8.84 7.16,16 16,16 8.84,0 16,-7.16 16,-16 0,-5.44 -2.72,-10.24 -6.87,-13.13 z"/></svg>