<svg xmlns="http://www.w3.org/2000/svg" xmlns:svg="http://www.w3.org/2000/svg" id="svg2" width="32" height="32" version="1.1" viewBox="0 0 32 32"><metadata id="metadata12"/><path id="path6" fill="#d2d2d2" fill-opacity="1" d="M 2.875,5 C 1.8362,5 1,5.892 1,7 l 0,18 c 0,1.108 0.83625,2 1.875,2 l 26.25,0 C 30.1638,27 31,26.108 31,25 L 31,7 C 31,5.892 30.16375,5 29.125,5 L 25,5 25,9 7,9 7,5 2.875,5 Z M 9,5 9,7 23,7 23,5 9,5 Z M 8,15 c 1.6569,0 3,1.3431 3,3 0,1.6569 -1.3431,3 -3,3 -1.6569,0 -3,-1.3431 -3,-3 0,-1.6569 1.3431,-3 3,-3 z m 16,0 c 1.6569,0 3,1.3431 3,3 0,1.6569 -1.3431,3 -3,3 -1.6569,0 -3,-1.3431 -3,-3 0,-1.6569 1.3431,-3 3,-3 z m -10.5,2 5,0 c 0.277,0 0.5,0.223 0.5,0.5 l 0,1 c 0,0.277 -0.223,0.5 -0.5,0.5 l -5,0 C 13.223,19 13,18.777 13,18.5 l 0,-1 C 13,17.223 13.223,17 13.5,17 Z"/></svg>