<svg xmlns="http://www.w3.org/2000/svg" xmlns:svg="http://www.w3.org/2000/svg" id="svg2" version="1.1" viewBox="0 0 48 48"><metadata id="metadata12"/><path id="path4" fill="#d2d2d2" fill-opacity="1" d="m 24,14 c -5.52,0 -10,4.48 -10,10 0,5.52 4.48,10 10,10 5.52,0 10,-4.48 10,-10 C 34,18.48 29.52,14 24,14 Z M 24,4 C 12.95,4 4,12.95 4,24 4,35.05 12.95,44 24,44 35.05,44 44,35.05 44,24 44,12.95 35.05,4 24,4 Z m 0,36 C 15.16,40 8,32.84 8,24 8,15.16 15.16,8 24,8 c 8.84,0 16,7.16 16,16 0,8.84 -7.16,16 -16,16 z"/><path id="path6" fill="none" d="m0 0h48v48h-48z"/></svg>