<svg xmlns="http://www.w3.org/2000/svg" xmlns:svg="http://www.w3.org/2000/svg" id="svg2" width="32" height="32" version="1.1" viewBox="0 0 32 32"><metadata id="metadata12"/><path style="text-indent:0;text-decoration-line:none;text-decoration-style:solid;text-decoration-color:#000;text-transform:none;block-progression:tb;white-space:normal;isolation:auto;mix-blend-mode:normal;solid-color:#000" id="path6" fill="#d2d2d2" fill-opacity="1" d="M 16,2 C 8.32,2 2,8.32 2,16 2,23.6801 8.32,30 16,30 23.68,30 30,23.6801 30,16 30,8.32 23.68,2 16,2 Z m 0,8.7773 c 2.9365,0 5.2227,2.2862 5.2227,5.2227 0,2.9366 -2.2861,5.2227 -5.2227,5.2227 -2.9365,0 -5.2227,-2.2861 -5.2227,-5.2227 0,-2.9365 2.2861,-5.2227 5.2227,-5.2227 z m 0,2.5528 c -1.4665,0 -2.6699,1.2035 -2.6699,2.6699 0,1.4665 1.2034,2.6699 2.6699,2.6699 1.4665,0 2.6699,-1.2034 2.6699,-2.6699 0,-1.4664 -1.2035,-2.6699 -2.6699,-2.6699 z" color="#000" color-rendering="auto" image-rendering="auto" shape-rendering="auto" text-decoration="none"/></svg>