<svg xmlns="http://www.w3.org/2000/svg" xmlns:svg="http://www.w3.org/2000/svg" xmlns:xlink="http://www.w3.org/1999/xlink" id="svg2" width="32" height="32" version="1.1"><defs id="defs4"><linearGradient id="linearGradient4574"><stop id="stop4576" offset="0" stop-color="#fff" stop-opacity="1"/><stop id="stop4578" offset="1" stop-color="#e6e6e6" stop-opacity="1"/></linearGradient><linearGradient id="linearGradient3846"><stop id="stop3848" offset="0" stop-color="#b0b0b0" stop-opacity="1"/><stop id="stop3850" offset="1" stop-color="#585858" stop-opacity="0"/></linearGradient><linearGradient id="linearGradient4937"><stop id="stop4939" offset="0" stop-color="#e90808" stop-opacity="1"/><stop id="stop4941" offset="1" stop-color="#b60000" stop-opacity="1"/></linearGradient><linearGradient id="linearGradient3939"><stop id="stop3941" offset="0" stop-color="#eece33" stop-opacity=".951"/><stop id="stop5813" offset=".611" stop-color="#ff734e" stop-opacity=".819"/><stop id="stop3943" offset="1" stop-color="#ff2d2d" stop-opacity="0"/></linearGradient><linearGradient id="linearGradient5461"><stop id="stop5463" offset="0" stop-color="#b9dcff" stop-opacity="1"/><stop id="stop5465" offset="1" stop-color="#0d0d0d" stop-opacity="1"/></linearGradient><linearGradient id="linearGradient5441"><stop id="stop5443" offset="0" stop-color="#060606" stop-opacity="1"/><stop id="stop5445" offset="1" stop-color="#343434" stop-opacity="1"/></linearGradient><linearGradient id="linearGradient5483-8" x1="345.558" x2="477.525" y1="460.784" y2="506.369" gradientUnits="userSpaceOnUse" xlink:href="#linearGradient5441-4"/><linearGradient id="linearGradient5441-4"><stop id="stop5443-2" offset="0" stop-color="#060606" stop-opacity="1"/><stop id="stop5445-4" offset="1" stop-color="#2a2a2a" stop-opacity="1"/></linearGradient><linearGradient id="linearGradient5441-7"><stop id="stop5443-4" offset="0" stop-color="#060606" stop-opacity="1"/><stop id="stop5445-7" offset="1" stop-color="#2a2a2a" stop-opacity="1"/></linearGradient><linearGradient id="linearGradient5573-4" x1="345.558" x2="477.525" y1="460.784" y2="506.369" gradientTransform="matrix(-0.31622183,-0.94868524,0.94868524,-0.31622183,39.645062,974.00808)" gradientUnits="userSpaceOnUse" xlink:href="#linearGradient5441-4-6"/><linearGradient id="linearGradient5441-4-6"><stop id="stop5443-2-5" offset="0" stop-color="#060606" stop-opacity="1"/><stop id="stop5445-4-9" offset="1" stop-color="#2a2a2a" stop-opacity="1"/></linearGradient><radialGradient id="radialGradient3945" cx="366.938" cy="355.357" r="21.466" fx="366.938" fy="355.357" gradientTransform="matrix(1,0,0,0.98823527,223.83677,381.60387)" gradientUnits="userSpaceOnUse" xlink:href="#linearGradient3939"/><linearGradient id="linearGradient5024" x1="256.74" x2="484.712" y1="472.03" y2="472.03" gradientTransform="translate(54.522364,18.173742)" gradientUnits="userSpaceOnUse" xlink:href="#linearGradient5441"/><linearGradient id="linearGradient5032" x1="366.716" x2="368.965" y1="515.518" y2="333.185" gradientTransform="translate(0,-57.471498)" gradientUnits="userSpaceOnUse" xlink:href="#linearGradient5441-4"/><linearGradient id="linearGradient5265" x1="366.716" x2="368.965" y1="515.518" y2="333.185" gradientTransform="translate(0.822937,-35.303175)" gradientUnits="userSpaceOnUse" xlink:href="#linearGradient5441-4"/><linearGradient id="linearGradient5267" x1="256.74" x2="484.712" y1="472.03" y2="472.03" gradientTransform="translate(33.231373,11.944343)" gradientUnits="userSpaceOnUse" xlink:href="#linearGradient5441"/><radialGradient id="radialGradient5791" cx="366.938" cy="355.357" r="21.466" fx="366.938" fy="355.357" gradientTransform="matrix(1,0,0,0.98823527,-5.7381477e-7,4.1806787)" gradientUnits="userSpaceOnUse" xlink:href="#linearGradient3939"/><linearGradient id="linearGradient5793" x1="366.716" x2="368.965" y1="515.518" y2="333.185" gradientTransform="translate(0.822937,-35.303175)" gradientUnits="userSpaceOnUse" xlink:href="#linearGradient5441-4"/><linearGradient id="linearGradient5795" x1="256.74" x2="484.712" y1="472.03" y2="472.03" gradientTransform="translate(33.231373,11.944343)" gradientUnits="userSpaceOnUse" xlink:href="#linearGradient5441"/><linearGradient id="linearGradient5803" x1="366.716" x2="368.965" y1="515.518" y2="333.185" gradientTransform="translate(0,-37.471498)" gradientUnits="userSpaceOnUse" xlink:href="#linearGradient5441-4"/><radialGradient id="radialGradient5825" cx="366.938" cy="355.357" r="21.466" fx="366.938" fy="355.357" gradientTransform="matrix(1,0,0,0.98823527,-5.7381459e-7,4.1806787)" gradientUnits="userSpaceOnUse" xlink:href="#linearGradient3939"/><linearGradient id="linearGradient5845" x1="366.716" x2="368.965" y1="515.518" y2="333.185" gradientTransform="translate(0,-37.471498)" gradientUnits="userSpaceOnUse" xlink:href="#linearGradient5441-4"/><linearGradient id="linearGradient5847" x1="256.74" x2="484.712" y1="472.03" y2="472.03" gradientTransform="translate(33.231373,11.944343)" gradientUnits="userSpaceOnUse" xlink:href="#linearGradient5441"/><linearGradient id="linearGradient3354" x1="366.716" x2="368.965" y1="515.518" y2="333.185" gradientTransform="translate(0,-37.471498)" gradientUnits="userSpaceOnUse" xlink:href="#linearGradient5441-4"/><linearGradient id="linearGradient3356" x1="256.74" x2="484.712" y1="472.03" y2="472.03" gradientTransform="translate(33.231373,11.944343)" gradientUnits="userSpaceOnUse" xlink:href="#linearGradient5441"/><radialGradient id="radialGradient3358" cx="366.938" cy="355.357" r="21.466" fx="366.938" fy="355.357" gradientTransform="matrix(1,0,0,0.98823527,-5.7381495e-7,4.1806787)" gradientUnits="userSpaceOnUse" xlink:href="#linearGradient3939"/><linearGradient id="linearGradient3837" x1="366.716" x2="368.965" y1="515.518" y2="333.185" gradientTransform="translate(0,-37.471498)" gradientUnits="userSpaceOnUse" xlink:href="#linearGradient5441-4"/><linearGradient id="linearGradient3839" x1="256.74" x2="484.712" y1="472.03" y2="472.03" gradientTransform="translate(33.231373,11.944343)" gradientUnits="userSpaceOnUse" xlink:href="#linearGradient5441"/><radialGradient id="radialGradient3841" cx="366.938" cy="355.357" r="21.466" fx="366.938" fy="355.357" gradientTransform="matrix(1,0,0,0.98823527,-5.7381549e-7,4.1806787)" gradientUnits="userSpaceOnUse" xlink:href="#linearGradient3939"/><linearGradient id="linearGradient4945" x1="202.49" x2="202.488" y1="623.478" y2="634.365" gradientTransform="matrix(1.257316,0,0,1,-52.110466,0)" gradientUnits="userSpaceOnUse" xlink:href="#linearGradient4937"/><radialGradient id="radialGradient4947" cx="366.938" cy="355.357" r="21.466" fx="366.938" fy="355.357" gradientTransform="matrix(1,0,0,0.98823527,-5.7381549e-7,4.1806787)" gradientUnits="userSpaceOnUse" xlink:href="#linearGradient3939"/><radialGradient id="radialGradient4947-4" cx="366.938" cy="355.357" r="21.466" fx="366.938" fy="355.357" gradientTransform="matrix(1,0,0,0.98823527,-5.7381549e-7,4.1806787)" gradientUnits="userSpaceOnUse" xlink:href="#linearGradient3939-3"/><linearGradient id="linearGradient3939-3"><stop id="stop3941-2" offset="0" stop-color="#eece33" stop-opacity=".951"/><stop id="stop5813-8" offset=".611" stop-color="#ff734e" stop-opacity=".819"/><stop id="stop3943-54" offset="1" stop-color="#ff2d2d" stop-opacity="0"/></linearGradient><linearGradient id="linearGradient3142" x1="202.49" x2="202.488" y1="623.478" y2="628.416" gradientTransform="matrix(1.257316,0,0,1,-234.5901,-615.11102)" gradientUnits="userSpaceOnUse" xlink:href="#linearGradient4937-6"/><linearGradient id="linearGradient4937-6"><stop id="stop4939-3" offset="0" stop-color="#e90808" stop-opacity="1"/><stop id="stop4941-8" offset="1" stop-color="#b60000" stop-opacity="1"/></linearGradient><linearGradient id="linearGradient3935" x1="202.49" x2="202.488" y1="623.478" y2="628.416" gradientTransform="matrix(1.257316,0,0,1,-252.5901,-618.29518)" gradientUnits="userSpaceOnUse" xlink:href="#linearGradient4937-6"/><linearGradient id="linearGradient3006-9" x1="16.898" x2="9.202" y1="20.738" y2="-2.351" gradientTransform="matrix(0.87938072,0,0,0.87938072,5.601027,5.6050519)" gradientUnits="userSpaceOnUse" xlink:href="#Grad0-8"/><linearGradient id="Grad0-8" x1="16.898" x2="9.202" y1="20.738" y2="-2.351" gradientUnits="userSpaceOnUse"><stop id="stop10-5" offset="0" stop-color="#060606" stop-opacity="1"/><stop id="stop12-7" offset="1" stop-color="#343434" stop-opacity="1"/></linearGradient><linearGradient id="linearGradient3852" x1="6.296" x2="27.704" y1="17.004" y2="17.004" gradientUnits="userSpaceOnUse" xlink:href="#linearGradient3846"/><linearGradient id="linearGradient3006-9-5" x1="16.898" x2="9.202" y1="20.738" y2="-2.351" gradientTransform="matrix(0.87938072,0,0,0.87938072,5.601027,5.6050519)" gradientUnits="userSpaceOnUse" xlink:href="#Grad0-8-9"/><linearGradient id="Grad0-8-9" x1="16.898" x2="9.202" y1="20.738" y2="-2.351" gradientUnits="userSpaceOnUse"><stop id="stop10-5-4" offset="0" stop-color="#060606" stop-opacity="0"/><stop id="stop3929" offset=".343" stop-color="#fff" stop-opacity="0"/><stop id="stop12-7-9" offset="1" stop-color="#fff" stop-opacity="1"/></linearGradient><linearGradient id="linearGradient3852-5" x1="6.296" x2="27.704" y1="17.004" y2="17.004" gradientUnits="userSpaceOnUse" xlink:href="#linearGradient3846-6"/><linearGradient id="linearGradient3846-6"><stop id="stop3927" offset="0" stop-color="#7c7c7c" stop-opacity="0"/><stop id="stop3850-6" offset="1" stop-color="#fff" stop-opacity="1"/></linearGradient><linearGradient id="linearGradient3898" x1="6.296" x2="27.704" y1="17.004" y2="17.004" gradientTransform="matrix(0,1,-1,0,219.4874,616.89065)" gradientUnits="userSpaceOnUse" xlink:href="#Grad0-8-9"/><radialGradient id="radialGradient4006-6" cx="366.938" cy="355.357" r="21.466" fx="366.938" fy="355.357" gradientTransform="matrix(1,0,0,0.98823527,-5.7381549e-7,4.1806787)" gradientUnits="userSpaceOnUse" xlink:href="#linearGradient3939-3-2"/><linearGradient id="linearGradient3939-3-2"><stop id="stop3941-2-1" offset="0" stop-color="#eece33" stop-opacity=".951"/><stop id="stop5813-8-8" offset=".611" stop-color="#ff734e" stop-opacity=".819"/><stop id="stop3943-54-5" offset="1" stop-color="#ff2d2d" stop-opacity="0"/></linearGradient><linearGradient id="linearGradient4004-8" x1="202.49" x2="202.488" y1="623.478" y2="628.416" gradientTransform="matrix(1.0687186,0,0,0.85000057,-199.40337,-521.80407)" gradientUnits="userSpaceOnUse" xlink:href="#linearGradient4937-6-9"/><linearGradient id="linearGradient4937-6-9"><stop id="stop4939-3-0" offset="0" stop-color="#e90808" stop-opacity="1"/><stop id="stop4941-8-7" offset="1" stop-color="#b60000" stop-opacity="1"/></linearGradient><linearGradient id="linearGradient3898-0" x1="6.296" x2="27.704" y1="17.004" y2="17.004" gradientTransform="matrix(0,1,-1,0,219.4874,616.89065)" gradientUnits="userSpaceOnUse" xlink:href="#Grad0-8-9-5"/><linearGradient id="Grad0-8-9-5" x1="16.898" x2="9.202" y1="20.738" y2="-2.351" gradientUnits="userSpaceOnUse"><stop id="stop10-5-4-7" offset="0" stop-color="#060606" stop-opacity="0"/><stop id="stop3929-9" offset=".343" stop-color="#fff" stop-opacity="0"/><stop id="stop12-7-9-6" offset="1" stop-color="#fff" stop-opacity="1"/></linearGradient><linearGradient id="linearGradient4004-8-1" x1="202.49" x2="202.488" y1="623.478" y2="628.416" gradientTransform="matrix(1.0687186,0,0,0.85000057,-199.40337,-521.80407)" gradientUnits="userSpaceOnUse" xlink:href="#linearGradient4937-6-9-7"/><linearGradient id="linearGradient4937-6-9-7"><stop id="stop4939-3-0-9" offset="0" stop-color="#e90808" stop-opacity="1"/><stop id="stop4941-8-7-5" offset="1" stop-color="#b60000" stop-opacity="1"/></linearGradient><radialGradient id="radialGradient4006-2" cx="366.938" cy="355.357" r="21.466" fx="366.938" fy="355.357" gradientTransform="matrix(1,0,0,0.98823527,-5.7381549e-7,4.1806787)" gradientUnits="userSpaceOnUse" xlink:href="#linearGradient3939-3-7"/><linearGradient id="linearGradient3939-3-7"><stop id="stop3941-2-5" offset="0" stop-color="#eece33" stop-opacity=".951"/><stop id="stop5813-8-1" offset=".611" stop-color="#ff734e" stop-opacity=".819"/><stop id="stop3943-54-9" offset="1" stop-color="#ff2d2d" stop-opacity="0"/></linearGradient><filter id="filter5815-7-9" color-interpolation-filters="sRGB"><feGaussianBlur id="feGaussianBlur5817-6-1" stdDeviation=".427"/></filter><linearGradient id="linearGradient4004-9" x1="202.49" x2="202.488" y1="623.478" y2="628.416" gradientTransform="matrix(1.0687186,0,0,0.85000057,-13.919877,95.08267)" gradientUnits="userSpaceOnUse" xlink:href="#linearGradient4937-6-6"/><linearGradient id="linearGradient4937-6-6"><stop id="stop4939-3-8" offset="0" stop-color="#e90808" stop-opacity="1"/><stop id="stop4941-8-6" offset="1" stop-color="#b60000" stop-opacity="1"/></linearGradient><linearGradient id="linearGradient4302" x1="202.49" x2="202.488" y1="623.478" y2="628.416" gradientTransform="matrix(1.0687186,0,0,0.85000057,-199.40336,-521.80407)" gradientUnits="userSpaceOnUse" xlink:href="#linearGradient4937-6-6"/><radialGradient id="radialGradient4337" cx="366.938" cy="355.357" r="21.466" fx="366.938" fy="355.357" gradientTransform="matrix(1,0,0,0.98823527,-5.7381549e-7,4.1806787)" gradientUnits="userSpaceOnUse" xlink:href="#linearGradient3939-3-7"/><radialGradient id="radialGradient4337-8" cx="366.938" cy="355.357" r="21.466" fx="366.938" fy="355.357" gradientTransform="matrix(1,0,0,0.98823527,-5.7381549e-7,4.1806787)" gradientUnits="userSpaceOnUse" xlink:href="#linearGradient3939-3-7-5"/><linearGradient id="linearGradient3939-3-7-5"><stop id="stop3941-2-5-0" offset="0" stop-color="#3ae" stop-opacity=".951"/><stop id="stop5813-8-1-6" offset=".611" stop-color="#4ebeff" stop-opacity=".819"/><stop id="stop3943-54-9-4" offset="1" stop-color="#2db2ff" stop-opacity="0"/></linearGradient><filter id="filter5815-7-9-8" color-interpolation-filters="sRGB"><feGaussianBlur id="feGaussianBlur5817-6-1-3" stdDeviation=".427"/></filter><linearGradient id="linearGradient4302-4" x1="202.49" x2="202.488" y1="623.478" y2="628.416" gradientTransform="matrix(1.0687186,0,0,0.85000057,-199.40336,-521.80407)" gradientUnits="userSpaceOnUse" xlink:href="#linearGradient4937-6-6-2"/><linearGradient id="linearGradient4937-6-6-2"><stop id="stop4939-3-8-2" offset="0" stop-color="#0897e9" stop-opacity="1"/><stop id="stop4941-8-6-9" offset="1" stop-color="#0074b6" stop-opacity="1"/></linearGradient><linearGradient id="linearGradient3130" x1="202.49" x2="202.488" y1="623.478" y2="628.416" gradientTransform="matrix(1.0687186,0,0,0.85000057,-199.40336,-521.80407)" gradientUnits="userSpaceOnUse" xlink:href="#linearGradient4937-6-6-2"/><linearGradient id="linearGradient3939-3-7-2"><stop id="stop3941-2-5-05" offset="0" stop-color="#eece33" stop-opacity=".951"/><stop id="stop5813-8-1-2" offset=".611" stop-color="#ff734e" stop-opacity=".819"/><stop id="stop3943-54-9-1" offset="1" stop-color="#ff2d2d" stop-opacity="0"/></linearGradient><linearGradient id="linearGradient4302-6" x1="202.49" x2="202.488" y1="623.478" y2="628.416" gradientTransform="matrix(1.0687186,0,0,0.85000057,-199.40336,-521.80407)" gradientUnits="userSpaceOnUse" xlink:href="#linearGradient4937-6-6-24"/><linearGradient id="linearGradient4937-6-6-24"><stop id="stop4939-3-8-4" offset="0" stop-color="#e90808" stop-opacity="1"/><stop id="stop4941-8-6-4" offset="1" stop-color="#b60000" stop-opacity="1"/></linearGradient><linearGradient id="linearGradient4580" x1="17.001" x2="17.001" y1="4.467" y2="12.35" gradientTransform="matrix(0.94117647,0,0,0.94117647,0,2)" gradientUnits="userSpaceOnUse" xlink:href="#linearGradient4574"/></defs><metadata id="metadata7"/><g id="layer1" display="none" transform="translate(-3,-5)"><rect id="rect3053" width="34" height="34" x="3" y="3" fill="#0f0f0f" fill-opacity=".362" stroke="none"/></g><g id="layer2" display="none" transform="translate(0,-2)"><path id="path4669-2" fill="#000" fill-opacity="1" fill-rule="nonzero" stroke="#000" stroke-dasharray="none" stroke-linecap="butt" stroke-linejoin="miter" stroke-miterlimit="4" stroke-opacity="1" stroke-width="1.108" d="m 13.791149,8.7524258 c 5.316727,-1.772181 11.063393,1.101187 12.835609,6.4178532 1.772216,5.31664 -1.10116,11.063306 -6.417896,12.835522 C 14.892125,29.777929 9.145433,26.904551 7.373234,21.587903 5.601027,16.271255 8.47443,10.524616 13.791149,8.7524258 z" opacity=".94"/><path id="path4669" fill="url(#linearGradient3006-9)" fill-rule="nonzero" stroke="url(#linearGradient3852)" stroke-dasharray="none" stroke-linecap="butt" stroke-linejoin="miter" stroke-width="1.108" d="m 13.791149,7.3772328 c 5.316727,-1.7721809 11.063393,1.101187 12.835609,6.4178532 1.772216,5.31664 -1.10116,11.063305 -6.417896,12.835521 C 14.892125,28.402735 9.145433,25.529358 7.373235,20.21271 5.601027,14.896062 8.47443,9.1494228 13.791149,7.3772328 z"/></g><g id="layer3" display="none" transform="translate(-185.48349,-618.88674)"><path id="path4669-5" fill="none" stroke="url(#linearGradient3898)" stroke-dasharray="none" stroke-linecap="butt" stroke-linejoin="miter" stroke-width="1.108" d="m 212.11016,630.6818 c 1.77219,5.31673 -1.10118,11.06339 -6.41785,12.83561 -5.31664,1.77221 -11.0633,-1.10116 -12.83552,-6.4179 -1.77213,-5.31674 1.10125,-11.06343 6.4179,-12.83563 5.31665,-1.7722 11.06328,1.1012 12.83547,6.41792 z" display="inline"/></g><g id="layer5" display="none" transform="translate(0,-2)"><path id="path4669-5-5-8" fill="#b0b0b0" fill-opacity="1" stroke="none" stroke-width="1.108" d="M 12.8125,7.15625 C 7.7305322,9.3125835 5.0685966,15.049189 6.84375,20.375 8.7106308,25.975727 14.774367,29.023124 20.375,27.15625 25.975659,25.289367 29.0231,19.225718 27.15625,13.625 26.148302,10.601068 23.907778,8.346353 21.1875,7.1875 l 0,0.75 0,1.15625 c 1.974738,1.041217 3.579965,2.802333 4.34375,5.09375 1.573657,4.721112 -0.966444,9.801318 -5.6875,11.375 C 15.122726,27.136172 10.042434,24.596123 8.46875,19.875 7.0538618,15.630056 8.9808912,11.109576 12.8125,9.09375 l 0,-1.1875 c -4.5e-5,-0.2687144 -1.5e-4,-0.5519076 0,-0.75 z" baseline-shift="baseline" color="#000" direction="ltr" display="inline" enable-background="accumulate" font-family="Sans" font-size="medium" font-stretch="normal" font-style="normal" font-variant="normal" font-weight="normal" letter-spacing="normal" overflow="visible" text-anchor="start" text-decoration="none" visibility="visible" word-spacing="normal" writing-mode="lr-tb" style="text-indent:0;text-align:start;line-height:normal;text-transform:none;block-progression:tb;marker:none;-inkscape-font-specification:Sans"/></g><g id="layer4" display="none" transform="translate(0,-2)"><path id="rect5578-8-2" fill="url(#linearGradient4302)" fill-opacity="1" stroke="none" d="m 15.3,3.0844792 c 0,-0.9175 0.56725,-1.7192 1.7,-1.7192 1.07944,0 1.7,0.79317 1.7,1.7192 0,2.61633 0.001,7.5441498 0.001,7.5441498 -0.004,1.051881 -0.68283,1.721501 -1.6999,1.721501 -1.01707,0 -1.7,-0.65763 -1.7,-1.721501 -0.007,-3.9168098 -10e-4,-3.8763698 -10e-4,-7.5441498 z" display="inline"/><path id="path3936-7-1" fill="url(#radialGradient4337)" fill-opacity="1" fill-rule="nonzero" stroke="none" d="m 388.40367,355.35693 c 0,11.71573 -9.61054,21.21321 -21.46574,21.21321 -11.8552,0 -21.46574,-9.49748 -21.46574,-21.21321 0,-11.71573 9.61054,-21.2132 21.46574,-21.2132 11.8552,0 21.46574,9.49747 21.46574,21.2132 z" display="inline" filter="url(#filter5815-7-9)" transform="matrix(0.07558908,0,0,0.07644756,-10.7365,-24.17919)"/></g><g id="layer6" display="none" transform="translate(0,-2)"><path id="rect5578-8-2-8" fill="url(#linearGradient3130)" fill-opacity="1" stroke="none" d="m 15.3,3.0844784 c 0,-0.9175 0.56725,-1.7192 1.7,-1.7192 1.07944,0 1.7,0.79317 1.7,1.7192 0,2.61633 0.001,7.5441496 0.001,7.5441496 -0.004,1.051882 -0.68283,1.721502 -1.6999,1.721502 -1.01707,0 -1.7,-0.65763 -1.7,-1.721502 -0.007,-3.9168096 -10e-4,-3.8763696 -10e-4,-7.5441496 z" display="inline"/><path id="path3936-7-1-8" fill="url(#radialGradient4337-8)" fill-opacity="1" fill-rule="nonzero" stroke="none" d="m 388.40367,355.35693 c 0,11.71573 -9.61054,21.21321 -21.46574,21.21321 -11.8552,0 -21.46574,-9.49748 -21.46574,-21.21321 0,-11.71573 9.61054,-21.2132 21.46574,-21.2132 11.8552,0 21.46574,9.49747 21.46574,21.2132 z" display="inline" filter="url(#filter5815-7-9-8)" transform="matrix(0.07558908,0,0,0.07644756,-10.7365,-24.17919)"/></g><g id="layer8" transform="translate(0,-2)"><path id="rect5578-8-2-82" fill="url(#linearGradient4580)" fill-opacity="1" stroke="none" d="m 14.4,4.9030385 c 0,-0.8635294 0.533882,-1.6180706 1.6,-1.6180706 1.015944,0 1.6,0.7465129 1.6,1.6180706 0,2.4624282 9.41e-4,7.1003765 9.41e-4,7.1003765 -0.0038,0.990006 -0.642663,1.620237 -1.599906,1.620237 -0.957242,0 -1.6,-0.618946 -1.6,-1.620237 -0.0066,-3.6864094 -9.41e-4,-3.6483483 -9.41e-4,-7.1003765 z" display="inline"/><path id="path4669-5-5-8-2-4-3" fill="#b4b4b4" fill-opacity="1" stroke="none" stroke-width="1.108" d="M 11.8125,9.375 C 7.5101381,11.449216 5.2941972,16.444786 6.84375,21.09375 8.5259413,26.1404 13.984684,28.869685 19.03125,27.1875 24.077838,25.505307 26.838414,20.046642 25.15625,15 24.299917,12.430925 22.449925,10.465036 20.1875,9.375 l 0,1.78125 c 1.592102,0.957272 2.864943,2.438531 3.5,4.34375 1.417976,4.254055 -0.870996,8.832002 -5.125,10.25 -4.253976,1.41799 -8.832,-0.870936 -10.25,-5.125 -1.2227691,-3.668549 0.3253826,-7.553596 3.5,-9.46875 l 0,-1.78125 z" baseline-shift="baseline" color="#000" direction="ltr" display="inline" enable-background="accumulate" font-family="Sans" font-size="medium" font-stretch="normal" font-style="normal" font-variant="normal" font-weight="normal" letter-spacing="normal" overflow="visible" text-anchor="start" text-decoration="none" visibility="visible" word-spacing="normal" writing-mode="lr-tb" style="text-indent:0;text-align:start;line-height:normal;text-transform:none;block-progression:tb;marker:none;-inkscape-font-specification:Sans"/></g></svg>