<svg xmlns="http://www.w3.org/2000/svg" xmlns:svg="http://www.w3.org/2000/svg" xmlns:xlink="http://www.w3.org/1999/xlink" id="svg3242" width="74" height="28" version="1.1"><metadata id="metadata3248"/><defs id="defs3246"><linearGradient id="linearGradient5279" x1="98" x2="103" y1="-18" y2="-18" gradientTransform="matrix(1,0,0,0.72222222,-98,103)" gradientUnits="userSpaceOnUse" xlink:href="#linearGradient3805"/><linearGradient id="linearGradient3805"><stop id="stop3807" offset="0" stop-color="#002464" stop-opacity="1"/><stop id="stop3809" offset=".18" stop-color="#0872e9" stop-opacity="1"/><stop id="stop3811" offset=".818" stop-color="#0872e9" stop-opacity="1"/><stop id="stop3813" offset="1" stop-color="#002f64" stop-opacity="1"/></linearGradient><linearGradient id="linearGradient3799" x1="98" x2="103" y1="-18" y2="-18" gradientTransform="matrix(1,0,0,0.72222222,-98,26)" gradientUnits="userSpaceOnUse" xlink:href="#linearGradient3805"/><linearGradient id="linearGradient3799-0" x1="98" x2="103" y1="-18" y2="-18" gradientTransform="matrix(1,0,0,0.72222222,-98,26)" gradientUnits="userSpaceOnUse" xlink:href="#linearGradient3805-2"/><linearGradient id="linearGradient3805-2"><stop id="stop3807-3" offset="0" stop-color="#002464" stop-opacity="1"/><stop id="stop3809-7" offset=".18" stop-color="#0872e9" stop-opacity="1"/><stop id="stop3811-5" offset=".818" stop-color="#0872e9" stop-opacity="1"/><stop id="stop3813-9" offset="1" stop-color="#002f64" stop-opacity="1"/></linearGradient><linearGradient id="linearGradient4027" x1="98" x2="103" y1="-18" y2="-18" gradientTransform="matrix(1,0,0,0.72222222,-98,26)" gradientUnits="userSpaceOnUse" xlink:href="#linearGradient3805-2"/><linearGradient id="linearGradient4130" x1="98" x2="103" y1="-18" y2="-18" gradientTransform="matrix(1,0,0,0.72222222,-98,26)" gradientUnits="userSpaceOnUse" xlink:href="#linearGradient3805"/><linearGradient id="linearGradient4143" x1="98" x2="103" y1="-18" y2="-18" gradientTransform="matrix(1,0,0,0.72222222,-98.000002,20)" gradientUnits="userSpaceOnUse" xlink:href="#linearGradient3805-2"/><linearGradient id="linearGradient3847" x1="7.5" x2="12.5" y1="90" y2="90" gradientTransform="translate(-2.3339844e-7,-83.000001)" gradientUnits="userSpaceOnUse" xlink:href="#linearGradient3805-28"/><linearGradient id="linearGradient3805-28"><stop id="stop3807-9" offset="0" stop-color="#002464" stop-opacity="1"/><stop id="stop3809-73" offset=".18" stop-color="#0872e9" stop-opacity="1"/><stop id="stop3811-6" offset=".818" stop-color="#0872e9" stop-opacity="1"/><stop id="stop3813-1" offset="1" stop-color="#002f64" stop-opacity="1"/></linearGradient><linearGradient id="linearGradient4211" x1="7.5" x2="12.5" y1="90" y2="90" gradientTransform="translate(-2.3339844e-7,-83.000001)" gradientUnits="userSpaceOnUse" xlink:href="#linearGradient3805-28"/></defs><g id="layer4" display="inline" transform="translate(0,2)"><g id="g4480" transform="matrix(0.86250001,0,0,0.86250001,8.4333325,2.2830002)"><path id="path2991" fill="#828282" fill-opacity="1" stroke="none" d="m 62.166668,-0.66666691 -6.666667,6.66666661 0,6.6666663 6.666667,6.666667 0.833333,0 0,-19.99999991 -0.833333,0 z" display="inline"/><rect id="rect3783-5" width="3.333" height="6.667" x="51.333" y="6" fill="#828282" fill-opacity="1" fill-rule="nonzero" stroke="none" display="inline"/><path id="path4069" fill="#828282" fill-opacity="1" fill-rule="nonzero" stroke="none" d="m 65.838543,1.4947914 -0.442709,1.1848958 c 2.732211,0.9812025 4.6875,3.5824617 4.6875,6.6536458 0,3.056829 -1.936286,5.648862 -4.648437,6.640625 l 0.429687,1.184896 c 3.188507,-1.170853 5.46875,-4.232538 5.46875,-7.825521 0,-3.6032683 -2.291941,-6.6752158 -5.494791,-7.8385416 z" display="inline"/><path id="path4069-6" fill="#828282" fill-opacity="1" fill-rule="nonzero" stroke="none" d="m 64.979168,3.8515622 -0.429688,1.171875 c 1.765081,0.6368717 3.033854,2.3251542 3.033854,4.3098958 0,1.970123 -1.250111,3.649362 -2.994791,4.296875 l 0.416666,1.171875 c 2.233252,-0.817101 3.828125,-2.952459 3.828125,-5.46875 0,-2.5266158 -1.60651,-4.6722341 -3.854166,-5.4817708 z" display="inline"/></g><path id="path3925" fill="#828282" fill-opacity="1" stroke="none" stroke-width=".5" d="m 12.022549,2.2500002 c -4.1241265,0 -7.4840337,3.35984 -7.4840337,7.4840337 0,0.4715611 0.043025,0.9252071 0.1268481,1.3722661 l 0.1153162,0.622708 C 4.5280824,11.88417 4.3761928,12.180624 4.4347305,12.490097 l 0.8879362,4.658782 c 0.075798,0.400719 0.4526219,0.663911 0.8533415,0.588113 l 1.6605557,-0.311355 c 0.4007196,-0.07579 0.6639109,-0.464153 0.5881139,-0.864872 L 7.5367416,11.901983 C 7.460944,11.501264 7.0841191,11.238072 6.6834001,11.313869 l -0.2882909,0.05766 -0.1037848,-0.56505 -0.023062,-0.103785 0.023062,0 c -0.054418,-0.31724 -0.092253,-0.633115 -0.092253,-0.9686575 0,-3.2265715 2.5969301,-5.8234781 5.823478,-5.8234781 3.226549,-3.68e-5 5.823478,2.5969066 5.823478,5.8234781 0,0.3713735 -0.03854,0.7225445 -0.103785,1.0724425 l -0.103785,0.56505 -0.311354,-0.05766 c -0.400726,-0.0758 -0.789074,0.187395 -0.864873,0.588114 l -0.876405,4.658782 c -0.07579,0.400719 0.175856,0.789075 0.576583,0.864872 l 1.660555,0.311355 c 0.400726,0.07579 0.777543,-0.187394 0.853342,-0.588113 l 0.887936,-4.658782 c 0.0562,-0.297073 -0.06593,-0.589732 -0.299822,-0.749557 l 0.09225,-0.518925 -0.01152,0 0.02306,-0.115315 c 0.08411,-0.448536 0.13838,-0.902218 0.13838,-1.3722661 -6e-6,-4.1241937 -3.359913,-7.4840337 -7.484039,-7.4840337 z" baseline-shift="baseline" color="#000" direction="ltr" display="inline" enable-background="accumulate" font-family="Sans" font-size="medium" font-stretch="normal" font-style="normal" font-variant="normal" font-weight="normal" letter-spacing="normal" overflow="visible" text-anchor="start" text-decoration="none" visibility="visible" word-spacing="normal" writing-mode="lr-tb" style="text-indent:0;text-align:start;line-height:normal;text-transform:none;block-progression:tb;marker:none;-inkscape-font-specification:Sans"/><path id="rect2989-2-3" fill="#828282" fill-opacity="1" fill-rule="nonzero" stroke="none" d="m 11,19 0,10 2,0 48,0 0,-8 -2,0 0,6 -46,0 0,-8 z" display="inline" transform="translate(0,-6)"/></g></svg>