<svg xmlns="http://www.w3.org/2000/svg" xmlns:svg="http://www.w3.org/2000/svg" id="svg3068" width="50" height="107" version="1.1"><metadata id="metadata3074"/><g id="layer4" display="inline"><path id="rect4849-3" fill="#6e6e6e" fill-opacity="1" fill-rule="nonzero" stroke="none" d="m 25,3 c -0.552285,0 -1,0.447715 -1,1 l 0,46 c 0,1.380712 -1.119288,2.5 -2.5,2.5 l -5.5,0 c -0.552285,0 -1,0.447715 -1,1 0,0.552285 0.447715,1 1,1 l 5.5,0 c 1.380712,0 2.5,1.119288 2.5,2.5 l 0,46 c 0,0.55228 0.447715,1 1,1 0.552285,0 1,-0.44772 1,-1 l 0,-46 c 0,-1.380712 1.119288,-2.5 2.5,-2.5 l 5.5,0 c 0.552285,0 1,-0.447715 1,-1 0,-0.552285 -0.447715,-1 -1,-1 l -5.5,0 C 27.119288,52.5 26,51.380712 26,50 L 26,4 C 26,3.447715 25.552285,3 25,3 z m 0,49.5 c 0.552285,0 1,0.447715 1,1 0,0.552285 -0.447715,1 -1,1 -0.552285,0 -1,-0.447715 -1,-1 0,-0.552285 0.447715,-1 1,-1 z" display="inline"/></g></svg>