<svg xmlns="http://www.w3.org/2000/svg" xmlns:svg="http://www.w3.org/2000/svg" id="svg3068" width="20" height="54" version="1.1"><metadata id="metadata3074"/><g id="layer4" display="inline" transform="translate(0,-53)"><path id="rect4849-3" fill="#6e6e6e" fill-opacity="1" fill-rule="nonzero" stroke="none" d="m 10,54.5 c -0.552285,0 -1,0.447715 -1,1 l 0,20.999999 c 0,1.380712 -1.119288,2.5 -2.5,2.5 L 3,79 c -0.552285,0 -1,0.447715 -1,1 0,0.552285 0.447715,1 1,1 l 3.5,-10e-7 c 1.380712,0 2.5,1.119288 2.5,2.5 L 9,104.5 c 0,0.55228 0.447715,1 1,1 0.552285,0 1,-0.44772 1,-1 l 0,-21.000001 c 0,-1.380712 1.119288,-2.5 2.5,-2.5 L 17,81 c 0.552285,0 1,-0.447715 1,-1 0,-0.552285 -0.447715,-1 -1,-1 l -3.5,-10e-7 c -1.380712,0 -2.5,-1.119288 -2.5,-2.5 L 11,55.5 c 0,-0.552285 -0.447715,-1 -1,-1 z m 0,24.499999 c 0.552285,0 1,0.447715 1,1 0,0.552285 -0.447715,1 -1,1 -0.552285,0 -1,-0.447715 -1,-1 0,-0.552285 0.447715,-1 1,-1 z" display="inline"/></g></svg>