<svg xmlns="http://www.w3.org/2000/svg" xmlns:svg="http://www.w3.org/2000/svg" id="svg3242" width="104" height="28" version="1.1"><metadata id="metadata3248"/><g id="layer4" display="inline" transform="translate(0,2)"><path id="path3943" fill="#828282" fill-opacity="1" fill-rule="nonzero" stroke="none" d="m 2,0 0,24 1,0 0,-8.5 C 3,14.16177 4.1187295,13 5.5,13 l 43,0 c 1.380713,0 2.5,1.119288 2.5,2.5 l 0,8.5 2,0 0,-8.5 C 53,14.119287 54.619288,13 56,13 l 42.5,0 c 1.38071,0 2.5,1.119287 2.5,2.5 l 0,8.5 1,0 0,-24 -1,0 0,8.5 C 101,9.880712 99.88071,11 98.5,11 L 56,11 C 54.619287,11 53,9.880712 53,8.5 L 53,0 51,0 51,8.5 C 51,9.880713 49.880712,11 48.5,11 l -43,0 C 4.119288,11 3,9.880712 3,8.5 L 3,0 z m 50,11 c 0.552285,0 1,0.447715 1,1 0,0.552285 -0.447715,1 -1,1 -0.552285,0 -1,-0.447715 -1,-1 0,-0.552285 0.447715,-1 1,-1 z"/></g></svg>