<svg xmlns="http://www.w3.org/2000/svg" xmlns:svg="http://www.w3.org/2000/svg" xmlns:xlink="http://www.w3.org/1999/xlink" id="svg4451" width="36" height="103" version="1.1"><metadata id="metadata4457"/><defs id="defs4455"><linearGradient id="linearGradient3775"><stop id="stop3777" offset="0" stop-color="#0e0000" stop-opacity="1"/><stop id="stop3779" offset="1" stop-color="#7c0000" stop-opacity="0"/></linearGradient><linearGradient id="linearGradient3861"><stop id="stop3863" offset="0" stop-color="#b4b4b4" stop-opacity="1"/><stop id="stop3865" offset="1" stop-color="#6a6a6a" stop-opacity="1"/></linearGradient><linearGradient id="linearGradient3765"><stop id="stop3767" offset="0" stop-color="#d1d1d1" stop-opacity="1"/><stop id="stop3769" offset="1" stop-color="#878787" stop-opacity="1"/></linearGradient><linearGradient id="linearGradient3756"><stop id="stop3758" offset="0" stop-color="#acacac" stop-opacity="1"/><stop id="stop3760" offset="1" stop-color="#acacac" stop-opacity="0"/></linearGradient><linearGradient id="linearGradient3791" x1="20.097" x2="20.097" y1="1.963" y2="100.811" gradientUnits="userSpaceOnUse" xlink:href="#linearGradient3765"/><linearGradient id="linearGradient3867" x1="26.282" x2="26.282" y1="2.732" y2="101.185" gradientUnits="userSpaceOnUse" xlink:href="#linearGradient3861"/><linearGradient id="linearGradient3867-7" x1="26.282" x2="26.282" y1="2.732" y2="101.185" gradientUnits="userSpaceOnUse" xlink:href="#linearGradient3861-9"/><linearGradient id="linearGradient3861-9"><stop id="stop3863-4" offset="0" stop-color="#b4b4b4" stop-opacity="1"/><stop id="stop3865-0" offset="1" stop-color="#7a7a7a" stop-opacity="1"/></linearGradient><linearGradient id="linearGradient3940" x1="26.282" x2="26.282" y1="2.732" y2="101.185" gradientUnits="userSpaceOnUse" xlink:href="#linearGradient3861"/><linearGradient id="linearGradient3968" x1="26.282" x2="26.282" y1="2.732" y2="101.185" gradientUnits="userSpaceOnUse" xlink:href="#linearGradient3861"/><linearGradient id="linearGradient3971" x1="26.282" x2="26.282" y1="2.732" y2="101.185" gradientUnits="userSpaceOnUse" xlink:href="#linearGradient3861"/><linearGradient id="linearGradient3978" x1="26.282" x2="26.282" y1="2.732" y2="101.185" gradientTransform="translate(-0.5,0)" gradientUnits="userSpaceOnUse" xlink:href="#linearGradient3861"/><linearGradient id="linearGradient4002" x1="26.282" x2="26.282" y1="2.732" y2="101.185" gradientTransform="translate(-0.5,0)" gradientUnits="userSpaceOnUse" xlink:href="#linearGradient3861"/><filter id="filter4058" width="4.412" height="1.07" x="-1.706" y="-.035"><feGaussianBlur id="feGaussianBlur4060" stdDeviation="1.422"/></filter></defs><g id="layer3" display="none"><rect id="rect3787" width="1390.5" height="1131.372" x="-677.25" y="-567.892" fill="#333" fill-opacity="1"/></g><g id="layer2" display="none"><path id="path3028" fill="#000" fill-opacity="1" fill-rule="nonzero" stroke="none" d="m 17,100.07778 2,0 0,-98.0777799 -2,0 z" display="inline" filter="url(#filter4058)" transform="matrix(1.504046,0,0,1,-9.0728286,0)"/><path id="rect4365" fill="#333" fill-opacity="1" d="m -43.125,-44.78125 0,194.4375 120.1875,0 0,-194.4375 z M 6,2 c 8,0 16,0 24,0 l 0,1 -3,24 0,1 -1,23 0,1 -1,25 0,1 -2,22 0,1 -10,0 0,-1 L 11,78 11,77 10,52 10,51 9,28 9,27 6,3 z"/></g><g id="layer1" display="inline"><path id="path3028-6" fill="#000" fill-opacity="1" fill-rule="nonzero" stroke="none" d="m 6,2 0,1 8.5,0 C 15.880712,3 17,4.11929 17,5.5 l 0,2.125 0,16.875 c 0,1.380712 -1.119288,2.5 -2.5,2.5 l -5.5,0 0,1 5.5,0 c 1.380712,0 2.5,1.119288 2.5,2.5 l 0,18 c 0,1.380712 -1.119288,2.5 -2.5,2.5 l -4.5,0 0,1 4.5,0 c 1.380712,0 2.5,1.119288 2.5,2.5 l 0,20 c 0,1.380712 -1.119288,2.5 -2.5,2.5 l -3.5,0 0,1 3.5,0 c 1.380712,0 2.5,1.119288 2.5,2.5 l 0,17.125 C 16.934027,98.946849 15.838229,100 14.5,100 l -1.5,0 0,1 10,0 0,-1 -1.5,0 c -1.338229,0 -2.434027,-1.053151 -2.5,-2.375 l 0,-0.125 0,-17 C 19,79.119288 20.119288,78 21.5,78 l 3.5,0 0,-1 -3.5,0 C 20.119288,77 19,75.880712 19,74.5 l 0,-20 C 19,53.119288 20.119288,52 21.5,52 l 4.5,0 0,-1 -4.5,0 C 20.119288,51 19,49.880712 19,48.5 l 0,-18 C 19,29.119288 20.119288,28 21.5,28 l 5.5,0 0,-1 -5.5,0 C 20.119288,27 19,25.880712 19,24.5 L 19,7.625 19,5.5 C 19,4.11929 20.119288,3 21.5,3 L 30,3 30,2 19,2 17,2 6,2 z" display="inline"/></g></svg>