<svg xmlns="http://www.w3.org/2000/svg" xmlns:svg="http://www.w3.org/2000/svg" xmlns:xlink="http://www.w3.org/1999/xlink" id="svg3242" width="48" height="28" version="1.1"><metadata id="metadata3248"/><defs id="defs3246"><linearGradient id="linearGradient5279" x1="98" x2="103" y1="-18" y2="-18" gradientTransform="matrix(1,0,0,0.72222222,-98,103)" gradientUnits="userSpaceOnUse" xlink:href="#linearGradient3805"/><linearGradient id="linearGradient3805"><stop id="stop3807" offset="0" stop-color="#002464" stop-opacity="1"/><stop id="stop3809" offset=".18" stop-color="#0872e9" stop-opacity="1"/><stop id="stop3811" offset=".818" stop-color="#0872e9" stop-opacity="1"/><stop id="stop3813" offset="1" stop-color="#002f64" stop-opacity="1"/></linearGradient><linearGradient id="linearGradient3031" x1="98" x2="103" y1="-18" y2="-18" gradientTransform="matrix(1,0,0,0.72222222,-96.5,23.721171)" gradientUnits="userSpaceOnUse" xlink:href="#linearGradient3805"/></defs><g id="layer4" display="inline" transform="translate(0,2)"><rect id="rect2989-0" width="2" height="23" x="-45" y="0" fill="#828282" fill-opacity="1" fill-rule="nonzero" stroke="none" display="inline" transform="scale(-1,1)"/><rect id="rect2989-0-3-7-6" width="2" height="20.892" x="-41" y="2.108" fill="#828282" fill-opacity="1" fill-rule="nonzero" stroke="none" display="inline" transform="scale(-1,1)"/><rect id="rect2989-0-2" width="2" height="18.783" x="-37" y="4.217" fill="#828282" fill-opacity="1" fill-rule="nonzero" stroke="none" display="inline" transform="scale(-1,1)"/><rect id="rect2989-0-3-9" width="2" height="16.675" x="-33" y="6.325" fill="#828282" fill-opacity="1" fill-rule="nonzero" stroke="none" display="inline" transform="scale(-1,1)"/><rect id="rect2989-0-6-1" width="2" height="14.567" x="-29" y="8.433" fill="#828282" fill-opacity="1" fill-rule="nonzero" stroke="none" display="inline" transform="scale(-1,1)"/><rect id="rect2989-0-3-7-2" width="2" height="12.458" x="-25" y="10.542" fill="#828282" fill-opacity="1" fill-rule="nonzero" stroke="none" display="inline" transform="scale(-1,1)"/><rect id="rect2989-0-5-7" width="2" height="10.35" x="-21" y="12.65" fill="#828282" fill-opacity="1" fill-rule="nonzero" stroke="none" display="inline" transform="scale(-1,1)"/><rect id="rect2989-0-3-3-0" width="2" height="8.242" x="-17" y="14.758" fill="#828282" fill-opacity="1" fill-rule="nonzero" stroke="none" display="inline" transform="scale(-1,1)"/><rect id="rect2989-0-6-5-9" width="2" height="6.133" x="-13" y="16.867" fill="#828282" fill-opacity="1" fill-rule="nonzero" stroke="none" display="inline" transform="scale(-1,1)"/><rect id="rect2989-0-3-7-6-3" width="2" height="4.025" x="-9" y="18.975" fill="#828282" fill-opacity="1" fill-rule="nonzero" stroke="none" display="inline" transform="scale(-1,1)"/><rect id="rect2989-0-3-7-6-3-6" width="2" height="1.917" x="-5" y="21.083" fill="#828282" fill-opacity="1" fill-rule="nonzero" stroke="none" display="inline" transform="scale(-1,1)"/></g></svg>