<svg xmlns="http://www.w3.org/2000/svg" xmlns:svg="http://www.w3.org/2000/svg" xmlns:xlink="http://www.w3.org/1999/xlink" id="svg2" width="40" height="34" version="1.1"><defs id="defs4"><linearGradient id="linearGradient4937"><stop id="stop4939" offset="0" stop-color="#e90808" stop-opacity="1"/><stop id="stop4941" offset="1" stop-color="#b60000" stop-opacity="1"/></linearGradient><linearGradient id="linearGradient3939"><stop id="stop3941" offset="0" stop-color="#eece33" stop-opacity=".951"/><stop id="stop5813" offset=".611" stop-color="#ff734e" stop-opacity=".819"/><stop id="stop3943" offset="1" stop-color="#ff2d2d" stop-opacity="0"/></linearGradient><linearGradient id="linearGradient5461"><stop id="stop5463" offset="0" stop-color="#b9dcff" stop-opacity="1"/><stop id="stop5465" offset="1" stop-color="#0d0d0d" stop-opacity="1"/></linearGradient><linearGradient id="linearGradient5441"><stop id="stop5443" offset="0" stop-color="#060606" stop-opacity="1"/><stop id="stop5445" offset="1" stop-color="#343434" stop-opacity="1"/></linearGradient><linearGradient id="linearGradient5483-8" x1="345.558" x2="477.525" y1="460.784" y2="506.369" gradientUnits="userSpaceOnUse" xlink:href="#linearGradient5441-4"/><linearGradient id="linearGradient5441-4"><stop id="stop5443-2" offset="0" stop-color="#060606" stop-opacity="1"/><stop id="stop5445-4" offset="1" stop-color="#2a2a2a" stop-opacity="1"/></linearGradient><linearGradient id="linearGradient5441-7"><stop id="stop5443-4" offset="0" stop-color="#060606" stop-opacity="1"/><stop id="stop5445-7" offset="1" stop-color="#2a2a2a" stop-opacity="1"/></linearGradient><linearGradient id="linearGradient5573-4" x1="345.558" x2="477.525" y1="460.784" y2="506.369" gradientTransform="matrix(-0.31622183,-0.94868524,0.94868524,-0.31622183,39.645062,974.00808)" gradientUnits="userSpaceOnUse" xlink:href="#linearGradient5441-4-6"/><linearGradient id="linearGradient5441-4-6"><stop id="stop5443-2-5" offset="0" stop-color="#060606" stop-opacity="1"/><stop id="stop5445-4-9" offset="1" stop-color="#2a2a2a" stop-opacity="1"/></linearGradient><radialGradient id="radialGradient3945" cx="366.938" cy="355.357" r="21.466" fx="366.938" fy="355.357" gradientTransform="matrix(1,0,0,0.98823527,223.83677,381.60387)" gradientUnits="userSpaceOnUse" xlink:href="#linearGradient3939"/><linearGradient id="linearGradient5024" x1="256.74" x2="484.712" y1="472.03" y2="472.03" gradientTransform="translate(54.522364,18.173742)" gradientUnits="userSpaceOnUse" xlink:href="#linearGradient5441"/><linearGradient id="linearGradient5032" x1="366.716" x2="368.965" y1="515.518" y2="333.185" gradientTransform="translate(0,-57.471498)" gradientUnits="userSpaceOnUse" xlink:href="#linearGradient5441-4"/><linearGradient id="linearGradient5265" x1="366.716" x2="368.965" y1="515.518" y2="333.185" gradientTransform="translate(0.822937,-35.303175)" gradientUnits="userSpaceOnUse" xlink:href="#linearGradient5441-4"/><linearGradient id="linearGradient5267" x1="256.74" x2="484.712" y1="472.03" y2="472.03" gradientTransform="translate(33.231373,11.944343)" gradientUnits="userSpaceOnUse" xlink:href="#linearGradient5441"/><radialGradient id="radialGradient5791" cx="366.938" cy="355.357" r="21.466" fx="366.938" fy="355.357" gradientTransform="matrix(1,0,0,0.98823527,-5.7381477e-7,4.1806787)" gradientUnits="userSpaceOnUse" xlink:href="#linearGradient3939"/><linearGradient id="linearGradient5793" x1="366.716" x2="368.965" y1="515.518" y2="333.185" gradientTransform="translate(0.822937,-35.303175)" gradientUnits="userSpaceOnUse" xlink:href="#linearGradient5441-4"/><linearGradient id="linearGradient5795" x1="256.74" x2="484.712" y1="472.03" y2="472.03" gradientTransform="translate(33.231373,11.944343)" gradientUnits="userSpaceOnUse" xlink:href="#linearGradient5441"/><linearGradient id="linearGradient5803" x1="366.716" x2="368.965" y1="515.518" y2="333.185" gradientTransform="translate(0,-37.471498)" gradientUnits="userSpaceOnUse" xlink:href="#linearGradient5441-4"/><radialGradient id="radialGradient5825" cx="366.938" cy="355.357" r="21.466" fx="366.938" fy="355.357" gradientTransform="matrix(1,0,0,0.98823527,-5.7381459e-7,4.1806787)" gradientUnits="userSpaceOnUse" xlink:href="#linearGradient3939"/><linearGradient id="linearGradient5845" x1="366.716" x2="368.965" y1="515.518" y2="333.185" gradientTransform="translate(0,-37.471498)" gradientUnits="userSpaceOnUse" xlink:href="#linearGradient5441-4"/><linearGradient id="linearGradient5847" x1="256.74" x2="484.712" y1="472.03" y2="472.03" gradientTransform="translate(33.231373,11.944343)" gradientUnits="userSpaceOnUse" xlink:href="#linearGradient5441"/><linearGradient id="linearGradient3354" x1="366.716" x2="368.965" y1="515.518" y2="333.185" gradientTransform="translate(0,-37.471498)" gradientUnits="userSpaceOnUse" xlink:href="#linearGradient5441-4"/><linearGradient id="linearGradient3356" x1="256.74" x2="484.712" y1="472.03" y2="472.03" gradientTransform="translate(33.231373,11.944343)" gradientUnits="userSpaceOnUse" xlink:href="#linearGradient5441"/><radialGradient id="radialGradient3358" cx="366.938" cy="355.357" r="21.466" fx="366.938" fy="355.357" gradientTransform="matrix(1,0,0,0.98823527,-5.7381495e-7,4.1806787)" gradientUnits="userSpaceOnUse" xlink:href="#linearGradient3939"/><linearGradient id="linearGradient3837" x1="366.716" x2="368.965" y1="515.518" y2="333.185" gradientTransform="translate(0,-37.471498)" gradientUnits="userSpaceOnUse" xlink:href="#linearGradient5441-4"/><linearGradient id="linearGradient3839" x1="256.74" x2="484.712" y1="472.03" y2="472.03" gradientTransform="translate(33.231373,11.944343)" gradientUnits="userSpaceOnUse" xlink:href="#linearGradient5441"/><linearGradient id="linearGradient4945" x1="202.395" x2="202.488" y1="623.478" y2="634.365" gradientTransform="matrix(1.257316,0,0,1,-52.110466,0)" gradientUnits="userSpaceOnUse" xlink:href="#linearGradient4937"/><radialGradient id="radialGradient4947" cx="366.938" cy="355.357" r="21.466" fx="366.938" fy="355.357" gradientTransform="matrix(1,0,0,0.98823527,-5.7381549e-7,4.1806787)" gradientUnits="userSpaceOnUse" xlink:href="#linearGradient3939"/></defs><metadata id="metadata7"/><g id="layer4" display="inline" transform="translate(-182.48349,-619.88674)"><g id="g5840" display="inline" transform="matrix(0.10676061,0,0,0.10675946,163.27006,587.30226)"><g id="g5835" transform="translate(7,7)"><path id="path4669-1-shadow" fill="#000" fill-opacity="0" fill-rule="nonzero" stroke="#000" stroke-dasharray="none" stroke-linecap="round" stroke-miterlimit="4" stroke-opacity="1" stroke-width="11.8" d="m 516.41339,506.23793 c 4.36416,-24.17368 2.9091,-49.74094 -5.40625,-74.6875 -15.35754,-46.0736 -50.70669,-79.86553 -93.1875,-94.9375 0,0 -20.697,-8.14015 -50.19834,-8.20231 -29.50134,-0.0622 -50.92666,8.20231 -50.92666,8.20231 -70.74581,25.01887 -111.59378,97.57954 -98.5625,169.625" display="inline"/></g></g><g id="g3912" display="inline" opacity=".94" transform="matrix(0.10676061,0,0,0.10675946,162.71346,586.67292)"><path id="path4669-2" fill="#000" fill-opacity="1" fill-rule="nonzero" stroke="#000" stroke-dasharray="none" stroke-miterlimit="4" stroke-opacity="1" stroke-width="11.8" d="m 478.8123,472.02954 c 0,59.69443 -48.39189,108.08632 -108.08632,108.08632 -59.69442,0 -108.08632,-48.39189 -108.08632,-108.08632 0,-59.69442 48.3919,-108.08632 108.08632,-108.08632 59.69443,0 108.08632,48.3919 108.08632,108.08632 z" display="inline" transform="matrix(-0.31622183,-0.94868528,0.94868528,-0.31622183,49.241524,1000.9691)"/></g></g><g id="layer2" display="inline" transform="translate(-182.48349,-619.88674)"><g id="g5840" display="inline" transform="matrix(0.10676061,0,0,0.10675946,163.27006,587.30226)"><g id="g5835"><path id="path4669-1" fill="none" stroke="#585858" stroke-dasharray="none" stroke-linecap="round" stroke-miterlimit="4" stroke-opacity="1" stroke-width="11.8" d="m 516.41339,506.23793 c 4.36416,-24.17368 2.9091,-49.74094 -5.40625,-74.6875 -15.35754,-46.0736 -50.70669,-79.86553 -93.1875,-94.9375 0,0 -20.697,-8.14015 -50.19834,-8.20231 -29.50134,-0.0622 -50.92666,8.20231 -50.92666,8.20231 -70.74581,25.01887 -111.59378,97.57954 -98.5625,169.625" display="inline"/></g><path id="path4669" fill="url(#linearGradient3839)" fill-opacity="1" fill-rule="nonzero" stroke="#585858" stroke-dasharray="none" stroke-miterlimit="4" stroke-opacity="1" stroke-width="11.8" d="m 478.8123,472.02954 c 0,59.69443 -48.39189,108.08632 -108.08632,108.08632 -59.69442,0 -108.08632,-48.39189 -108.08632,-108.08632 0,-59.69442 48.3919,-108.08632 108.08632,-108.08632 59.69443,0 108.08632,48.3919 108.08632,108.08632 z" transform="matrix(-0.31622183,-0.94868528,0.94868528,-0.31622183,36.694118,980.42607)"/></g><rect id="rect5530-9" width="5" height="3" x="184.984" y="650.387" fill="none" stroke="#252525" stroke-dasharray="none" stroke-dashoffset="319.5" stroke-linecap="round" stroke-linejoin="miter" stroke-miterlimit="4" stroke-opacity="1" stroke-width="1" display="inline"/><rect id="rect5530" width="5" height="3" x="183.983" y="649.387" fill="none" stroke="#767676" stroke-dasharray="none" stroke-dashoffset="319.5" stroke-linecap="round" stroke-linejoin="miter" stroke-miterlimit="4" stroke-opacity="1" stroke-width="1"/><rect id="rect5530-9-3" width="5" height="3" x="215.983" y="650.387" fill="#370000" fill-opacity="0" stroke="#252525" stroke-dasharray="none" stroke-dashoffset="319.5" stroke-linecap="round" stroke-linejoin="miter" stroke-miterlimit="4" stroke-opacity="1" stroke-width="1" display="inline"/><rect id="rect5530-5" width="5" height="3" x="214.983" y="649.387" fill="#767676" fill-opacity="1" stroke="#767676" stroke-dasharray="none" stroke-dashoffset="319.5" stroke-linecap="round" stroke-linejoin="miter" stroke-miterlimit="4" stroke-opacity="1" stroke-width="1"/></g></svg>