<svg xmlns="http://www.w3.org/2000/svg" xmlns:svg="http://www.w3.org/2000/svg" id="svg2" width="32" height="36" version="1.1"><metadata id="metadata7"/><g id="g3923" display="inline" transform="translate(0,-1016.3622)"><path id="rect3835" fill="#888" fill-opacity="1" fill-rule="nonzero" stroke="none" d="m 9.1803415,1019.2908 c -0.4388121,0 -0.7920793,0.3532 -0.7920793,0.792 l 0,7.5001 -3.3168336,0 0,10.4702 2.376239,4.7526 0,6.4851 4.7524784,0 0,-6.4851 2.376239,-4.7526 0,-10.4702 -3.316833,0 0,-7.5001 c 0,-0.4388 -0.353269,-0.792 -0.792081,-0.792 l -1.2871295,0 z"/><g id="flowRoot3890" fill="#888" fill-opacity="1" stroke="none" display="inline" font-family="Ubuntu" font-size="14" font-stretch="normal" font-style="normal" font-variant="normal" font-weight="normal" letter-spacing="0" transform="translate(30.84525,1007.0622)" word-spacing="0" style="line-height:125%;-inkscape-font-specification:Ubuntu"><path id="path2989" fill="#888" fill-opacity="1" d="m -7.81725,40.444 0,-9.688 c -0.5226721,0.373346 -1.1200048,0.709345 -1.792,1.008 -0.672004,0.280011 -1.241336,0.504011 -1.708,0.672 l -1.12,-2.856 c 0.447998,-0.167986 0.933331,-0.382653 1.456,-0.644 0.522663,-0.261319 1.0453295,-0.550652 1.568,-0.868 0.5226618,-0.317318 1.0173279,-0.653317 1.484,-1.008 0.4666603,-0.35465 0.8679933,-0.71865 1.204,-1.092 l 2.352,0 0,14.476 3.444,0 0,2.856 -10.528,0 0,-2.856 3.64,0" font-family="Ubuntu Mono" font-size="28" font-weight="bold" style="-inkscape-font-specification:Ubuntu Mono Bold"/></g></g></svg>