<svg xmlns="http://www.w3.org/2000/svg" xmlns:svg="http://www.w3.org/2000/svg" id="svg3769" width="24" height="49" version="1.1"><metadata id="metadata3774"/><g id="layer1" transform="translate(0,-1003.3622)"><g id="flowRoot2984" fill="#aaa" fill-opacity="1" stroke="none" font-family="Ubuntu" font-size="48" font-stretch="normal" font-style="normal" font-variant="normal" font-weight="normal" letter-spacing="0" transform="translate(-5.7226562,993.19599)" word-spacing="0" style="line-height:125%;-inkscape-font-specification:Ubuntu"><path id="path3761" fill="#aaa" fill-opacity="1" d="m 18.242187,43.429878 -1.039062,0 -2.40625,-22.148437 c -0.109381,-0.966113 -0.164069,-1.686165 -0.164062,-2.160156 -7e-6,-1.148403 0.300774,-2.068975 0.902343,-2.761719 0.619784,-0.692671 1.358065,-1.039025 2.214844,-1.039063 0.856761,3.8e-5 1.576812,0.346392 2.160156,1.039063 0.601551,0.692744 0.902332,1.722691 0.902344,3.089844 -1.2e-5,0.437533 -0.03647,1.048209 -0.109375,1.832031 l -2.460938,22.148437 m -0.546875,4.539063 c 0.838532,5e-6 1.549469,0.300786 2.132813,0.902344 0.60155,0.583337 0.902331,1.285159 0.902344,2.105468 -1.3e-5,0.838543 -0.300794,1.558595 -0.902344,2.160157 -0.583344,0.583332 -1.294281,0.874999 -2.132813,0.875 -0.83855,-10e-7 -1.558601,-0.291668 -2.160156,-0.875 -0.58334,-0.601562 -0.875006,-1.321614 -0.875,-2.160157 -6e-6,-0.820309 0.29166,-1.522131 0.875,-2.105468 0.601555,-0.601558 1.321606,-0.902339 2.160156,-0.902344" font-family="Times New Roman" font-size="56" text-anchor="middle" style="text-align:center;-inkscape-font-specification:Times New Roman"/></g></g></svg>