<svg xmlns="http://www.w3.org/2000/svg" xmlns:svg="http://www.w3.org/2000/svg" id="svg2" width="20" height="20" version="1.1"><metadata id="metadata7"/><path id="path2983" fill="#888" fill-opacity="1" fill-rule="nonzero" stroke="none" d="M 6.90625 3.75 C 4.5964224 4.8913778 3 7.247975 3 10 C 3 13.865994 6.1340068 17 10 17 C 13.865994 17 17 13.865994 17 10 C 17 7.247975 15.403578 4.8913778 13.09375 3.75 L 13.09375 5.53125 C 14.514996 6.5117142 15.4375 8.1419847 15.4375 10 C 15.4375 13.006884 13.006884 15.4375 10 15.4375 C 6.9931164 15.4375 4.5625 13.006884 4.5625 10 C 4.5625 8.1419847 5.4850044 6.5117142 6.90625 5.53125 L 6.90625 3.75 z"/><rect id="rect3004" width="1.556" height="6" x="9.222" y="2" fill="#888" fill-opacity="1" fill-rule="nonzero" stroke="none"/></svg>