<svg xmlns="http://www.w3.org/2000/svg" xmlns:svg="http://www.w3.org/2000/svg" id="svg2" width="16" height="16" version="1.1"><metadata id="metadata7"/><g id="layer1" display="inline" transform="translate(0,-1036.3622)"><g id="g3989" fill="#dc0000" fill-opacity="1" transform="matrix(-0.80596688,0,0,0.80596688,15.253702,203.44681)"><path id="path3832-5" fill="#dc0000" fill-opacity="1" fill-rule="nonzero" stroke="none" d="M 16.375,6.59375 15.28125,7.375 14.75,7.75 C 14.924912,8.1326362 15,8.5522162 15,9 c 0,1.6569 -1.343146,3 -3,3 l -5.4375,0 0,-2.625 L 5,10.5 4,11.1875 3.25,11.75 1.5,13 3.25,14.25 4,14.8125 5,15.5 6.5625,16.625 6.5625,14 12,14 c 1.326074,0 2.593574,-0.53105 3.53125,-1.46875 1.610902,-1.610895 1.890837,-4.0395905 0.84375,-5.9375 z" transform="translate(0,1034.3622)"/><path id="path3832-5-7" fill="#dc0000" fill-opacity="1" fill-rule="nonzero" stroke="none" d="m 1.625,1045.7684 1.09375,-0.7813 0.53125,-0.375 c -0.174912,-0.3826 -0.25,-0.8022 -0.25,-1.25 0,-1.6569 1.343146,-3 3,-3 l 5.4375,0 0,2.625 1.5625,-1.125 1,-0.6875 0.75,-0.5625 1.75,-1.25 -1.75,-1.25 -0.75,-0.5625 -1,-0.6875 -1.5625,-1.125 0,2.625 -5.4375,0 c -1.326074,0 -2.593574,0.5311 -3.53125,1.4688 -1.61090199,1.6109 -1.89083699,4.0396 -0.84375,5.9375 z"/></g></g></svg>