<svg xmlns="http://www.w3.org/2000/svg" xmlns:svg="http://www.w3.org/2000/svg" id="svg2" width="32" height="36" version="1.1"><metadata id="metadata7"/><g id="g3923" display="inline" transform="translate(0,-1016.3622)"><g id="g3785" fill="#000" fill-opacity="1" transform="matrix(0.580304,0.26552477,-0.26552477,0.580304,273.32209,435.11622)"><path id="path2994" fill="#000" fill-opacity="1" fill-rule="nonzero" stroke="none" d="m 18,1000.1524 c -4.336479,0 -7.84375,3.5072 -7.84375,7.8437 0,1.8238 0.613137,3.5109 1.65625,4.8438 l 12.375,0 c 1.043113,-1.3329 1.65625,-3.02 1.65625,-4.8438 0,-4.3365 -3.507271,-7.8437 -7.84375,-7.8437 z"/><path id="path3024" fill="#000" fill-opacity="1" fill-rule="nonzero" stroke="none" d="m 12.53125,1013.9247 2.21875,33.7813 6.5,0 2.21875,-33.7813 -10.9375,0 z M 18,1017.5497 c 0.829921,0 1.5,0.669 1.5,1.5 l 0,5.0313 c 0,0.831 -0.670079,1.5 -1.5,1.5 -0.829921,0 -1.5,-0.669 -1.5,-1.5 l 0,-5.0313 c 0,-0.831 0.670079,-1.5 1.5,-1.5 z" display="inline"/></g><g id="flowRoot3890" fill="#000" fill-opacity="1" stroke="none" font-family="Ubuntu" font-size="14" font-stretch="normal" font-style="normal" font-variant="normal" font-weight="normal" letter-spacing="0" transform="translate(30.84525,1007.0622)" word-spacing="0" style="line-height:125%;-inkscape-font-specification:Ubuntu"><path id="path3899" fill="#000" fill-opacity="1" d="m -1.62925,30.532 c -1.22e-5,0.597346 -0.112012,1.176012 -0.336,1.736 -0.2240116,0.541344 -0.522678,1.073343 -0.896,1.596 -0.3733439,0.522676 -0.7933435,1.026675 -1.26,1.512 -0.4666759,0.485341 -0.9426754,0.952007 -1.428,1.4 -0.2426747,0.224006 -0.5226744,0.494673 -0.84,0.812 -0.3173404,0.298672 -0.6160068,0.616005 -0.896,0.952 -0.2800062,0.317338 -0.5226726,0.644004 -0.728,0.98 -0.1866722,0.336003 -0.2800055,0.644003 -0.28,0.924 l 7.448,0 0,2.856 -11.312,0 c -0.056,-0.186666 -0.084,-0.42 -0.084,-0.7 0.01867,-0.279999 0.028,-0.475999 0.028,-0.588 -2e-6,-0.933331 0.167998,-1.791997 0.504,-2.576 0.354664,-0.783995 0.79333,-1.502661 1.316,-2.156 0.5413294,-0.671993 1.1106622,-1.287993 1.708,-1.848 0.6159943,-0.578658 1.1853271,-1.129324 1.708,-1.652 0.541326,-0.522657 0.9799922,-1.026656 1.316,-1.512 0.3546582,-0.485322 0.5319913,-0.979988 0.532,-1.484 -8.7e-6,-0.70932 -0.2146751,-1.250653 -0.644,-1.624 -0.4293409,-0.391985 -0.9706737,-0.587985 -1.624,-0.588 -0.5413392,1.5e-5 -1.1106719,0.130681 -1.708,0.392 -0.5973374,0.261347 -1.185337,0.700014 -1.764,1.316 l -1.708,-2.408 c 0.746665,-0.783984 1.605331,-1.36265 2.576,-1.736 0.9893286,-0.373316 1.9693276,-0.559982 2.94,-0.56 0.7093259,1.8e-5 1.3906586,0.102684 2.044,0.308 0.6533239,0.205351 1.23199,0.51335 1.736,0.924 0.503989,0.410683 0.9053219,0.933349 1.204,1.568 0.2986547,0.616014 0.4479878,1.33468 0.448,2.156" font-family="Ubuntu Mono" font-size="28" font-weight="bold" style="-inkscape-font-specification:Ubuntu Mono Bold"/></g></g></svg>