<svg xmlns="http://www.w3.org/2000/svg" xmlns:svg="http://www.w3.org/2000/svg" id="svg2" width="20" height="30" version="1.1"><metadata id="metadata7"/><g id="layer1" transform="translate(0,-1022.3622)"><path id="path2990" fill="#ffc105" fill-opacity="1" fill-rule="nonzero" stroke="none" d="m 11.0478,7.3453302 c 0,0.716592 -0.58848,1.2975046 -1.3144054,1.2975046 -0.7259258,0 -1.3144049,-0.5809126 -1.3144049,-1.2975046 0,-0.7165919 0.5884791,-1.2975045 1.3144049,-1.2975045 0.7259254,0 1.3144054,0.5809126 1.3144054,1.2975045 z" transform="matrix(1.5216011,0,0,1.5414204,-4.810344,1019.04)"/><path id="path3809-3-3" fill="#d8d8d8" fill-opacity="1" fill-rule="nonzero" stroke="none" d="m 3.7828441,1025.3277 c -2.7805055,3.4336 -2.2510803,8.4712 1.1826037,11.2517 l 0.7745452,-0.9565 c -2.9054128,-2.3527 -3.3534029,-6.6153 -1.0006614,-9.5206 l -0.9564875,-0.7746 z m 10.4771629,-0.2261 c 2.905413,2.3527 3.353403,6.6153 1.000661,9.5206 l 0.956488,0.7746 c 2.780506,-3.4336 2.25108,-8.4712 -1.182604,-11.2517 l -0.774545,0.9565 z"/><path id="path3809-3-6-5" fill="#e6d290" fill-opacity="1" fill-rule="nonzero" stroke="none" d="m 6.1740568,1027.264 c -1.7110785,2.1131 -1.3852093,5.2132 0.7277585,6.9242 l 0.774545,-0.9565 c -1.5848031,-1.2834 -1.8291201,-3.6083 -0.5458162,-5.1931 l -0.9564873,-0.7746 z m 6.1495832,0.2288 c 1.584707,1.2833 1.829121,3.6083 0.545817,5.1931 l 0.956486,0.7746 c 1.711079,-2.1131 1.38521,-5.2132 -0.727758,-6.9242 l -0.774545,0.9565 z"/><path id="path3039" fill="#ffc105" fill-opacity="1" fill-rule="nonzero" stroke="none" d="M -7.6250002,15.450648 -15.86363,1.1809246 l 16.47725833,-4e-7 z" transform="matrix(-0.21846204,0,0,-1.5417196,8.3342268,1052.1828)"/><path id="path3809-3-3-6" fill="#d8d8d8" fill-opacity="1" fill-rule="nonzero" stroke="none" d="m 16.217155,1025.3277 c 2.780506,3.4336 2.25108,8.4712 -1.182604,11.2517 l -0.774545,-0.9565 c 2.905413,-2.3527 3.353403,-6.6153 1.000662,-9.5206 l 0.956487,-0.7746 z m -10.4771619,-0.2261 c -2.905413,2.3527 -3.353403,6.6153 -1.000661,9.5206 l -0.956488,0.7746 c -2.780506,-3.4336 -2.25108,-8.4712 1.182604,-11.2517 l 0.774545,0.9565 z"/><path id="path3809-3-6-5-2" fill="#e6d290" fill-opacity="1" fill-rule="nonzero" stroke="none" d="m 13.825942,1027.264 c 1.711079,2.1131 1.38521,5.2132 -0.727758,6.9242 l -0.774545,-0.9565 c 1.584803,-1.2834 1.82912,-3.6083 0.545816,-5.1931 l 0.956487,-0.7746 z m -6.1495819,0.2288 c -1.584707,1.2833 -1.829121,3.6083 -0.545817,5.1931 l -0.956486,0.7746 c -1.711079,-2.1131 -1.38521,-5.2132 0.727758,-6.9242 l 0.774545,0.9565 z"/></g></svg>