<svg xmlns="http://www.w3.org/2000/svg" xmlns:svg="http://www.w3.org/2000/svg" id="svg2" width="48" height="48" version="1.1" viewBox="0 0 48 48"><metadata id="metadata12"/><g id="layer2"><g id="layer1-3" fill-rule="evenodd" opacity="1" transform="matrix(0.05269352,0,0,0.05273213,7.0048322,-14.498287)"><path id="path4417" fill="#888" fill-opacity="1" d="m -19.069369,388.72479 0,682.69581 683.195959,0 0,-682.69581 -683.195959,0 z m 342.159809,151.5854 c 104.75478,0.37759 189.71752,85.64584 189.33968,190.3239 -0.37788,104.67806 -85.72119,189.5786 -190.46334,189.20104 C 217.21203,919.45754 132.24926,834.17672 132.62711,729.51123 133.00496,624.8332 218.33569,539.93262 323.09044,540.31019 z" color="#000" enable-background="accumulate"/><path id="label-cutout" fill="#888" fill-opacity="1" d="m 322.67918,687.43054 c 23.58028,0.0903 42.61315,19.22959 42.5228,42.7926 -0.0601,23.563 -19.24368,42.58194 -42.79383,42.49166 -23.58027,-0.0601 -42.64325,-19.22959 -42.55291,-42.76251 0.0904,-23.563 19.24369,-42.61203 42.82394,-42.52175 z" color="#000" enable-background="accumulate"/></g></g></svg>