<svg xmlns="http://www.w3.org/2000/svg" xmlns:svg="http://www.w3.org/2000/svg" id="svg3769" width="18" height="18" version="1.1"><metadata id="metadata3774"/><g id="layer1" transform="translate(0,-1034.3622)"><path id="path3018" fill="#888" fill-opacity="1" fill-rule="nonzero" stroke="none" d="m 9.0003033,1048.2803 4.5715187,-7.9181 -9.1430385,0 z"/><path id="path3056" fill="#888" fill-opacity="1" fill-rule="nonzero" stroke="none" stroke-width="2" d="M 9 0 C 4.0294373 0 0 4.0294 0 9 C 0 13.9706 4.0294373 18 9 18 C 11.55716 18 13.861527 16.931175 15.5 15.21875 L 15.5 13.65625 C 14.04822 15.679076 11.679878 17 9 17 C 4.581722 17 1 13.4183 1 9 C 1 4.5817 4.581722 1 9 1 C 11.679878 1 14.04822 2.3209236 15.5 4.34375 L 15.5 2.78125 C 13.861527 1.0688246 11.55716 0 9 0 z" color="#000" display="inline" enable-background="accumulate" overflow="visible" transform="translate(0,1034.3622)" visibility="visible" style="marker:none"/></g></svg>