<svg xmlns="http://www.w3.org/2000/svg" xmlns:svg="http://www.w3.org/2000/svg" id="svg2" width="20" height="24" version="1.1"><metadata id="metadata7"/><g id="layer1" transform="translate(0,-1028.3622)"><path id="path3809-3" fill="#d2d2d2" fill-opacity="1" fill-rule="nonzero" stroke="none" d="m 3.7828439,1031.3276 c -2.7805057,3.4336 -2.25108,8.4712 1.1826037,11.2517 l 0.7745449,-0.9565 c -2.905423,-2.3528 -3.3534024,-6.6153 -1.0006614,-9.5206 l -0.9564872,-0.7746 z m 10.4771631,-0.2261 c 2.905413,2.3527 3.353392,6.6152 1.000661,9.5206 l 0.956488,0.7746 c 2.780506,-3.4336 2.25108,-8.4712 -1.182604,-11.2517 l -0.774545,0.9565 z"/><path id="path3809-3-6" fill="#c6c6c6" fill-opacity="1" fill-rule="nonzero" stroke="none" d="m 6.1740775,1033.2641 c -1.7110787,2.1131 -1.3852193,5.2131 0.7277376,6.924 l 0.7745555,-0.9564 c -1.5848038,-1.2834 -1.82912,-3.6083 -0.5458163,-5.1931 l -0.9564768,-0.7745 z m 6.1495735,0.2287 c 1.584695,1.2832 1.829119,3.6083 0.545816,5.1931 l 0.956476,0.7745 c 1.711079,-2.1131 1.38522,-5.2131 -0.727737,-6.924 l -0.774555,0.9564 z"/><path id="path2990" fill="#d2d2d2" fill-opacity="1" fill-rule="nonzero" stroke="none" d="m 11.0478,7.3453302 c 0,0.716592 -0.58848,1.2975046 -1.3144054,1.2975046 -0.7259258,0 -1.3144049,-0.5809126 -1.3144049,-1.2975046 0,-0.7165919 0.5884791,-1.2975045 1.3144049,-1.2975045 0.7259254,0 1.3144054,0.5809126 1.3144054,1.2975045 z" transform="matrix(1.5216011,0,0,1.5414204,-4.810344,1025.04)"/><path id="path3039" fill="#d2d2d2" fill-opacity="1" fill-rule="nonzero" stroke="none" d="M -7.6250002,15.450648 -15.86363,1.1809246 l 16.47725833,-4e-7 z" transform="matrix(-0.21846204,0,0,-1.5417196,8.3342268,1052.1828)"/><path id="path3809-3-3" fill="#d2d2d2" fill-opacity="1" fill-rule="nonzero" stroke="none" d="m 16.217156,1031.3276 c 2.780506,3.4336 2.25108,8.4712 -1.182604,11.2517 l -0.774544,-0.9565 c 2.905422,-2.3528 3.353402,-6.6153 1.000661,-9.5206 l 0.956487,-0.7746 z m -10.4771629,-0.2261 c -2.905413,2.3527 -3.353392,6.6152 -1.000661,9.5206 l -0.956488,0.7746 c -2.780506,-3.4336 -2.25108,-8.4712 1.182604,-11.2517 l 0.774545,0.9565 z"/><path id="path3809-3-6-5" fill="#c6c6c6" fill-opacity="1" fill-rule="nonzero" stroke="none" d="m 13.825923,1033.2641 c 1.711078,2.1131 1.385219,5.2131 -0.727738,6.924 l -0.774556,-0.9564 c 1.584804,-1.2834 1.82912,-3.6083 0.545817,-5.1931 l 0.956477,-0.7745 z m -6.1495739,0.2287 c -1.584695,1.2832 -1.829119,3.6083 -0.545816,5.1931 l -0.956476,0.7745 c -1.711079,-2.1131 -1.38522,-5.2131 0.727737,-6.924 l 0.774555,0.9564 z"/></g></svg>