<svg xmlns="http://www.w3.org/2000/svg" xmlns:svg="http://www.w3.org/2000/svg" id="svg2" width="22" height="22" version="1.1"><metadata id="metadata7"/><g id="layer1" transform="translate(0,-1030.3622)"><g id="g3989" fill="#888" fill-opacity="1"><path id="path3832-5" fill="#d2d2d2" fill-opacity="1" fill-rule="nonzero" stroke="none" d="m 3.625,1038.9561 1.09375,0.7812 0.53125,0.375 c -0.174912,0.3826 -0.25,0.8022 -0.25,1.25 0,1.6569 1.343146,3 3,3 l 5.4375,0 0,-2.625 1.5625,1.125 1,0.6875 0.75,0.5625 1.75,1.25 -1.75,1.25 -0.75,0.5625 -1,0.6875 -1.5625,1.125 0,-2.625 -5.4375,0 c -1.326074,0 -2.593574,-0.531 -3.53125,-1.4687 -1.610902,-1.6109 -1.890837,-4.0396 -0.84375,-5.9375 z"/><path id="path3832-5-7" fill="#d2d2d2" fill-opacity="1" fill-rule="nonzero" stroke="none" d="m 18.375,1043.7685 -1.09375,-0.7813 -0.53125,-0.375 c 0.174912,-0.3826 0.25,-0.8023 0.25,-1.25 0,-1.6569 -1.343146,-3 -3,-3 l -5.4375,0 0,2.625 -1.5625,-1.125 -1,-0.6875 -0.75,-0.5625 -1.75,-1.25 1.75,-1.25 0.75,-0.5625 1,-0.6875 1.5625,-1.125 0,2.625 5.4375,0 c 1.326074,0 2.593574,0.531 3.53125,1.4688 1.610902,1.6109 1.890837,4.0396 0.84375,5.9375 z"/></g></g></svg>