<svg xmlns="http://www.w3.org/2000/svg" xmlns:svg="http://www.w3.org/2000/svg" id="svg2" width="22" height="32" version="1.1"><metadata id="metadata7"/><g id="g3923" display="inline" transform="translate(0,-1020.3622)"><g id="g3785" fill="#d2d2d2" fill-opacity="1" transform="matrix(0.51582577,0.23602201,-0.23602201,0.51582577,242.67325,503.6991)"><path id="path2994" fill="#d2d2d2" fill-opacity="1" fill-rule="nonzero" stroke="none" d="m 18,1000.1524 c -4.336479,0 -7.84375,3.5072 -7.84375,7.8437 0,1.8238 0.613137,3.5109 1.65625,4.8438 l 12.375,0 c 1.043113,-1.3329 1.65625,-3.02 1.65625,-4.8438 0,-4.3365 -3.507271,-7.8437 -7.84375,-7.8437 z"/><path id="path3024" fill="#d2d2d2" fill-opacity="1" fill-rule="nonzero" stroke="none" d="m 12.53125,1013.9247 2.21875,33.7813 6.5,0 2.21875,-33.7813 -10.9375,0 z M 18,1017.5497 c 0.829921,0 1.5,0.669 1.5,1.5 l 0,5.0313 c 0,0.831 -0.670079,1.5 -1.5,1.5 -0.829921,0 -1.5,-0.669 -1.5,-1.5 l 0,-5.0313 c 0,-0.831 0.670079,-1.5 1.5,-1.5 z" display="inline"/></g></g></svg>