<svg xmlns="http://www.w3.org/2000/svg" xmlns:svg="http://www.w3.org/2000/svg" id="svg2" width="11" height="22" version="1.1" viewBox="0 0 11 22"><metadata id="metadata12"/><g id="layer2" display="none" transform="translate(0,-26)"><g id="g3886" display="inline"><path id="path3888" fill="#666" fill-opacity="1" d="m 26,6 0,23.535 C 24.352,28.549 22.215,28.002 20,28 c -4.9706,0 -9,2.6863 -9,6 0,3.3137 4.0294,6 9,6 4.9706,0 9,-2.6863 9,-6 l 0,-22 9,2 0,-6 -9,-2 z" display="inline"/></g></g><path id="rect2987" fill="#888" fill-opacity="1" fill-rule="nonzero" stroke="none" d="m -15.5,6 0,4 -4,0 0,2 4,0 0,4 2,0 0,-4 4,0 0,-2 -4,0 0,-4 -2,0 z"/><path id="rect2987-7" fill="#888" fill-opacity="1" fill-rule="nonzero" stroke="none" d="m -8.4653586,-5.440233 -5.6568554,-5.656854 5.6568554,-5.656854 -1.414214,-1.414214 -5.6568544,5.656854 -1.414214,1.414214 1.414214,1.414214 5.6568544,5.656854 1.414214,-1.414214 z"/><path id="rect2987-7-3" fill="#888" fill-opacity="1" fill-rule="nonzero" stroke="none" d="M 8.8941125,15.525483 4.3686285,11 8.8941125,6.4745166 7.7627415,5.3431458 3.2372585,9.8686286 2.1058875,11 l 1.131371,1.131371 4.525483,4.525483 1.131371,-1.131371 z"/></svg>