<svg xmlns="http://www.w3.org/2000/svg" xmlns:svg="http://www.w3.org/2000/svg" id="svg2" width="22" height="22" version="1.0" viewBox="0 0 22 22" xml:space="preserve"><metadata id="metadata19"/><g id="layer1" display="none" opacity=".315" transform="translate(0,-16)"><g id="Layer_x0020_4" stroke="#000" stroke-width="1.517" transform="matrix(0.66070257,0,0,0.65803279,4.5351031,8.5499156)"><g id="g5" stroke-width="1.517"><path id="path7" fill="none" stroke="#fff" stroke-width="10.175" d="m 7.1,10.6 c -1.3,0 -2.3,1 -2.3,2.3 l 0.1,22.3 c 0,1.4 0.9,2.3 2.3,2.3 h 0.1 27.5 c 1.1,0 2.1,-0.6 2.9,-1.6 0.6,-0.9 2.2,-4.5 3.1,-6.8 1.6,-4.1 2.5,-6.7 2.5,-7.9 0,-0.3 0,-1.2 -0.7,-1.7 C 42,19 41.2,18.9 40.4,18.9 h -4 V 17.2 C 36.4,15.9 35.5,15 34.2,15 h -14 v -2.2 c 0,-1.2 -1,-2.2 -2.3,-2.2 H 7.1 z"/><path id="path9" stroke-width="1.517" d="m 7.1,10.6 c -1.3,0 -2.3,1 -2.3,2.3 l 0.1,22.3 c 0,1.4 0.9,2.3 2.3,2.3 h 0.1 27.5 c 1.1,0 2.1,-0.6 2.9,-1.6 0.6,-0.9 2.2,-4.5 3.1,-6.8 1.6,-4.1 2.5,-6.7 2.5,-7.9 0,-0.3 0,-1.2 -0.7,-1.7 C 42,19 41.2,18.9 40.4,18.9 h -4 V 17.2 C 36.4,15.9 35.5,15 34.2,15 h -14 v -2.2 c 0,-1.2 -1,-2.2 -2.3,-2.2 H 7.1 z"/><path id="path11" fill="#fff" stroke-width="1.517" d="M 8.9,35.3 H 34 c 0.6,0 1.2,-0.4 1.5,-0.9 0.7,-1 4.8,-10.6 4.8,-12.5 0,-0.4 0,-0.7 -1.3,-0.7 H 14.9 c -0.4,0 -0.8,0.1 -0.9,0.7 -0.1,1.5 -3.2,11.8 -4.3,13.1 -0.3,0.4 -0.9,0.4 -0.9,0.4 l 0.1,-0.1 z"/></g></g></g><g id="layer2" transform="translate(0,-16)"><path id="path3852" fill="#888" fill-opacity="1" fill-rule="nonzero" stroke="none" stroke-width="2" d="M 10.84375 2.03125 A 0.86449351 0.86449351 0 0 0 10.21875 2.46875 L 6.5 9 C 5.3567782 8.9981786 4.613191 9.0075707 2.71875 9 C 2.6961 8.9989 2.6789 8.9989 2.65625 9 C 2.6336 8.9989 2.6164 8.9989 2.59375 9 C 2.26125 9.06245 1.9940349 9.385623 2 9.71875 L 2 19.28125 C 2.0000376 19.65506 2.3389705 19.999963 2.71875 20 L 3.40625 20 L 16.59375 20 C 16.613856 19.999998 16.636382 20.001863 16.65625 20 A 0.72541726 0.71401504 0 0 0 16.8125 19.96875 C 16.879014 19.946499 16.942099 19.914971 17 19.875 A 0.72541726 0.71401504 0 0 0 17.09375 19.78125 A 0.72541726 0.71401504 0 0 0 17.15625 19.71875 A 0.72541726 0.71401504 0 0 0 17.25 19.59375 A 0.72541726 0.71401504 0 0 0 17.25 19.5625 L 20.65625 11.78125 A 0.72541726 0.71401504 0 0 0 19.96875 10.75 L 17.3125 10.75 L 17.3125 9.71875 C 17.312462 9.34494 16.973529 9.000037 16.59375 9 C 16.048435 9.0007331 15.966202 8.99918 15.5 9 L 11.71875 2.46875 A 0.86449351 0.86449351 0 0 0 10.84375 2.03125 z M 7.40625 12.1875 L 17.3125 12.1875 L 18.875 12.1875 L 17.3125 15.8125 L 16.125 18.5625 L 4.625 18.5625 L 7.40625 12.1875 z" baseline-shift="baseline" color="#000" direction="ltr" display="inline" enable-background="accumulate" font-family="Sans" font-size="medium" font-stretch="normal" font-style="normal" font-variant="normal" font-weight="normal" letter-spacing="normal" overflow="visible" text-anchor="start" text-decoration="none" transform="translate(0,16)" visibility="visible" word-spacing="normal" writing-mode="lr-tb" style="text-indent:0;text-align:start;line-height:normal;text-transform:none;block-progression:tb;marker:none;-inkscape-font-specification:Sans"/></g></svg>