<svg xmlns="http://www.w3.org/2000/svg" xmlns:svg="http://www.w3.org/2000/svg" id="svg2" width="36" height="36" version="1.1"><metadata id="metadata7"/><g id="g3923" display="inline" transform="translate(0,-1016.3622)"><path id="path3925" fill="#eee" fill-opacity="1" stroke="none" stroke-width=".5" d="m 18,1021.3243 c -7.184647,0 -13.0379464,5.8531 -13.0379464,13.0379 0,0.8215 0.074954,1.6118 0.2209821,2.3907 l 1.2857143,6.8705 0.6428571,3.2745 2.8325893,-0.5424 -0.6227678,-3.2544 -1.3058036,-6.8706 -0.040179,-0.1808 0.040179,0 c -0.094801,-0.5527 -0.1607143,-1.1029 -0.1607143,-1.6875 0,-5.621 4.5241153,-10.1451 10.1450893,-10.1451 5.620974,0 10.145089,4.5241 10.145089,10.1451 0,0.647 -0.06714,1.2588 -0.180803,1.8683 l -1.285715,6.8706 -0.622767,3.2745 2.832589,0.5223 0.642857,-3.2745 1.245536,-6.6696 -0.02009,0 0.04018,-0.2009 c 0.146514,-0.7814 0.241071,-1.5718 0.241071,-2.3907 0,-7.1848 -5.853299,-13.0379 -13.037946,-13.0379 z" baseline-shift="baseline" color="#eee" direction="ltr" display="inline" enable-background="accumulate" font-family="Sans" font-size="medium" font-stretch="normal" font-style="normal" font-variant="normal" font-weight="normal" letter-spacing="normal" overflow="visible" text-anchor="start" text-decoration="none" visibility="visible" word-spacing="normal" writing-mode="lr-tb" style="text-indent:0;text-align:start;line-height:normal;text-transform:none;block-progression:tb;marker:none;-inkscape-font-specification:Sans"/><rect id="rect3927" width="5.496" height="10.84" x="-188.431" y="1020.656" fill="#eee" fill-opacity="1" fill-rule="nonzero" stroke="none" rx="1.995" ry="1.995" transform="matrix(0.98257665,-0.18585783,0.18585783,0.98257665,0,0)"/><rect id="rect3929" width="5.496" height="10.84" x="-223.734" y="1013.98" fill="#eee" fill-opacity="1" fill-rule="nonzero" stroke="none" rx="1.995" ry="1.995" transform="matrix(-0.98257725,-0.18585464,-0.18586102,0.98257604,0,0)"/></g></svg>