<svg xmlns="http://www.w3.org/2000/svg" xmlns:svg="http://www.w3.org/2000/svg" id="svg2" width="32" height="32" version="1.1"><metadata id="metadata7"/><g id="layer1" display="none" transform="translate(0,-24)"><path id="path3925" fill="#0f0f0f" fill-opacity="1" stroke="none" stroke-width=".5" d="M 28,7.71875 C 16.823882,7.71875 7.71875,16.8237 7.71875,28 c 0,1.2779 0.1165944,2.50725 0.34375,3.71875 l 0.3125,1.6875 c -0.6845218,0.420478 -1.0961337,1.22385 -0.9375,2.0625 l 2.40625,12.625 c 0.205406,1.085923 1.226577,1.799156 2.3125,1.59375 l 4.5,-0.84375 C 17.742173,48.638344 18.455406,47.585923 18.25,46.5 L 15.84375,33.875 c -0.205406,-1.085923 -1.226577,-1.799156 -2.3125,-1.59375 L 12.75,32.4375 12.46875,30.90625 12.40625,30.625 l 0.0625,0 c -0.147469,-0.8597 -0.25,-1.7157 -0.25,-2.625 0,-8.7438 7.037512,-15.78125 15.78125,-15.78125 8.743738,-10e-5 15.78125,7.03745 15.78125,15.78125 0,1.0064 -0.104443,1.95805 -0.28125,2.90625 L 43.21875,32.4375 42.375,32.28125 c -1.085942,-0.205406 -2.13834,0.507827 -2.34375,1.59375 l -2.375,12.625 c -0.20541,1.085923 0.476558,2.138344 1.5625,2.34375 l 4.5,0.84375 c 1.085942,0.205406 2.10709,-0.507827 2.3125,-1.59375 l 2.40625,-12.625 C 48.58978,34.663705 48.258808,33.870614 47.625,33.4375 l 0.25,-1.40625 -0.03125,0 0.0625,-0.3125 C 48.134161,30.50325 48.28125,29.2738 48.28125,28 48.28125,16.8237 39.176117,7.71875 28,7.71875 z" baseline-shift="baseline" color="#000" direction="ltr" display="inline" enable-background="accumulate" font-family="Sans" font-size="medium" font-stretch="normal" font-style="normal" font-variant="normal" font-weight="normal" letter-spacing="normal" overflow="visible" text-anchor="start" text-decoration="none" visibility="visible" word-spacing="normal" writing-mode="lr-tb" style="text-indent:0;text-align:start;line-height:normal;text-transform:none;block-progression:tb;marker:none;-inkscape-font-specification:Sans"/></g><g id="g3923" display="inline" transform="translate(0,-1020.3622)"><path id="path2991" fill="#d2d2d2" fill-opacity="1" stroke="none" d="m 17.04677,1025.4038 -7.2657371,7.2657 0,7.2658 7.2657371,7.2657 0.908217,0 0,-21.7972 -0.908217,0 z"/><rect id="rect3783-5" width="3.825" height="7.266" x="4.999" y="1032.669" fill="#d2d2d2" fill-opacity="1" fill-rule="nonzero" stroke="none" display="inline" rx="1" ry="1"/><path id="path4069" fill="#d2d2d2" fill-opacity="1" fill-rule="nonzero" stroke="none" d="m 21.212613,1027.3664 -0.50807,1.3598 c 3.135597,1.126 5.379566,4.1114 5.379566,7.636 0,3.5081 -2.22216,6.4828 -5.334737,7.6211 l 0.493128,1.3598 c 3.65926,-1.3437 6.27616,-4.8574 6.27616,-8.9809 0,-4.1353 -2.630324,-7.6607 -6.306047,-8.9958 z"/><path id="path4069-6" fill="#d2d2d2" fill-opacity="1" fill-rule="nonzero" stroke="none" d="m 20.226359,1030.0711 -0.493127,1.3449 c 2.025679,0.7309 3.481775,2.6684 3.481775,4.9462 0,2.261 -1.434677,4.1882 -3.436946,4.9313 l 0.478184,1.3449 c 2.562972,-0.9378 4.393313,-3.3885 4.393313,-6.2762 0,-2.8996 -1.843697,-5.362 -4.423199,-6.2911 z" display="inline"/><rect id="rect4933" width="1.913" height="24.866" x="16.999" y="1023.929" fill="#d2d2d2" fill-opacity="1" fill-rule="nonzero" stroke="none" rx="2" ry="2"/></g></svg>