<svg xmlns="http://www.w3.org/2000/svg" xmlns:svg="http://www.w3.org/2000/svg" id="svg2" width="36" height="36" version="1.1"><metadata id="metadata7"/><g id="g3923" display="inline" transform="translate(0,-1016.3622)"><path id="path3925" fill="#888" fill-opacity="1" stroke="none" stroke-width=".5" d="M 18 4.96875 C 10.815353 4.96875 4.96875 10.8152 4.96875 18 C 4.96875 18.8215 5.0414719 19.62735 5.1875 20.40625 L 5.4375 21.71875 C 5.0025079 22.167972 4.7806893 22.836197 4.90625 23.5 L 6.1875 30.21875 C 6.3929061 31.304673 7.4453275 32.017906 8.53125 31.8125 L 10 31.53125 C 11.085923 31.325844 11.799156 30.273423 11.59375 29.1875 L 10.3125 22.46875 C 10.118875 21.445108 9.2036889 20.778566 8.1875 20.875 L 8 19.875 L 7.96875 19.6875 L 8 19.6875 C 7.905199 19.1348 7.84375 18.5846 7.84375 18 C 7.84375 12.379 12.379026 7.84375 18 7.84375 C 23.620974 7.84375 28.15625 12.379 28.15625 18 C 28.15625 18.647 28.082413 19.2655 27.96875 19.875 L 27.78125 20.875 C 26.753141 20.761459 25.789342 21.434728 25.59375 22.46875 L 24.34375 29.1875 C 24.13834 30.273423 24.820308 31.325844 25.90625 31.53125 L 27.40625 31.8125 C 28.492192 32.017906 29.51334 31.304673 29.71875 30.21875 L 31 23.5 C 31.117109 22.880892 30.940195 22.25549 30.5625 21.8125 L 30.78125 20.59375 L 30.75 20.59375 L 30.8125 20.40625 C 30.959014 19.62485 31.03125 18.8189 31.03125 18 C 31.03125 10.8152 25.184647 4.96875 18 4.96875 z" baseline-shift="baseline" color="#888" direction="ltr" display="inline" enable-background="accumulate" font-family="Sans" font-size="medium" font-stretch="normal" font-style="normal" font-variant="normal" font-weight="normal" letter-spacing="normal" overflow="visible" text-anchor="start" text-decoration="none" transform="translate(0,1016.3622)" visibility="visible" word-spacing="normal" writing-mode="lr-tb" style="text-indent:0;text-align:start;line-height:normal;text-transform:none;block-progression:tb;marker:none;-inkscape-font-specification:Sans"/></g></svg>