<svg xmlns="http://www.w3.org/2000/svg" xmlns:svg="http://www.w3.org/2000/svg" id="svg2" width="36" height="36" version="1.1"><metadata id="metadata7"/><g id="layer1" display="none" transform="translate(0,-20)"><path id="path3925" fill="#0f0f0f" fill-opacity="1" stroke="none" stroke-width=".5" d="M 28,7.71875 C 16.823882,7.71875 7.71875,16.8237 7.71875,28 c 0,1.2779 0.1165944,2.50725 0.34375,3.71875 l 0.3125,1.6875 c -0.6845218,0.420478 -1.0961337,1.22385 -0.9375,2.0625 l 2.40625,12.625 c 0.205406,1.085923 1.226577,1.799156 2.3125,1.59375 l 4.5,-0.84375 C 17.742173,48.638344 18.455406,47.585923 18.25,46.5 L 15.84375,33.875 c -0.205406,-1.085923 -1.226577,-1.799156 -2.3125,-1.59375 L 12.75,32.4375 12.46875,30.90625 12.40625,30.625 l 0.0625,0 c -0.147469,-0.8597 -0.25,-1.7157 -0.25,-2.625 0,-8.7438 7.037512,-15.78125 15.78125,-15.78125 8.743738,-10e-5 15.78125,7.03745 15.78125,15.78125 0,1.0064 -0.104443,1.95805 -0.28125,2.90625 L 43.21875,32.4375 42.375,32.28125 c -1.085942,-0.205406 -2.13834,0.507827 -2.34375,1.59375 l -2.375,12.625 c -0.20541,1.085923 0.476558,2.138344 1.5625,2.34375 l 4.5,0.84375 c 1.085942,0.205406 2.10709,-0.507827 2.3125,-1.59375 l 2.40625,-12.625 C 48.58978,34.663705 48.258808,33.870614 47.625,33.4375 l 0.25,-1.40625 -0.03125,0 0.0625,-0.3125 C 48.134161,30.50325 48.28125,29.2738 48.28125,28 48.28125,16.8237 39.176117,7.71875 28,7.71875 z" baseline-shift="baseline" color="#eee" direction="ltr" display="inline" enable-background="accumulate" font-family="Sans" font-size="medium" font-stretch="normal" font-style="normal" font-variant="normal" font-weight="normal" letter-spacing="normal" overflow="visible" text-anchor="start" text-decoration="none" visibility="visible" word-spacing="normal" writing-mode="lr-tb" style="text-indent:0;text-align:start;line-height:normal;text-transform:none;block-progression:tb;marker:none;-inkscape-font-specification:Sans"/></g><g id="g3923" display="inline" transform="translate(0,-1016.3622)"><path id="path2991" fill="#eee" fill-opacity="1" stroke="none" d="m 19.177616,1022.034 -8.173954,8.1739 0,8.174 8.173954,8.174 1.021744,0 0,-24.5219 -1.021744,0 z"/><rect id="rect3783-5" width="4.304" height="8.174" x="5.624" y="1030.208" fill="#eee" fill-opacity="1" fill-rule="nonzero" stroke="none" display="inline" rx="1" ry="1"/><path id="path4069" fill="#eee" fill-opacity="1" fill-rule="nonzero" stroke="none" d="m 23.86419,1024.2419 -0.571579,1.5298 c 3.527546,1.2668 6.052012,4.6253 6.052012,8.5905 0,3.9466 -2.49993,7.2932 -6.001579,8.5737 l 0.554768,1.5298 c 4.116668,-1.5117 7.060681,-5.4646 7.060681,-10.1035 0,-4.6522 -2.959115,-8.6183 -7.094303,-10.1203 z"/><path id="path4069-6" fill="#eee" fill-opacity="1" fill-rule="nonzero" stroke="none" d="m 22.754654,1027.2847 -0.554768,1.513 c 2.278889,0.8223 3.916997,3.002 3.916997,5.5645 0,2.5436 -1.614012,4.7117 -3.866564,5.5477 l 0.537957,1.513 c 2.883343,-1.055 4.942477,-3.812 4.942477,-7.0607 0,-3.2621 -2.074159,-6.0323 -4.976099,-7.0775 z" display="inline"/><rect id="rect4933" width="2.152" height="27.974" x="19.123" y="1020.375" fill="#eee" fill-opacity="1" fill-rule="nonzero" stroke="none" rx="2" ry="2"/></g></svg>