<svg xmlns="http://www.w3.org/2000/svg" xmlns:svg="http://www.w3.org/2000/svg" id="svg2" width="22" height="22" version="1.0" viewBox="0 0 22 22" xml:space="preserve"><metadata id="metadata19"/><g id="layer1" display="none" opacity=".315" transform="translate(0,-16)"><g id="Layer_x0020_4" stroke="#000" stroke-width="1.517" transform="matrix(0.66070257,0,0,0.65803279,4.5351031,8.5499156)"><g id="g5" stroke-width="1.517"><path id="path7" fill="none" stroke="#fff" stroke-width="10.175" d="m 7.1,10.6 c -1.3,0 -2.3,1 -2.3,2.3 l 0.1,22.3 c 0,1.4 0.9,2.3 2.3,2.3 h 0.1 27.5 c 1.1,0 2.1,-0.6 2.9,-1.6 0.6,-0.9 2.2,-4.5 3.1,-6.8 1.6,-4.1 2.5,-6.7 2.5,-7.9 0,-0.3 0,-1.2 -0.7,-1.7 C 42,19 41.2,18.9 40.4,18.9 h -4 V 17.2 C 36.4,15.9 35.5,15 34.2,15 h -14 v -2.2 c 0,-1.2 -1,-2.2 -2.3,-2.2 H 7.1 z"/><path id="path9" stroke-width="1.517" d="m 7.1,10.6 c -1.3,0 -2.3,1 -2.3,2.3 l 0.1,22.3 c 0,1.4 0.9,2.3 2.3,2.3 h 0.1 27.5 c 1.1,0 2.1,-0.6 2.9,-1.6 0.6,-0.9 2.2,-4.5 3.1,-6.8 1.6,-4.1 2.5,-6.7 2.5,-7.9 0,-0.3 0,-1.2 -0.7,-1.7 C 42,19 41.2,18.9 40.4,18.9 h -4 V 17.2 C 36.4,15.9 35.5,15 34.2,15 h -14 v -2.2 c 0,-1.2 -1,-2.2 -2.3,-2.2 H 7.1 z"/><path id="path11" fill="#fff" stroke-width="1.517" d="M 8.9,35.3 H 34 c 0.6,0 1.2,-0.4 1.5,-0.9 0.7,-1 4.8,-10.6 4.8,-12.5 0,-0.4 0,-0.7 -1.3,-0.7 H 14.9 c -0.4,0 -0.8,0.1 -0.9,0.7 -0.1,1.5 -3.2,11.8 -4.3,13.1 -0.3,0.4 -0.9,0.4 -0.9,0.4 l 0.1,-0.1 z"/></g></g></g><g id="layer2" transform="translate(0,-16)"><path font-size="medium" style="text-indent:0;text-align:start;line-height:normal;text-transform:none;block-progression:tb;marker:none;-inkscape-font-specification:Sans" id="path3001-3" fill="#888" fill-opacity="1" fill-rule="nonzero" stroke="none" stroke-width="2" d="m 11.128011,22.722746 a 0.68301385,0.68301385 0 0 0 0.490867,-0.341473 l 3.051913,-5.356855 A 0.68301385,0.68301385 0 0 0 14.094556,16 l -6.1678521,0 a 0.68301385,0.68301385 0 0 0 -0.597578,1.024418 l 3.0945981,5.356855 a 0.68301385,0.68301385 0 0 0 0.704287,0.341473 z" baseline-shift="baseline" color="#000" direction="ltr" display="inline" enable-background="accumulate" font-family="Sans" font-stretch="normal" font-style="normal" font-variant="normal" font-weight="normal" letter-spacing="normal" overflow="visible" text-anchor="start" text-decoration="none" visibility="visible" word-spacing="normal" writing-mode="lr-tb"/><g id="g3016" fill="#888" fill-opacity="1"><path font-size="medium" style="text-indent:0;text-align:start;line-height:normal;text-transform:none;block-progression:tb;marker:none;-inkscape-font-specification:Sans" id="path3852" fill="#888" fill-opacity="1" fill-rule="nonzero" stroke="none" stroke-width="2" d="m 2.5894551,24.746224 c -0.3325,0.06389 -0.5953076,0.389632 -0.5893425,0.730469 l 0,9.792838 C 2.0001502,35.651993 2.3456778,35.999962 2.7254573,36 l 13.8722167,0 c 0.37978,-3.8e-5 0.725307,-0.348007 0.725345,-0.730469 l 0,-3.561032 -1.201352,2.830564 -11.4921798,0 2.7880438,-6.52856 9.905488,0 0,-2.533811 c -3.8e-5,-0.382462 -0.345566,-0.73043 -0.725345,-0.730468 -6.9177056,0.0095 -6.9207143,0.02842 -13.8722167,0 -0.02265,-0.0011 -0.045351,-0.0011 -0.068001,0 -0.02265,-0.0011 -0.045351,-0.0011 -0.068001,0 z" baseline-shift="baseline" color="#000" direction="ltr" display="inline" enable-background="accumulate" font-family="Sans" font-stretch="normal" font-style="normal" font-variant="normal" font-weight="normal" letter-spacing="normal" overflow="visible" text-anchor="start" text-decoration="none" visibility="visible" word-spacing="normal" writing-mode="lr-tb"/><path id="path3804-3" fill="#888" fill-opacity="1" stroke="none" stroke-width="2" d="M 6.8508555,26.549567 A 0.72541726,0.73054131 0 0 0 6.2615128,27.00611 L 2.8841265,34.972778 A 0.72541726,0.73054131 0 0 0 3.5414702,36 l 13.0562038,0 a 0.72541726,0.73054131 0 0 0 0.657344,-0.433716 l 3.400054,-7.989496 a 0.72541726,0.73054131 0 0 0 -0.680011,-1.027221 l -13.0562045,0 a 0.72541726,0.73054131 0 0 0 -0.068001,0 z m 0.5666755,1.460936 11.469513,0 -2.765377,6.52856 -11.4921798,0 2.7880438,-6.52856 z" baseline-shift="baseline" color="#000" direction="ltr" display="inline" enable-background="accumulate" font-family="Sans" font-size="medium" font-stretch="normal" font-style="normal" font-variant="normal" font-weight="normal" letter-spacing="normal" overflow="visible" text-anchor="start" text-decoration="none" visibility="visible" word-spacing="normal" writing-mode="lr-tb" style="text-indent:0;text-align:start;line-height:normal;text-transform:none;block-progression:tb;marker:none;-inkscape-font-specification:Sans"/></g></g></svg>