<svg xmlns="http://www.w3.org/2000/svg" xmlns:svg="http://www.w3.org/2000/svg" xmlns:xlink="http://www.w3.org/1999/xlink" id="svg2" width="52" height="13" version="1.1"><metadata id="metadata209"/><defs id="defs4"><linearGradient id="Grad0" x1="74.993" x2="13.486" y1="-.146" y2="88.767" gradientUnits="userSpaceOnUse"><stop id="stop7" offset="47.8%" stop-color="#39b549" stop-opacity="1"/><stop id="stop9" offset="100%" stop-color="#1a76bc" stop-opacity="1"/></linearGradient><linearGradient id="Grad1" x1="74.998" x2="13.488" y1="-.15" y2="88.767" gradientUnits="userSpaceOnUse"><stop id="stop12" offset="0%" stop-color="#381f1f" stop-opacity="1"/><stop id="stop14" offset=".17%" stop-color="#3a1f20" stop-opacity="1"/><stop id="stop16" offset="3.76%" stop-color="#5b2825" stop-opacity="1"/><stop id="stop18" offset="7.57%" stop-color="#7c2f28" stop-opacity="1"/><stop id="stop20" offset="11.73%" stop-color="#9b2e28" stop-opacity="1"/><stop id="stop22" offset="16.26%" stop-color="#b62c28" stop-opacity="1"/><stop id="stop24" offset="21.29%" stop-color="#cc2626" stop-opacity="1"/><stop id="stop26" offset="27.1%" stop-color="#dc2225" stop-opacity="1"/><stop id="stop28" offset="34.38%" stop-color="#e81f25" stop-opacity="1"/><stop id="stop30" offset="47.8%" stop-color="#ed1b26" stop-opacity="1"/><stop id="stop32" offset="100%" stop-color="#f7921e" stop-opacity="1"/></linearGradient><linearGradient id="Grad2" x1="74.992" x2="13.485" y1="-.147" y2="88.766" gradientUnits="userSpaceOnUse"><stop id="stop35" offset="0%" stop-color="#120e1e" stop-opacity="1"/><stop id="stop37" offset="2.31%" stop-color="#1b1426" stop-opacity="1"/><stop id="stop39" offset="14.46%" stop-color="#442349" stop-opacity="1"/><stop id="stop41" offset="25.52%" stop-color="#652866" stop-opacity="1"/><stop id="stop43" offset="35.11%" stop-color="#7c287b" stop-opacity="1"/><stop id="stop45" offset="42.86%" stop-color="#8b2589" stop-opacity="1"/><stop id="stop47" offset="47.8%" stop-color="#91268f" stop-opacity="1"/><stop id="stop49" offset="100%" stop-color="#ed1b26" stop-opacity="1"/></linearGradient><clipPath id="Clip0"><path id="path52" d="m 0,0 358.182,0 0,89.118 L 0,89.118 0,0 z" transform="translate(0,0.028)"/></clipPath><linearGradient id="Grad3" x1="44.061" x2="44.061" y1=".247" y2="93.878" gradientUnits="userSpaceOnUse"><stop id="stop59" offset="0" stop-color="#58595b" stop-opacity="1"/><stop id="stop61" offset="100%" stop-color="#a5a8aa" stop-opacity="1"/></linearGradient><linearGradient id="Grad4" x1="44.066" x2="44.066" y1=".247" y2="93.878" gradientUnits="userSpaceOnUse"><stop id="stop68" offset="0" stop-color="#58595b" stop-opacity="1"/><stop id="stop70" offset="100%" stop-color="#a5a8aa" stop-opacity="1"/></linearGradient><linearGradient id="Grad5" x1="44.066" x2="44.066" y1=".247" y2="93.878" gradientUnits="userSpaceOnUse"><stop id="stop77" offset="0" stop-color="#58595b" stop-opacity="1"/><stop id="stop79" offset="100%" stop-color="#a5a8aa" stop-opacity="1"/></linearGradient><linearGradient id="Grad6" x1="11.557" x2="11.557" y1=".247" y2="93.878" gradientUnits="userSpaceOnUse"><stop id="stop86" offset="0" stop-color="#58595b" stop-opacity="1"/><stop id="stop88" offset="100%" stop-color="#a5a8aa" stop-opacity="1"/></linearGradient><linearGradient id="Grad7" x1="52.543" x2="52.543" y1=".247" y2="93.878" gradientUnits="userSpaceOnUse"><stop id="stop95" offset="0" stop-color="#58595b" stop-opacity="1"/><stop id="stop97" offset="100%" stop-color="#a5a8aa" stop-opacity="1"/></linearGradient><linearGradient id="Grad8" x1=".348" x2=".348" y1="90.637" y2="-2.332" gradientUnits="userSpaceOnUse"><stop id="stop100" offset="0%" stop-color="#fff" stop-opacity="1"/><stop id="stop102" offset="100%" stop-color="#000" stop-opacity="1"/></linearGradient><linearGradient id="Grad9" x1=".348" x2=".348" y1="90.637" y2="-2.332" gradientUnits="userSpaceOnUse"><stop id="stop105" offset="0%" stop-color="#fff" stop-opacity="1"/><stop id="stop107" offset="100%" stop-color="#000" stop-opacity="1"/></linearGradient><linearGradient id="Grad10" x1=".313" x2=".313" y1="88.656" y2="1.172" gradientUnits="userSpaceOnUse"><stop id="stop110" offset="0%" stop-color="#fff" stop-opacity="1"/><stop id="stop112" offset="100%" stop-color="#000" stop-opacity="1"/></linearGradient><linearGradient id="Grad11" x1=".312" x2=".312" y1="88.656" y2="1.172" gradientUnits="userSpaceOnUse"><stop id="stop115" offset="0%" stop-color="#fff" stop-opacity="1"/><stop id="stop117" offset="100%" stop-color="#000" stop-opacity="1"/></linearGradient><clipPath id="Clip1"><path id="path120" d="m 0,0 88.123,0 0,89.118 L 0,89.118 0,0 z" transform="translate(147.641,0.028)"/></clipPath><linearGradient id="Grad12" x1="30.55" x2="30.55" y1="89.118" y2="-3.241" gradientUnits="userSpaceOnUse"><stop id="stop123" offset="0%" stop-color="#fff" stop-opacity="1"/><stop id="stop125" offset="100%" stop-color="#000" stop-opacity="1"/></linearGradient><linearGradient id="Grad13" x1="30.548" x2="30.548" y1="90.026" y2=".105" gradientUnits="userSpaceOnUse"><stop id="stop128" offset="0%" stop-color="#fff" stop-opacity="1"/><stop id="stop130" offset="100%" stop-color="#000" stop-opacity="1"/></linearGradient><clipPath id="Clip2"><path id="path133" d="m 0,0 88.123,0 0,89.118 L 0,89.118 0,0 z" transform="translate(208.823,0)"/></clipPath><linearGradient id="Grad14" x1="30.549" x2="30.549" y1="89.118" y2="-3.241" gradientUnits="userSpaceOnUse"><stop id="stop136" offset="0%" stop-color="#fff" stop-opacity="1"/><stop id="stop138" offset="100%" stop-color="#000" stop-opacity="1"/></linearGradient><linearGradient id="Grad15" x1="30.549" x2="30.549" y1="90.025" y2=".105" gradientUnits="userSpaceOnUse"><stop id="stop141" offset="0%" stop-color="#fff" stop-opacity="1"/><stop id="stop143" offset="100%" stop-color="#000" stop-opacity="1"/></linearGradient><clipPath id="Clip3"><path id="path146" d="m 0,0 88.123,0 0,89.118 L 0,89.118 0,0 z" transform="translate(270.034,0)"/></clipPath><linearGradient id="Grad16" x1="30.549" x2="30.549" y1="89.118" y2="-3.241" gradientUnits="userSpaceOnUse"><stop id="stop149" offset="0%" stop-color="#fff" stop-opacity="1"/><stop id="stop151" offset="100%" stop-color="#000" stop-opacity="1"/></linearGradient><linearGradient id="Grad17" x1="30.549" x2="30.549" y1="90.025" y2=".105" gradientUnits="userSpaceOnUse"><stop id="stop154" offset="0%" stop-color="#fff" stop-opacity="1"/><stop id="stop156" offset="100%" stop-color="#000" stop-opacity="1"/></linearGradient><linearGradient id="Grad18" x1=".292" x2=".292" y1="52.64" y2="-37.899" gradientUnits="userSpaceOnUse"><stop id="stop159" offset="0%" stop-color="#fff" stop-opacity="1"/><stop id="stop161" offset="100%" stop-color="#000" stop-opacity="1"/></linearGradient><linearGradient id="Grad19" x1=".248" x2=".248" y1="52.916" y2="-35.326" gradientUnits="userSpaceOnUse"><stop id="stop164" offset="0%" stop-color="#fff" stop-opacity="1"/><stop id="stop166" offset="100%" stop-color="#000" stop-opacity="1"/></linearGradient><linearGradient id="Grad20" x1="27.626" x2="27.626" y1="89.12" y2=".13" gradientUnits="userSpaceOnUse"><stop id="stop169" offset="0%" stop-color="#fff" stop-opacity="1"/><stop id="stop171" offset="100%" stop-color="#000" stop-opacity="1"/></linearGradient><linearGradient id="Grad21" x1="29.726" x2="29.726" y1="53.389" y2="-36.621" gradientUnits="userSpaceOnUse"><stop id="stop174" offset="0%" stop-color="#fff" stop-opacity="1"/><stop id="stop176" offset="100%" stop-color="#000" stop-opacity="1"/></linearGradient><linearGradient id="linearGradient3169" x1=".348" x2=".348" y1="90.637" y2="-2.332" gradientUnits="userSpaceOnUse" xlink:href="#Grad8"/><linearGradient id="linearGradient3171" x1=".348" x2=".348" y1="90.637" y2="-2.332" gradientUnits="userSpaceOnUse" xlink:href="#Grad9"/><linearGradient id="linearGradient3173" x1=".313" x2=".313" y1="88.656" y2="1.172" gradientUnits="userSpaceOnUse" xlink:href="#Grad10"/><linearGradient id="linearGradient3175" x1=".312" x2=".312" y1="88.656" y2="1.172" gradientUnits="userSpaceOnUse" xlink:href="#Grad11"/><linearGradient id="linearGradient3177" x1="30.55" x2="30.55" y1="89.118" y2="-3.241" gradientUnits="userSpaceOnUse" xlink:href="#Grad12"/><linearGradient id="linearGradient3179" x1="30.548" x2="30.548" y1="90.026" y2=".105" gradientUnits="userSpaceOnUse" xlink:href="#Grad13"/><linearGradient id="linearGradient3181" x1="30.549" x2="30.549" y1="89.118" y2="-3.241" gradientUnits="userSpaceOnUse" xlink:href="#Grad14"/><linearGradient id="linearGradient3183" x1="30.549" x2="30.549" y1="90.025" y2=".105" gradientUnits="userSpaceOnUse" xlink:href="#Grad15"/><linearGradient id="linearGradient3185" x1="30.549" x2="30.549" y1="89.118" y2="-3.241" gradientUnits="userSpaceOnUse" xlink:href="#Grad16"/><linearGradient id="linearGradient3187" x1="30.549" x2="30.549" y1="90.025" y2=".105" gradientUnits="userSpaceOnUse" xlink:href="#Grad17"/><linearGradient id="linearGradient3189" x1=".292" x2=".292" y1="52.64" y2="-37.899" gradientUnits="userSpaceOnUse" xlink:href="#Grad18"/><linearGradient id="linearGradient3191" x1=".248" x2=".248" y1="52.916" y2="-35.326" gradientUnits="userSpaceOnUse" xlink:href="#Grad19"/><linearGradient id="linearGradient3193" x1="27.626" x2="27.626" y1="89.12" y2=".13" gradientUnits="userSpaceOnUse" xlink:href="#Grad20"/><linearGradient id="linearGradient3195" x1="29.726" x2="29.726" y1="53.389" y2="-36.621" gradientUnits="userSpaceOnUse" xlink:href="#Grad21"/><linearGradient id="linearGradient3198" x1="29.726" x2="29.726" y1="53.389" y2="-36.621" gradientTransform="matrix(0.23228415,0,0,0.23332511,5.2647203,8.517766)" gradientUnits="userSpaceOnUse" xlink:href="#Grad21"/><linearGradient id="linearGradient3201" x1="27.626" x2="27.626" y1="89.12" y2=".13" gradientTransform="matrix(0.23228415,0,0,0.23332511,5.7882887,0.0065326)" gradientUnits="userSpaceOnUse" xlink:href="#Grad20"/><linearGradient id="linearGradient3204" x1=".248" x2=".248" y1="52.916" y2="-35.326" gradientTransform="matrix(0.23228415,0,0,0.23332511,5.1481136,8.4533682)" gradientUnits="userSpaceOnUse" xlink:href="#Grad19"/><linearGradient id="linearGradient3207" x1=".292" x2=".292" y1="52.64" y2="-37.899" gradientTransform="matrix(0.23228415,0,0,0.23332511,19.07471,8.5177656)" gradientUnits="userSpaceOnUse" xlink:href="#Grad18"/><linearGradient id="linearGradient3219" x1=".312" x2=".312" y1="88.656" y2="1.172" gradientTransform="matrix(0.23228415,0,0,0.23332511,0,0.00653218)" gradientUnits="userSpaceOnUse" xlink:href="#Grad11"/><linearGradient id="linearGradient3222" x1=".313" x2=".313" y1="88.656" y2="1.172" gradientTransform="matrix(0.23228415,0,0,0.23332511,26.783988,0.00653235)" gradientUnits="userSpaceOnUse" xlink:href="#Grad10"/><linearGradient id="linearGradient3225" x1=".348" x2=".348" y1="90.637" y2="-2.332" gradientTransform="matrix(0.23228415,0,0,0.23332511,24.236528,0.0065326)" gradientUnits="userSpaceOnUse" xlink:href="#Grad9"/><linearGradient id="linearGradient3228" x1=".348" x2=".348" y1="90.637" y2="-2.332" gradientTransform="matrix(0.23228415,0,0,0.23332511,31.991335,0.0065326)" gradientUnits="userSpaceOnUse" xlink:href="#Grad8"/><linearGradient id="linearGradient3230" x1="30.549" x2="30.549" y1="89.118" y2="-3.241" gradientUnits="userSpaceOnUse" xlink:href="#Grad16"/><linearGradient id="linearGradient3232" x1="30.549" x2="30.549" y1="90.025" y2=".105" gradientUnits="userSpaceOnUse" xlink:href="#Grad17"/><linearGradient id="linearGradient3264" x1="74.993" x2="13.486" y1="-.146" y2="88.767" gradientUnits="userSpaceOnUse" xlink:href="#Grad0"/><linearGradient id="linearGradient3266" x1="74.998" x2="13.488" y1="-.15" y2="88.767" gradientUnits="userSpaceOnUse" xlink:href="#Grad1"/><linearGradient id="linearGradient3268" x1="74.992" x2="13.485" y1="-.147" y2="88.766" gradientUnits="userSpaceOnUse" xlink:href="#Grad2"/><linearGradient id="linearGradient3270" x1="44.061" x2="44.061" y1=".247" y2="93.878" gradientUnits="userSpaceOnUse" xlink:href="#Grad3"/><linearGradient id="linearGradient3272" x1="44.066" x2="44.066" y1=".247" y2="93.878" gradientUnits="userSpaceOnUse" xlink:href="#Grad4"/><linearGradient id="linearGradient3274" x1="44.066" x2="44.066" y1=".247" y2="93.878" gradientUnits="userSpaceOnUse" xlink:href="#Grad5"/><linearGradient id="linearGradient3276" x1="11.557" x2="11.557" y1=".247" y2="93.878" gradientUnits="userSpaceOnUse" xlink:href="#Grad6"/><linearGradient id="linearGradient3278" x1="52.543" x2="52.543" y1=".247" y2="93.878" gradientUnits="userSpaceOnUse" xlink:href="#Grad7"/><linearGradient id="linearGradient3280" x1=".348" x2=".348" y1="90.637" y2="-2.332" gradientTransform="matrix(0.23228415,0,0,0.23332511,31.991335,0.0065326)" gradientUnits="userSpaceOnUse" xlink:href="#Grad8"/><linearGradient id="linearGradient3282" x1=".348" x2=".348" y1="90.637" y2="-2.332" gradientTransform="matrix(0.23228415,0,0,0.23332511,24.236528,0.0065326)" gradientUnits="userSpaceOnUse" xlink:href="#Grad9"/><linearGradient id="linearGradient3284" x1=".313" x2=".313" y1="88.656" y2="1.172" gradientTransform="matrix(0.23228415,0,0,0.23332511,26.783988,0.00653235)" gradientUnits="userSpaceOnUse" xlink:href="#Grad10"/><linearGradient id="linearGradient3286" x1=".312" x2=".312" y1="88.656" y2="1.172" gradientTransform="matrix(0.23228415,0,0,0.23332511,0,0.00653218)" gradientUnits="userSpaceOnUse" xlink:href="#Grad11"/><linearGradient id="linearGradient3288" x1="30.55" x2="30.55" y1="89.118" y2="-3.241" gradientUnits="userSpaceOnUse" xlink:href="#Grad12"/><linearGradient id="linearGradient3290" x1="30.548" x2="30.548" y1="90.026" y2=".105" gradientUnits="userSpaceOnUse" xlink:href="#Grad13"/><linearGradient id="linearGradient3292" x1="30.549" x2="30.549" y1="89.118" y2="-3.241" gradientUnits="userSpaceOnUse" xlink:href="#Grad14"/><linearGradient id="linearGradient3294" x1="30.549" x2="30.549" y1="90.025" y2=".105" gradientUnits="userSpaceOnUse" xlink:href="#Grad15"/><linearGradient id="linearGradient3296" x1="30.549" x2="30.549" y1="89.118" y2="-3.241" gradientUnits="userSpaceOnUse" xlink:href="#Grad16"/><linearGradient id="linearGradient3298" x1="30.549" x2="30.549" y1="90.025" y2=".105" gradientUnits="userSpaceOnUse" xlink:href="#Grad17"/><linearGradient id="linearGradient3300" x1=".292" x2=".292" y1="52.64" y2="-37.899" gradientTransform="matrix(0.23228415,0,0,0.23332511,19.07471,8.5177656)" gradientUnits="userSpaceOnUse" xlink:href="#Grad18"/><linearGradient id="linearGradient3302" x1=".248" x2=".248" y1="52.916" y2="-35.326" gradientTransform="matrix(0.23228415,0,0,0.23332511,5.1481136,8.4533682)" gradientUnits="userSpaceOnUse" xlink:href="#Grad19"/><linearGradient id="linearGradient3304" x1="27.626" x2="27.626" y1="89.12" y2=".13" gradientTransform="matrix(0.23228415,0,0,0.23332511,5.7882887,0.0065326)" gradientUnits="userSpaceOnUse" xlink:href="#Grad20"/><linearGradient id="linearGradient3306" x1="29.726" x2="29.726" y1="53.389" y2="-36.621" gradientTransform="matrix(0.23228415,0,0,0.23332511,5.2647203,8.517766)" gradientUnits="userSpaceOnUse" xlink:href="#Grad21"/><linearGradient id="linearGradient4002" x1="74.993" x2="13.486" y1="-.146" y2="88.767" gradientUnits="userSpaceOnUse" xlink:href="#Grad0"/><linearGradient id="linearGradient4004" x1="74.998" x2="13.488" y1="-.15" y2="88.767" gradientUnits="userSpaceOnUse" xlink:href="#Grad1"/><linearGradient id="linearGradient4006" x1="74.992" x2="13.485" y1="-.147" y2="88.766" gradientUnits="userSpaceOnUse" xlink:href="#Grad2"/><linearGradient id="linearGradient4008" x1="44.061" x2="44.061" y1=".247" y2="93.878" gradientUnits="userSpaceOnUse" xlink:href="#Grad3"/><linearGradient id="linearGradient4010" x1="44.066" x2="44.066" y1=".247" y2="93.878" gradientUnits="userSpaceOnUse" xlink:href="#Grad4"/><linearGradient id="linearGradient4012" x1="44.066" x2="44.066" y1=".247" y2="93.878" gradientUnits="userSpaceOnUse" xlink:href="#Grad5"/><linearGradient id="linearGradient4014" x1="11.557" x2="11.557" y1=".247" y2="93.878" gradientUnits="userSpaceOnUse" xlink:href="#Grad6"/><linearGradient id="linearGradient4016" x1="52.543" x2="52.543" y1=".247" y2="93.878" gradientUnits="userSpaceOnUse" xlink:href="#Grad7"/><linearGradient id="linearGradient4018" x1=".348" x2=".348" y1="90.637" y2="-2.332" gradientTransform="matrix(0.23228415,0,0,0.23332511,31.991335,0.0065326)" gradientUnits="userSpaceOnUse" xlink:href="#Grad8"/><linearGradient id="linearGradient4020" x1=".348" x2=".348" y1="90.637" y2="-2.332" gradientTransform="matrix(0.23228415,0,0,0.23332511,24.236528,0.0065326)" gradientUnits="userSpaceOnUse" xlink:href="#Grad9"/><linearGradient id="linearGradient4022" x1=".313" x2=".313" y1="88.656" y2="1.172" gradientTransform="matrix(0.23228415,0,0,0.23332511,26.783988,0.00653235)" gradientUnits="userSpaceOnUse" xlink:href="#Grad10"/><linearGradient id="linearGradient4024" x1=".312" x2=".312" y1="88.656" y2="1.172" gradientTransform="matrix(0.23228415,0,0,0.23332511,0,0.00653218)" gradientUnits="userSpaceOnUse" xlink:href="#Grad11"/><linearGradient id="linearGradient4026" x1="30.55" x2="30.55" y1="89.118" y2="-3.241" gradientUnits="userSpaceOnUse" xlink:href="#Grad12"/><linearGradient id="linearGradient4028" x1="30.548" x2="30.548" y1="90.026" y2=".105" gradientUnits="userSpaceOnUse" xlink:href="#Grad13"/><linearGradient id="linearGradient4030" x1="30.549" x2="30.549" y1="89.118" y2="-3.241" gradientUnits="userSpaceOnUse" xlink:href="#Grad14"/><linearGradient id="linearGradient4032" x1="30.549" x2="30.549" y1="90.025" y2=".105" gradientUnits="userSpaceOnUse" xlink:href="#Grad15"/><linearGradient id="linearGradient4034" x1="30.549" x2="30.549" y1="89.118" y2="-3.241" gradientUnits="userSpaceOnUse" xlink:href="#Grad16"/><linearGradient id="linearGradient4036" x1="30.549" x2="30.549" y1="90.025" y2=".105" gradientUnits="userSpaceOnUse" xlink:href="#Grad17"/><linearGradient id="linearGradient4038" x1=".292" x2=".292" y1="52.64" y2="-37.899" gradientTransform="matrix(0.23228415,0,0,0.23332511,19.07471,8.5177656)" gradientUnits="userSpaceOnUse" xlink:href="#Grad18"/><linearGradient id="linearGradient4040" x1=".248" x2=".248" y1="52.916" y2="-35.326" gradientTransform="matrix(0.23228415,0,0,0.23332511,5.1481136,8.4533682)" gradientUnits="userSpaceOnUse" xlink:href="#Grad19"/><linearGradient id="linearGradient4042" x1="27.626" x2="27.626" y1="89.12" y2=".13" gradientTransform="matrix(0.23228415,0,0,0.23332511,5.7882887,0.0065326)" gradientUnits="userSpaceOnUse" xlink:href="#Grad20"/><linearGradient id="linearGradient4044" x1="29.726" x2="29.726" y1="53.389" y2="-36.621" gradientTransform="matrix(0.23228415,0,0,0.23332511,5.2647203,8.517766)" gradientUnits="userSpaceOnUse" xlink:href="#Grad21"/><linearGradient id="linearGradient4047" x1="29.726" x2="29.726" y1="53.389" y2="-36.621" gradientTransform="matrix(0.14517759,0,0,0.14582819,3.2904501,5.3236036)" gradientUnits="userSpaceOnUse" xlink:href="#Grad21"/><linearGradient id="linearGradient4050" x1="27.626" x2="27.626" y1="89.12" y2=".13" gradientTransform="matrix(0.14517759,0,0,0.14582819,3.6176804,0.00408287)" gradientUnits="userSpaceOnUse" xlink:href="#Grad20"/><linearGradient id="linearGradient4053" x1=".248" x2=".248" y1="52.916" y2="-35.326" gradientTransform="matrix(0.14517759,0,0,0.14582819,3.2175709,5.283355)" gradientUnits="userSpaceOnUse" xlink:href="#Grad19"/><linearGradient id="linearGradient4056" x1=".292" x2=".292" y1="52.64" y2="-37.899" gradientTransform="matrix(0.14517759,0,0,0.14582819,11.921694,5.3236033)" gradientUnits="userSpaceOnUse" xlink:href="#Grad18"/><linearGradient id="linearGradient4068" x1=".312" x2=".312" y1="88.656" y2="1.172" gradientTransform="matrix(0.14517759,0,0,0.14582819,0,0.00408261)" gradientUnits="userSpaceOnUse" xlink:href="#Grad11"/><linearGradient id="linearGradient4071" x1=".313" x2=".313" y1="88.656" y2="1.172" gradientTransform="matrix(0.14517759,0,0,0.14582819,16.739992,0.00408272)" gradientUnits="userSpaceOnUse" xlink:href="#Grad10"/><linearGradient id="linearGradient4074" x1=".348" x2=".348" y1="90.637" y2="-2.332" gradientTransform="matrix(0.14517759,0,0,0.14582819,15.14783,0.00408287)" gradientUnits="userSpaceOnUse" xlink:href="#Grad9"/><linearGradient id="linearGradient4077" x1=".348" x2=".348" y1="90.637" y2="-2.332" gradientTransform="matrix(0.14517759,0,0,0.14582819,19.994584,0.00408287)" gradientUnits="userSpaceOnUse" xlink:href="#Grad8"/><linearGradient id="linearGradient4131" x1="44.061" x2="44.061" y1=".247" y2="93.878" gradientUnits="userSpaceOnUse" xlink:href="#Grad3"/><linearGradient id="linearGradient4133" x1="44.066" x2="44.066" y1=".247" y2="93.878" gradientUnits="userSpaceOnUse" xlink:href="#Grad4"/><linearGradient id="linearGradient4135" x1="44.066" x2="44.066" y1=".247" y2="93.878" gradientUnits="userSpaceOnUse" xlink:href="#Grad5"/><linearGradient id="linearGradient4137" x1="11.557" x2="11.557" y1=".247" y2="93.878" gradientUnits="userSpaceOnUse" xlink:href="#Grad6"/><linearGradient id="linearGradient4139" x1="52.543" x2="52.543" y1=".247" y2="93.878" gradientUnits="userSpaceOnUse" xlink:href="#Grad7"/><linearGradient id="linearGradient4147" x1="44.061" x2="44.061" y1=".247" y2="93.878" gradientUnits="userSpaceOnUse" xlink:href="#Grad3"/><linearGradient id="linearGradient4149" x1="44.066" x2="44.066" y1=".247" y2="93.878" gradientUnits="userSpaceOnUse" xlink:href="#Grad4"/><linearGradient id="linearGradient4151" x1="44.066" x2="44.066" y1=".247" y2="93.878" gradientUnits="userSpaceOnUse" xlink:href="#Grad5"/><linearGradient id="linearGradient4153" x1="11.557" x2="11.557" y1=".247" y2="93.878" gradientUnits="userSpaceOnUse" xlink:href="#Grad6"/><linearGradient id="linearGradient4155" x1="52.543" x2="52.543" y1=".247" y2="93.878" gradientUnits="userSpaceOnUse" xlink:href="#Grad7"/><linearGradient id="linearGradient4158" x1="52.543" x2="52.543" y1=".247" y2="93.878" gradientTransform="matrix(0.14517759,0,0,0.14582819,0,0.00408288)" gradientUnits="userSpaceOnUse" xlink:href="#Grad7"/><linearGradient id="linearGradient4161" x1="11.557" x2="11.557" y1=".247" y2="93.878" gradientTransform="matrix(0.14517759,0,0,0.14582819,16.739992,0.00408288)" gradientUnits="userSpaceOnUse" xlink:href="#Grad6"/><linearGradient id="linearGradient4164" x1="44.066" x2="44.066" y1=".247" y2="93.878" gradientTransform="matrix(0.14517759,0,0,0.14582819,39.204918,0.00408288)" gradientUnits="userSpaceOnUse" xlink:href="#Grad5"/><linearGradient id="linearGradient4167" x1="44.066" x2="44.066" y1=".247" y2="93.878" gradientTransform="matrix(0.14517759,0,0,0.14582819,30.319614,0.00408288)" gradientUnits="userSpaceOnUse" xlink:href="#Grad4"/><linearGradient id="linearGradient4170" x1="44.061" x2="44.061" y1=".247" y2="93.878" gradientTransform="matrix(0.14517759,0,0,0.14582819,21.434165,0.00408288)" gradientUnits="userSpaceOnUse" xlink:href="#Grad3"/></defs><g id="Background" transform="matrix(0.14517759,0,0,0.14582819,0,-3.1374999e-7)"><path id="polygon460" fill="url(#linearGradient4002)" fill-rule="nonzero" stroke="none" d="M 0,89.118 61.111,0 88.123,0 27.023,89.118 0,89.118 z" transform="translate(270.048,0.028)"/><path id="polygon485" fill="url(#linearGradient4004)" fill-rule="nonzero" stroke="none" d="M 0,89.118 61.107,0 88.134,0 27.034,89.118 0,89.118 z" transform="translate(147.63,0.028)"/><path id="polygon504" fill="url(#linearGradient4006)" fill-rule="nonzero" stroke="none" d="M 0,89.118 61.11,0 88.123,0 27.022,89.118 0,89.118 z" transform="translate(208.845,0.028)"/></g><path id="polygon515" fill="url(#linearGradient4170)" fill-rule="nonzero" stroke="none" d="m 34.22765,13 -8.870351,-12.99591712 -3.923134,0 L 30.303935,13 34.22765,13 z"/><path id="polygon524" fill="url(#linearGradient4167)" fill-rule="nonzero" stroke="none" d="m 43.114551,13 -8.871948,-12.99591712 -3.922989,0 L 39.191417,13 l 3.923134,0 z"/><path id="polygon533" fill="url(#linearGradient4164)" fill-rule="nonzero" stroke="none" d="m 52,13 -8.871948,-12.99591712 -3.923134,0 L 48.076866,13 52,13 z"/><path id="rect542" fill="url(#linearGradient4161)" fill-rule="evenodd" stroke="none" d="m 16.739992,0.00408288 3.35578,0 0,12.99591712 -3.35578,0 0,-12.99591712 z"/><path id="polygon551" fill="url(#linearGradient4158)" fill-rule="nonzero" stroke="none" d="m 3.2904501,13 0,-7.6104821 4.2502191,6.4803131 0.086671,0 4.2943528,-6.5462274 0,7.6763964 3.334584,0 0,-12.99591712 -3.617244,0 L 7.6273402,6.4842502 3.6176804,0.00408288 0,0.00408288 0,13 3.2904501,13 z"/></svg>