<svg xmlns="http://www.w3.org/2000/svg" xmlns:svg="http://www.w3.org/2000/svg" id="svg2" width="30" height="22" version="1.1"><metadata id="metadata7"/><g id="layer1" display="none" opacity=".341"><g id="layer1-3" transform="matrix(1.2438616,0,0,1.2438616,3.2292779,-1284.3648)"><g id="g3989" fill="#888" fill-opacity="1"><path id="path3832-5" fill="#0f0f0f" fill-opacity="1" fill-rule="nonzero" stroke="none" d="m 18.375,1038.9561 -1.09375,0.7812 -0.53125,0.375 c 0.174912,0.3826 0.25,0.8022 0.25,1.25 0,1.6569 -1.343146,3 -3,3 l -5.4375,0 0,-2.625 -1.5625,1.125 -1,0.6875 -0.75,0.5625 -1.75,1.25 1.75,1.25 0.75,0.5625 1,0.6875 1.5625,1.125 0,-2.625 5.4375,0 c 1.326074,0 2.593574,-0.531 3.53125,-1.4687 1.610902,-1.6109 1.890837,-4.0396 0.84375,-5.9375 z"/><path id="path3832-5-7" fill="#0f0f0f" fill-opacity="1" fill-rule="nonzero" stroke="none" d="m 3.625,1043.7685 1.09375,-0.7813 0.53125,-0.375 c -0.174912,-0.3826 -0.25,-0.8023 -0.25,-1.25 0,-1.6569 1.343146,-3 3,-3 l 5.4375,0 0,2.625 1.5625,-1.125 1,-0.6875 0.75,-0.5625 1.75,-1.25 -1.75,-1.25 -0.75,-0.5625 -1,-0.6875 -1.5625,-1.125 0,2.625 -5.4375,0 c -1.326074,0 -2.593574,0.531 -3.53125,1.4688 -1.610902,1.6109 -1.890837,4.0396 -0.84375,5.9375 z"/></g></g></g><g id="layer2" display="inline"><path id="path3006" fill="#0f0f0f" fill-opacity="1" fill-rule="nonzero" stroke="none" stroke-width="4" d="m 10,4.999875 c -1.644703,-1.028e-4 -3,1.3552971 -3,3 l 0,7.00025 c 0,1.644705 1.355294,3.000023 3,3 L 11.00025,18 l 0,3 3.46875,-2 3.46875,-2 -3.46875,-2 -3.46875,-2 0,3 L 10,16.000125 c -0.571302,7.1e-5 -1.0000215,-0.428707 -1,-1 l 0,-7.00025 c 0,-0.5712971 0.428703,-0.9999817 1,-1 L 12,7 12,5 z" color="#000" display="inline" enable-background="accumulate" overflow="visible" visibility="visible" style="marker:none"/><path id="rect3980" fill="#0f0f0f" fill-opacity="1" fill-rule="nonzero" stroke="none" stroke-width="2" d="m 14,1.99975 2,0 0,8 -2,0 z" color="#000" display="inline" enable-background="accumulate" overflow="visible" visibility="visible" style="marker:none"/><path id="path3029" fill="#0f0f0f" fill-opacity="1" fill-rule="nonzero" stroke="none" stroke-width="4" d="m 20,4.999875 c 1.644703,-1.028e-4 3,1.3552971 3,3 l 0,7.00025 c 0,1.644705 -1.355294,3.000023 -3,3 l -1.031,0 0,-2 1.031,0 c 0.571302,0 1.000022,-0.428707 1,-1 l 0,-7.00025 c 0,-0.5712971 -0.428703,-0.9999817 -1,-1 L 18.00025,7 l 0,-2 z" color="#000" display="inline" enable-background="accumulate" overflow="visible" visibility="visible" style="marker:none"/></g></svg>