<svg xmlns="http://www.w3.org/2000/svg" xmlns:svg="http://www.w3.org/2000/svg" id="svg2" width="30" height="22" version="1.1"><metadata id="metadata7"/><g id="layer1" display="none" opacity=".341"><g id="layer1-3" transform="matrix(1.2438616,0,0,1.2438616,3.2292779,-1284.3648)"><g id="g3989" fill="#888" fill-opacity="1"><path id="path3832-5" fill="#0f0f0f" fill-opacity="1" fill-rule="nonzero" stroke="none" d="m 18.375,1038.9561 -1.09375,0.7812 -0.53125,0.375 c 0.174912,0.3826 0.25,0.8022 0.25,1.25 0,1.6569 -1.343146,3 -3,3 l -5.4375,0 0,-2.625 -1.5625,1.125 -1,0.6875 -0.75,0.5625 -1.75,1.25 1.75,1.25 0.75,0.5625 1,0.6875 1.5625,1.125 0,-2.625 5.4375,0 c 1.326074,0 2.593574,-0.531 3.53125,-1.4687 1.610902,-1.6109 1.890837,-4.0396 0.84375,-5.9375 z"/><path id="path3832-5-7" fill="#0f0f0f" fill-opacity="1" fill-rule="nonzero" stroke="none" d="m 3.625,1043.7685 1.09375,-0.7813 0.53125,-0.375 c -0.174912,-0.3826 -0.25,-0.8023 -0.25,-1.25 0,-1.6569 1.343146,-3 3,-3 l 5.4375,0 0,2.625 1.5625,-1.125 1,-0.6875 0.75,-0.5625 1.75,-1.25 -1.75,-1.25 -0.75,-0.5625 -1,-0.6875 -1.5625,-1.125 0,2.625 -5.4375,0 c -1.326074,0 -2.593574,0.531 -3.53125,1.4688 -1.610902,1.6109 -1.890837,4.0396 -0.84375,5.9375 z"/></g></g></g><g id="layer2" display="inline"><path id="path2995-3-7" fill="#888" fill-opacity="1" fill-rule="nonzero" stroke="none" stroke-width="4" d="M 5.094,7.187875 6.50025,8.000375 7.094,8.344125 7.09375,15 c -2.15e-5,0.571293 0.428698,1 1,1 l 9.9375,0 0,-3 3.46875,2 3.46875,2 -3.46875,2 -3.46875,2 0,-3 -9.9375,0 c -1.644706,0 -3,-1.355295 -3,-3 z" color="#000" display="inline" enable-background="accumulate" overflow="visible" visibility="visible" style="marker:none"/><path id="path3832" fill="#888" fill-opacity="1" stroke="none" stroke-width="2" d="m 11.96875,1 0,3 9.9375,0 c 1.644703,0 3,1.3552971 3,3 l 0,7.812125 -1.40625,-0.8125 -0.59375,-0.34375 0,-6.655875 c 0,-0.5712971 -0.428703,-1 -1,-1 l -9.9375,0 0,3 L 8.5,7 5.03125,5 8.5,3 z" baseline-shift="baseline" color="#000" direction="ltr" display="inline" enable-background="accumulate" font-family="Sans" font-size="medium" font-stretch="normal" font-style="normal" font-variant="normal" font-weight="normal" letter-spacing="normal" overflow="visible" text-anchor="start" text-decoration="none" visibility="visible" word-spacing="normal" writing-mode="lr-tb" style="text-indent:0;text-align:start;line-height:normal;text-transform:none;block-progression:tb;marker:none;-inkscape-font-specification:Sans"/></g></svg>