<svg xmlns="http://www.w3.org/2000/svg" xmlns:svg="http://www.w3.org/2000/svg" id="svg2" width="20" height="24" version="1.1"><metadata id="metadata7"/><g id="layer1" transform="translate(0,-1028.3622)"><path id="path2990" fill="#00c800" fill-opacity="1" fill-rule="nonzero" stroke="none" d="m 11.0478,7.3453302 a 1.314405,1.2975045 0 1 1 -2.6288103,0 1.314405,1.2975045 0 1 1 2.6288103,0 z" transform="matrix(1.5216011,0,0,1.5414204,-4.810344,1025.04)"/><path id="path3809-3-3" fill="#ff8605" fill-opacity="1" fill-rule="nonzero" stroke="none" d="m 3.782847,1031.3276 c -2.7805093,3.4338 -2.2510804,8.4713 1.182598,11.2519 l 0.7745451,-0.9565 c -2.905412,-2.3528 -3.3534014,-6.6154 -1.0006588,-9.5207 l -0.9564843,-0.7747 z m 10.477163,-0.2261 c 2.905412,2.3528 3.353401,6.6154 1.000659,9.5207 l 0.956485,0.7747 c 2.780508,-3.4338 2.25108,-8.4713 -1.182599,-11.2519 l -0.774545,0.9565 z"/><path id="path3809-3-6-5" fill="#e0c100" fill-opacity="1" fill-rule="nonzero" stroke="none" d="m 6.1740553,1033.2641 c -1.7110755,2.113 -1.3852107,5.2131 0.7277604,6.9241 l 0.774545,-0.9565 c -1.5848029,-1.2834 -1.8291194,-3.6083 -0.5458143,-5.1931 l -0.9564911,-0.7745 z m 6.1495847,0.2287 c 1.584708,1.2833 1.82912,3.6083 0.545815,5.1931 l 0.95649,0.7745 c 1.711075,-2.113 1.38521,-5.2131 -0.727761,-6.9241 l -0.774544,0.9565 z"/><path id="path3039" fill="#00c800" fill-opacity="1" fill-rule="nonzero" stroke="none" d="M -7.6250002,15.450648 -15.86363,1.1809246 l 16.47725833,-4e-7 z" transform="matrix(-0.21846204,0,0,-1.5417196,8.3342268,1052.1828)"/><path id="path3809-3-3-7" fill="#ff8605" fill-opacity="1" fill-rule="nonzero" stroke="none" d="m 16.217154,1031.3276 c 2.780508,3.4338 2.25108,8.4713 -1.182599,11.2519 l -0.774545,-0.9565 c 2.905412,-2.3528 3.353401,-6.6154 1.000659,-9.5207 l 0.956485,-0.7747 z M 5.73999,1031.1015 c -2.9054122,2.3528 -3.3534012,6.6154 -1.0006584,9.5207 l -0.9564851,0.7747 c -2.7805084,-3.4338 -2.2510801,-8.4713 1.1825987,-11.2519 l 0.7745448,0.9565 z"/><path id="path3809-3-6-5-5" fill="#e0c100" fill-opacity="1" fill-rule="nonzero" stroke="none" d="m 13.825945,1033.2641 c 1.711075,2.113 1.38521,5.2131 -0.72776,6.9241 l -0.774545,-0.9565 c 1.584803,-1.2834 1.829119,-3.6083 0.545814,-5.1931 l 0.956491,-0.7745 z m -6.1495848,0.2287 c -1.584708,1.2833 -1.8291196,3.6083 -0.5458146,5.1931 l -0.95649,0.7745 c -1.7110757,-2.113 -1.3852108,-5.2131 0.7277607,-6.9241 l 0.7745439,0.9565 z"/></g></svg>