<svg xmlns="http://www.w3.org/2000/svg" xmlns:svg="http://www.w3.org/2000/svg" id="svg2" width="56" height="56" version="1.1"><metadata id="metadata7"/><g id="g3923" display="inline" transform="translate(0,-996.3622)"><path id="path3925-9" fill="#ccc" fill-opacity="1" stroke="none" stroke-width=".5" d="m 28,1004.0809 c -11.176118,0 -20.28125,9.105 -20.28125,20.2813 0,1.2779 0.1165944,2.5072 0.34375,3.7187 l 0.3125,1.6875 c -0.6845218,0.4205 -1.0961337,1.2238 -0.9375,2.0625 l 2.40625,12.625 c 0.205406,1.0859 1.226577,1.7992 2.3125,1.5938 l 4.5,-0.8438 c 1.085923,-0.2054 1.799156,-1.2578 1.59375,-2.3437 l -2.40625,-12.625 c -0.205406,-1.086 -1.226004,-1.7961 -2.3125,-1.5938 l -0.734375,0.1368 c 0,0 -0.0065,0 -0.328125,-1.793 -0.153931,-0.8586 -0.25,-1.7157 -0.25,-2.625 0,-8.7438 7.037512,-15.7813 15.78125,-15.7813 8.743738,-1e-4 15.78125,7.0375 15.78125,15.7813 0,1.0064 -0.104443,1.958 -0.28125,2.9062 l -0.28125,1.5313 -0.84375,-0.1563 c -1.085942,-0.2054 -2.13834,0.5078 -2.34375,1.5938 l -2.375,12.625 c -0.20541,1.0859 0.476558,2.1383 1.5625,2.3437 l 4.5,0.8438 c 1.085942,0.2054 2.10709,-0.5079 2.3125,-1.5938 l 2.40625,-12.625 c 0.15228,-0.805 -0.209942,-1.5982 -0.84375,-2.0312 0.3125,-1.7188 -0.0039,-7e-4 0.3125,-1.7188 0.223993,-1.2162 0.375,-2.4449 0.375,-3.7187 0,-11.1763 -9.105133,-20.2813 -20.28125,-20.2813 z" baseline-shift="baseline" color="#000" direction="ltr" display="inline" enable-background="accumulate" font-family="Sans" font-size="medium" font-stretch="normal" font-style="normal" font-variant="normal" font-weight="normal" letter-spacing="normal" overflow="visible" text-anchor="start" text-decoration="none" visibility="visible" word-spacing="normal" writing-mode="lr-tb" style="text-indent:0;text-align:start;line-height:normal;text-transform:none;block-progression:tb;marker:none;-inkscape-font-specification:Sans"/></g></svg>