<svg xmlns="http://www.w3.org/2000/svg" xmlns:svg="http://www.w3.org/2000/svg" id="svg2" width="32" height="36" version="1.1"><metadata id="metadata7"/><g id="g3923" display="inline" transform="translate(0,-1016.3622)"><g id="g3785" fill="#888" fill-opacity="1" transform="matrix(0.580304,0.26552477,-0.26552477,0.580304,273.32209,435.11622)"><path id="path2994" fill="#888" fill-opacity="1" fill-rule="nonzero" stroke="none" d="m 18,1000.1524 c -4.336479,0 -7.84375,3.5072 -7.84375,7.8437 0,1.8238 0.613137,3.5109 1.65625,4.8438 l 12.375,0 c 1.043113,-1.3329 1.65625,-3.02 1.65625,-4.8438 0,-4.3365 -3.507271,-7.8437 -7.84375,-7.8437 z"/><path id="path3024" fill="#888" fill-opacity="1" fill-rule="nonzero" stroke="none" d="m 12.53125,1013.9247 2.21875,33.7813 6.5,0 2.21875,-33.7813 -10.9375,0 z M 18,1017.5497 c 0.829921,0 1.5,0.669 1.5,1.5 l 0,5.0313 c 0,0.831 -0.670079,1.5 -1.5,1.5 -0.829921,0 -1.5,-0.669 -1.5,-1.5 l 0,-5.0313 c 0,-0.831 0.670079,-1.5 1.5,-1.5 z" display="inline"/></g><g id="text2988" fill="#888" fill-opacity=".941" stroke="none" font-family="Times New Roman" font-size="28" font-style="normal" font-weight="normal" letter-spacing="0" word-spacing="0" style="line-height:125%;-inkscape-font-specification:Times New Roman"><path id="path5009" fill="#888" fill-opacity="1" d="m 25.043993,1037.3422 c -0.336007,0.4293 -0.68134,0.8867 -1.035999,1.372 -0.354672,0.4853 -0.709338,0.9987 -1.063999,1.54 -0.336005,0.5227 -0.662671,1.0547 -0.979999,1.596 -0.317337,0.5413 -0.597337,1.0733 -0.839999,1.596 l 3.919996,0 0,-6.104 m 3.443997,-4.312 0,10.416 1.875998,0 0,2.828 -1.875998,0 0,4.088 -3.443997,0 0,-4.088 -7.223993,0 0,-2.52 c 0.354666,-0.728 0.811998,-1.5493 1.371999,-2.464 0.559997,-0.9333 1.175996,-1.8853 1.847998,-2.856 0.671995,-0.9707 1.381327,-1.9227 2.127998,-2.856 0.746659,-0.952 1.493325,-1.8013 2.239998,-2.548 l 3.079997,0" font-family="Ubuntu Mono" font-stretch="normal" font-variant="normal" font-weight="bold" style="-inkscape-font-specification:Ubuntu Mono Bold"/></g></g></svg>