<svg xmlns="http://www.w3.org/2000/svg" xmlns:svg="http://www.w3.org/2000/svg" id="svg2" width="56" height="56" version="1.1"><metadata id="metadata7"/><g id="g3923" display="inline" transform="translate(0,-996.3622)"><path id="path3925" fill="#777" fill-opacity="1" stroke="none" stroke-width=".5" d="M 28 7.71875 C 16.823882 7.71875 7.71875 16.8237 7.71875 28 C 7.71875 29.2779 7.8353444 30.50725 8.0625 31.71875 L 8.375 33.40625 C 7.6904782 33.826728 7.2788663 34.6301 7.4375 35.46875 L 9.84375 48.09375 C 10.049156 49.179673 11.070327 49.892906 12.15625 49.6875 L 16.65625 48.84375 C 17.742173 48.638344 18.455406 47.585923 18.25 46.5 L 15.84375 33.875 C 15.638344 32.789077 14.617173 32.075844 13.53125 32.28125 L 12.75 32.4375 L 12.46875 30.90625 L 12.40625 30.625 L 12.46875 30.625 C 12.321281 29.7653 12.21875 28.9093 12.21875 28 C 12.21875 19.2562 19.256262 12.21875 28 12.21875 C 36.743738 12.21865 43.78125 19.2562 43.78125 28 C 43.78125 29.0064 43.676807 29.95805 43.5 30.90625 L 43.21875 32.4375 L 42.375 32.28125 C 41.289058 32.075844 40.23666 32.789077 40.03125 33.875 L 37.65625 46.5 C 37.45084 47.585923 38.132808 48.638344 39.21875 48.84375 L 43.71875 49.6875 C 44.804692 49.892906 45.82584 49.179673 46.03125 48.09375 L 48.4375 35.46875 C 48.58978 34.663705 48.258808 33.870614 47.625 33.4375 L 47.875 32.03125 L 47.84375 32.03125 L 47.90625 31.71875 C 48.134161 30.50325 48.28125 29.2738 48.28125 28 C 48.28125 16.8237 39.176117 7.71875 28 7.71875 z" baseline-shift="baseline" color="#000" direction="ltr" display="inline" enable-background="accumulate" font-family="Sans" font-size="medium" font-stretch="normal" font-style="normal" font-variant="normal" font-weight="normal" letter-spacing="normal" overflow="visible" text-anchor="start" text-decoration="none" transform="translate(0,996.3622)" visibility="visible" word-spacing="normal" writing-mode="lr-tb" style="text-indent:0;text-align:start;line-height:normal;text-transform:none;block-progression:tb;marker:none;-inkscape-font-specification:Sans"/></g></svg>