<svg xmlns="http://www.w3.org/2000/svg" xmlns:svg="http://www.w3.org/2000/svg" id="svg2" width="32" height="36" version="1.1"><metadata id="metadata7"/><g id="g3923" display="inline" transform="translate(0,-1016.3622)"><path id="rect3835" fill="#000" fill-opacity="1" fill-rule="nonzero" stroke="none" d="m 9.1803415,1019.2908 c -0.4388121,0 -0.7920793,0.3532 -0.7920793,0.792 l 0,7.5001 -3.3168336,0 0,10.4702 2.376239,4.7526 0,6.4851 4.7524784,0 0,-6.4851 2.376239,-4.7526 0,-10.4702 -3.316833,0 0,-7.5001 c 0,-0.4388 -0.353269,-0.792 -0.792081,-0.792 l -1.2871295,0 z"/><path id="path5009" fill="#000" fill-opacity="1" stroke="none" d="m 25.043993,1037.3422 c -0.336007,0.4293 -0.68134,0.8867 -1.035999,1.372 -0.354672,0.4853 -0.709338,0.9987 -1.063999,1.54 -0.336005,0.5227 -0.662671,1.0547 -0.979999,1.596 -0.317337,0.5413 -0.597337,1.0733 -0.839999,1.596 l 3.919996,0 0,-6.104 m 3.443997,-4.312 0,10.416 1.875998,0 0,2.828 -1.875998,0 0,4.088 -3.443997,0 0,-4.088 -7.223993,0 0,-2.52 c 0.354666,-0.728 0.811998,-1.5493 1.371999,-2.464 0.559997,-0.9333 1.175996,-1.8853 1.847998,-2.856 0.671995,-0.9707 1.381327,-1.9227 2.127998,-2.856 0.746659,-0.952 1.493325,-1.8013 2.239998,-2.548 l 3.079997,0" display="inline" font-family="Ubuntu Mono" font-size="28" font-stretch="normal" font-style="normal" font-variant="normal" font-weight="bold" letter-spacing="0" word-spacing="0" style="line-height:125%;-inkscape-font-specification:Ubuntu Mono Bold"/></g></svg>