<svg xmlns="http://www.w3.org/2000/svg" xmlns:svg="http://www.w3.org/2000/svg" id="svg2" width="48" height="48" version="1.1" viewBox="0 0 48 48"><metadata id="metadata12"/><g id="layer2"><g id="layer1-3" fill-rule="evenodd" opacity="1" transform="matrix(0.05269352,0,0,0.05273213,7.0048322,-14.498287)"><path id="path4417" fill="#888" fill-opacity="1" d="M 5 5 L 5 43 L 43 43 L 43 5 L 5 5 z M 24.03125 13.4375 C 29.857808 13.458517 34.583516 18.204692 34.5625 24.03125 C 34.541482 29.857808 29.794607 34.583516 23.96875 34.5625 C 18.142193 34.541483 13.416484 29.794608 13.4375 23.96875 C 13.458517 18.142193 18.204692 13.416484 24.03125 13.4375 z" color="#000" enable-background="accumulate" transform="matrix(18.977666,0,0,18.96377,-132.93536,274.94218)"/><path id="label-cutout" fill="#888" fill-opacity="1" d="m 322.69873,685.07273 c 24.8903,0.0953 44.98054,20.29791 44.88518,45.16997 -0.0635,24.87206 -20.31278,44.9476 -45.17127,44.8523 -24.89028,-0.0635 -45.01232,-20.2979 -44.91696,-45.1382 0.0954,-24.87205 20.31278,-44.97936 45.20305,-44.88407 z" color="#000" enable-background="accumulate"/><g id="g3755" fill="none" stroke="#bfbfbf" stroke-opacity="1"><path id="path4049" fill="none" stroke="#bfbfbf" stroke-dasharray="none" stroke-linecap="round" stroke-linejoin="round" stroke-miterlimit="4" stroke-opacity="1" stroke-width="4" d="M 5,43 43,5" transform="matrix(18.977666,0,0,18.96377,-132.93536,274.94218)"/><path id="path4049-7" fill="none" stroke="#bfbfbf" stroke-dasharray="none" stroke-linecap="round" stroke-linejoin="round" stroke-miterlimit="4" stroke-opacity="1" stroke-width="75.883" d="M 683.10426,1090.3843 -38.04703,369.76103"/></g></g></g></svg>