<svg xmlns="http://www.w3.org/2000/svg" xmlns:svg="http://www.w3.org/2000/svg" id="svg3769" width="18" height="18" version="1.1"><metadata id="metadata3774"/><g id="layer1" transform="translate(0,-1034.3622)"><path id="path3018" fill="#d2d2d2" fill-opacity="1" fill-rule="nonzero" stroke="none" d="m 8.9996967,1038.4441 -4.5715187,7.9181 9.143038,0 z"/><path id="path3056" fill="#d2d2d2" fill-opacity="1" fill-rule="nonzero" stroke="none" stroke-width="2" d="m 9,1052.3622 c 4.970563,0 9,-4.0294 9,-9 0,-4.9706 -4.029437,-9 -9,-9 -2.55716,0 -4.861527,1.0688 -6.5,2.7813 l 0,1.5625 c 1.45178,-2.0229 3.820122,-3.3438 6.5,-3.3438 4.418278,0 8,3.5817 8,8 0,4.4183 -3.581722,8 -8,8 -2.679878,0 -5.04822,-1.3209 -6.5,-3.3437 l 0,1.5625 c 1.638473,1.7124 3.94284,2.7812 6.5,2.7812 z" color="#000" display="inline" enable-background="accumulate" overflow="visible" visibility="visible" style="marker:none"/></g></svg>