<svg xmlns="http://www.w3.org/2000/svg" xmlns:svg="http://www.w3.org/2000/svg" id="svg2" width="56" height="56" version="1.1"><metadata id="metadata7"/><g id="g3923" display="inline" transform="translate(0,-996.3622)"><path id="path3925" fill="#d2d2d2" fill-opacity="1" stroke="none" stroke-width=".5" d="m 28,1004.081 c -11.176118,0 -20.28125,9.1049 -20.28125,20.2812 0,1.2779 0.1165944,2.5073 0.34375,3.7188 l 2,10.6875 1,5.0937 4.40625,-0.8437 -0.96875,-5.0625 -2.03125,-10.6875 -0.0625,-0.2813 0.0625,0 c -0.147469,-0.8597 -0.25,-1.7157 -0.25,-2.625 0,-8.7438 7.037512,-15.7812 15.78125,-15.7812 8.743738,-10e-5 15.78125,7.0374 15.78125,15.7812 0,1.0064 -0.104443,1.9581 -0.28125,2.9063 l -2,10.6875 -0.96875,5.0937 4.40625,0.8125 1,-5.0937 1.9375,-10.375 -0.03125,0 0.0625,-0.3125 c 0.227911,-1.2155 0.375,-2.445 0.375,-3.7188 0,-11.1763 -9.105133,-20.2812 -20.28125,-20.2812 z" baseline-shift="baseline" color="#000" direction="ltr" display="inline" enable-background="accumulate" font-family="Sans" font-size="medium" font-stretch="normal" font-style="normal" font-variant="normal" font-weight="normal" letter-spacing="normal" overflow="visible" text-anchor="start" text-decoration="none" visibility="visible" word-spacing="normal" writing-mode="lr-tb" style="text-indent:0;text-align:start;line-height:normal;text-transform:none;block-progression:tb;marker:none;-inkscape-font-specification:Sans"/><rect id="rect3927" width="8.55" height="16.862" x="-184.454" y="1013.228" fill="#d2d2d2" fill-opacity="1" fill-rule="nonzero" stroke="none" rx="1.995" ry="1.995" transform="matrix(0.98257665,-0.18585783,0.18585783,0.98257665,0,0)"/><rect id="rect3929" width="8.55" height="16.862" x="-239.367" y="1002.843" fill="#d2d2d2" fill-opacity="1" fill-rule="nonzero" stroke="none" rx="1.995" ry="1.995" transform="matrix(-0.98257725,-0.18585464,-0.18586102,0.98257604,0,0)"/></g></svg>