<svg xmlns="http://www.w3.org/2000/svg" xmlns:svg="http://www.w3.org/2000/svg" id="svg2" width="200" height="100" version="1.1"><metadata id="metadata12"/><rect id="rect4137" width="181.726" height="80.61" x="9.137" y="9.695" fill="#333" fill-opacity="1" stroke="none" stroke-dasharray="none" stroke-linecap="round" stroke-miterlimit="4" stroke-opacity="1" stroke-width="1" opacity="1" rx="1.407" ry="2.484"/><path id="path4205" fill="#d2d2d2" fill-opacity="1" stroke="none" stroke-dasharray="none" stroke-linecap="round" stroke-miterlimit="4" stroke-opacity="1" stroke-width="1" d="M 22.273438 22.273438 L 22.273438 77.726562 L 177.72656 77.726562 L 177.72656 22.273438 L 22.273438 22.273438 z M 42.5 35 L 157.5 35 L 157.5 65 L 42.5 65 L 42.5 35 z" opacity="1"/><rect id="rect4151" width="100" height="15" x="50" y="42.5" fill="#489aff" fill-opacity="1" stroke="none" stroke-dasharray="none" stroke-linecap="round" stroke-miterlimit="4" stroke-opacity="1" stroke-width="1" opacity="1"/><path id="rect4194" fill="#d2d2d2" fill-opacity="1" stroke="none" stroke-dasharray="none" stroke-linecap="round" stroke-miterlimit="4" stroke-opacity="1" stroke-width="1" d="M 20 0 C 8.92 0 0 8.92 0 20 L 0 80 C 0 91.08 8.92 100 20 100 L 180 100 C 191.08 100 200 91.08 200 80 L 200 20 C 200 8.92 191.08 0 180 0 L 20 0 z M 20 12.021484 L 180 12.021484 C 184.6284 12.021484 187.97852 15.371605 187.97852 20 L 187.97852 80 C 187.97852 84.628395 184.6284 87.978516 180 87.978516 L 20 87.978516 C 15.371605 87.978516 12.021484 84.628395 12.021484 80 L 12.021484 20 C 12.021484 15.371605 15.371605 12.021484 20 12.021484 z" opacity="1"/></svg>