<svg xmlns="http://www.w3.org/2000/svg" xmlns:svg="http://www.w3.org/2000/svg" id="svg2" width="100" height="200" version="1.1"><metadata id="metadata12"/><rect id="rect4138" width="83.475" height="183.475" x="8.263" y="8.263" fill="#333" fill-opacity="1" stroke="none" stroke-dasharray="none" stroke-linecap="round" stroke-miterlimit="4" stroke-opacity="1" stroke-width="1" opacity="1" rx="2.41" ry="7.318"/><g id="g5260" transform="matrix(0,1,-1,0,54.237288,-177.11865)"><path id="path4205" fill="#d2d2d2" fill-opacity="1" stroke="none" stroke-dasharray="none" stroke-linecap="round" stroke-miterlimit="4" stroke-opacity="1" stroke-width="1" d="m 199.39208,-23.489274 0,55.453124 155.45313,0 0,-55.453124 -155.45313,0 z m 20.22656,12.726562 115.00001,0 0,30 -115.00001,0 0,-30 z" opacity="1"/><rect id="rect4151" width="100" height="15" x="227.119" y="-3.263" fill="#489aff" fill-opacity="1" stroke="none" stroke-dasharray="none" stroke-linecap="round" stroke-miterlimit="4" stroke-opacity="1" stroke-width="1" opacity="1"/><path id="rect4194" fill="#d2d2d2" fill-opacity="1" stroke="none" stroke-dasharray="none" stroke-linecap="round" stroke-miterlimit="4" stroke-opacity="1" stroke-width="1" d="m 197.11864,-45.762712 c -11.08,0 -20,8.92 -20,20 l 0,60 c 0,11.08 8.92,20 20,20 l 160.00001,0 c 11.08,0 20,-8.92 20,-20 l 0,-60 c 0,-11.08 -8.92,-20 -20,-20 l -160.00001,0 z m 0,12.021484 160.00001,0 c 4.6284,0 7.97852,3.350121 7.97852,7.978516 l 0,60 c 0,4.628395 -3.35012,7.978516 -7.97852,7.978516 l -160.00001,0 c -4.62839,0 -7.97851,-3.350121 -7.97851,-7.978516 l 0,-60 c 0,-4.628395 3.35012,-7.978516 7.97851,-7.978516 z" opacity="1"/></g></svg>