<svg xmlns="http://www.w3.org/2000/svg" xmlns:svg="http://www.w3.org/2000/svg" id="svg2" width="20" height="20" version="1.1"><metadata id="metadata12"/><path id="path4176" fill="#d2d2d2" fill-opacity="1" stroke="none" stroke-dasharray="none" stroke-linecap="round" stroke-miterlimit="4" stroke-opacity="1" stroke-width="1" d="M 10.085938 1 A 9 9 0 0 0 1.0859375 10 A 9 9 0 0 0 10.085938 19 A 9 9 0 0 0 18.097656 14.076172 C 17.979327 14.086974 17.86472 14.113281 17.744141 14.113281 L 10.083984 14.113281 C 7.8562041 14.113281 5.9707031 12.227779 5.9707031 10 C 5.9707031 7.7722209 7.8562051 5.8867188 10.083984 5.8867188 L 17.744141 5.8867188 C 17.868742 5.8867188 17.987185 5.9142546 18.109375 5.9257812 A 9 9 0 0 0 10.085938 1 z" opacity="1"/><rect id="rect4168" width="2.34" height="10" x="8.83" y="-18.915" fill="#d2d2d2" fill-opacity="1" stroke="none" stroke-dasharray="none" stroke-linecap="round" stroke-miterlimit="4" stroke-opacity="1" stroke-width="1" opacity="1" ry="1.17" transform="matrix(0,1,-1,0,0,0)"/></svg>