<svg xmlns="http://www.w3.org/2000/svg" xmlns:svg="http://www.w3.org/2000/svg" xmlns:xlink="http://www.w3.org/1999/xlink" id="svg2" width="40" height="34" version="1.1"><defs id="defs4"><linearGradient id="linearGradient5441"><stop id="stop5443" offset="0" stop-color="#060606" stop-opacity="1"/><stop id="stop5445" offset="1" stop-color="#343434" stop-opacity="1"/></linearGradient><linearGradient id="linearGradient3839" x1="256.74" x2="484.712" y1="472.03" y2="472.03" gradientTransform="matrix(0.10675958,0,0,0.1067605,-60.001687,-36.030994)" gradientUnits="userSpaceOnUse" xlink:href="#linearGradient5441"/><linearGradient id="linearGradient4945" x1="202.504" x2="202.488" y1="618.506" y2="634.365" gradientTransform="matrix(1.257316,0,0,1,-234.59421,-615.28453)" gradientUnits="userSpaceOnUse" xlink:href="#linearGradient4937"/><linearGradient id="linearGradient4937"><stop id="stop4939" offset="0" stop-color="#fff" stop-opacity="1"/><stop id="stop4185" offset=".254" stop-color="#c8c8c8" stop-opacity="1"/><stop id="stop4941" offset="1" stop-color="#afafaf" stop-opacity="1"/></linearGradient></defs><metadata id="metadata7"/><ellipse id="path4202" cx="-13.524" cy=".458" fill="#000" fill-opacity="1" fill-rule="evenodd" stroke="none" stroke-dasharray="none" stroke-miterlimit="4" stroke-width="0" color="#000" display="inline" enable-background="accumulate" opacity="0" overflow="visible" rx="2.588" ry="2.49" visibility="visible" style="marker:none"/><path id="path4256" fill="#d2d2d2" fill-opacity="1" stroke="none" stroke-dasharray="none" stroke-linecap="round" stroke-miterlimit="4" stroke-opacity="1" stroke-width="1" d="M 16.15039,7.7363283 A 11.539,11.539 0 0 0 8.460938,18.601562 11.539,11.539 0 0 0 20.000001,30.140625 11.539,11.539 0 0 0 31.539063,18.601562 11.539,11.539 0 0 0 23.84961,7.7382814 l 0,10.8632806 c 0,2.091956 -1.757654,3.84961 -3.849609,3.84961 -2.091956,0 -3.849611,-1.757654 -3.849611,-3.84961 l 0,-10.8652337 z" opacity="1"/><rect id="rect4263" width="3" height="14" x="18.5" y="6.102" fill="#d6e20e" fill-opacity="1" stroke="none" stroke-dasharray="none" stroke-linecap="round" stroke-miterlimit="4" stroke-opacity="1" stroke-width="1" opacity="1" ry="1.5"/></svg>