<svg xmlns="http://www.w3.org/2000/svg" xmlns:cc="http://web.resource.org/cc/" xmlns:svg="http://www.w3.org/2000/svg" xmlns:xlink="http://www.w3.org/1999/xlink" id="svg2913" width="48" height="48"><defs id="defs3"><linearGradient id="linearGradient2555"><stop id="stop2557" offset="0" stop-color="#fff" stop-opacity="1"/><stop id="stop2561" offset=".5" stop-color="#e6e6e6" stop-opacity="1"/><stop id="stop2563" offset=".75" stop-color="#fff" stop-opacity="1"/><stop id="stop2565" offset=".842" stop-color="#e1e1e1" stop-opacity="1"/><stop id="stop2559" offset="1" stop-color="#fff" stop-opacity="1"/></linearGradient><linearGradient id="linearGradient4274"><stop id="stop4276" offset="0" stop-color="#fff" stop-opacity=".255"/><stop id="stop4278" offset="1" stop-color="#fff" stop-opacity="1"/></linearGradient><linearGradient id="linearGradient4264"><stop id="stop4266" offset="0" stop-color="#000" stop-opacity="1"/><stop id="stop4268" offset="1" stop-color="#000" stop-opacity="0"/></linearGradient><linearGradient id="linearGradient4254"><stop id="stop4256" offset="0" stop-color="#fff" stop-opacity="1"/><stop id="stop4258" offset="1" stop-color="#fff" stop-opacity="0"/></linearGradient><linearGradient id="linearGradient4244"><stop id="stop4246" offset="0" stop-color="#e4e4e4" stop-opacity="1"/><stop id="stop4248" offset="1" stop-color="#d3d3d3" stop-opacity="1"/></linearGradient><linearGradient id="linearGradient4236"><stop id="stop4238" offset="0" stop-color="#eee" stop-opacity="1"/><stop id="stop4240" offset="1" stop-color="#eee" stop-opacity="0"/></linearGradient><linearGradient id="linearGradient4228"><stop id="stop4230" offset="0" stop-color="#bbb" stop-opacity="1"/><stop id="stop4232" offset="1" stop-color="#9f9f9f" stop-opacity="1"/></linearGradient><linearGradient id="linearGradient4184"><stop id="stop4186" offset="0" stop-color="#838383" stop-opacity="1"/><stop id="stop4188" offset="1" stop-color="#bbb" stop-opacity="0"/></linearGradient><linearGradient id="linearGradient4209" x1="7.063" x2="24.688" y1="35.281" y2="35.281" gradientTransform="translate(0.795493,-1.325821)" gradientUnits="userSpaceOnUse" xlink:href="#linearGradient4184"/><linearGradient id="linearGradient4234" x1="7.605" x2="36.183" y1="28.481" y2="40.944" gradientUnits="userSpaceOnUse" xlink:href="#linearGradient4228"/><linearGradient id="linearGradient4242" x1="12.277" x2="12.222" y1="37.206" y2="33.759" gradientUnits="userSpaceOnUse" xlink:href="#linearGradient4236"/><radialGradient id="radialGradient4250" cx="15.571" cy="2.959" r="20.936" fx="15.571" fy="2.959" gradientTransform="matrix(1.286242,0.781698,-0.710782,1.169552,-2.354348,-4.876862)" gradientUnits="userSpaceOnUse" xlink:href="#linearGradient4244"/><linearGradient id="linearGradient4260" x1="12.378" x2="44.096" y1="4.433" y2="47.621" gradientUnits="userSpaceOnUse" xlink:href="#linearGradient4254"/><radialGradient id="radialGradient4270" cx="23.202" cy="27.096" r="23.555" fx="23.202" fy="27.096" gradientTransform="matrix(1.000000,0.000000,0.000000,0.651032,0.000000,9.455693)" gradientUnits="userSpaceOnUse" xlink:href="#linearGradient4264"/><linearGradient id="linearGradient4272" x1="23.688" x2="23.688" y1="11.319" y2="26.357" gradientUnits="userSpaceOnUse" xlink:href="#linearGradient4274"/><linearGradient id="linearGradient2553" x1="33.431" x2="21.748" y1="31.965" y2="11.781" gradientUnits="userSpaceOnUse" xlink:href="#linearGradient2555"/></defs><metadata id="metadata4"/><g id="layer2"><path id="path4262" fill="url(#radialGradient4270)" fill-opacity="1" fill-rule="evenodd" stroke="none" stroke-dasharray="none" stroke-dashoffset="0" stroke-linecap="round" stroke-linejoin="round" stroke-miterlimit="4" stroke-opacity="1" stroke-width="1" marker-end="none" marker-mid="none" marker-start="none" d="M 46.757435 27.096155 A 23.555494 15.335379 0 1 1 -0.35355377,27.096155 A 23.555494 15.335379 0 1 1 46.757435 27.096155 z" color="#000" display="inline" opacity=".56" overflow="visible" transform="matrix(1.052533,0.000000,0.000000,0.363113,-0.511757,26.86986)" visibility="visible" style="marker:none"/><path id="path4196" fill="none" fill-opacity="1" fill-rule="evenodd" stroke="#535353" stroke-dasharray="none" stroke-linecap="round" stroke-linejoin="round" stroke-miterlimit="4" stroke-opacity="1" stroke-width="2" d="M 11.285690,7.9626278 C 10.660690,7.9626278 10.254441,8.2528080 10.004442,8.8063808 C 10.004441,8.8063808 3.5356915,25.909938 3.5356915,25.909938 C 3.5356915,25.909938 3.2856915,26.581497 3.2856915,27.691188 C 3.2856915,27.691188 3.2856915,37.341156 3.2856915,37.341156 C 3.2856915,38.423769 3.9434770,38.966158 4.9419415,38.966156 L 43.504440,38.966156 C 44.489293,38.966156 45.098190,38.247976 45.098190,37.122406 L 45.098190,27.472438 C 45.098190,27.472438 45.204153,26.702015 45.004440,26.159938 L 38.285690,8.9626314 C 38.101165,8.4507246 37.648785,7.9745331 37.160690,7.9626278 L 11.285690,7.9626278 z"/><path id="path4170" fill="url(#linearGradient4234)" fill-opacity="1" fill-rule="evenodd" stroke="none" stroke-linecap="butt" stroke-linejoin="miter" stroke-opacity="1" stroke-width="1.02" d="M 3.2735915,26.996812 L 4.0381936,26.304597 L 41.647883,26.367097 L 45.110290,26.684395 L 45.110290,37.122927 C 45.110290,38.248496 44.503272,38.966258 43.518419,38.966258 L 4.9354314,38.966258 C 3.9369667,38.966258 3.2735915,38.424207 3.2735915,37.341594 L 3.2735915,26.996812 z"/><path id="path3093" fill="url(#radialGradient4250)" fill-opacity="1" fill-rule="evenodd" stroke="none" stroke-linecap="butt" stroke-linejoin="miter" stroke-opacity="1" stroke-width="1" d="M 3.5490842,25.914404 C 2.8347985,27.378690 3.5484686,28.307261 4.5847985,28.307261 C 4.5847985,28.307261 43.584797,28.307261 43.584797,28.307261 C 44.703844,28.283451 45.430035,27.295356 45.013368,26.164403 L 38.299082,8.9537044 C 38.114558,8.4417976 37.644320,7.9656058 37.156225,7.9537008 L 11.299083,7.9537008 C 10.674083,7.9537008 10.263369,8.2572740 10.013370,8.8108468 C 10.013370,8.8108468 3.5490842,25.914404 3.5490842,25.914404 z"/><rect stroke-linejoin="round" style="marker:none" id="rect4174" width="17.625" height="5.563" x="7.858" y="31.174" fill="url(#linearGradient4209)" fill-opacity="1" fill-rule="evenodd" stroke="none" stroke-dasharray="none" stroke-dashoffset="0" stroke-linecap="round" stroke-miterlimit="4" stroke-opacity="1" stroke-width="2.409" marker-end="none" marker-mid="none" marker-start="none" color="#000" display="inline" opacity="1" overflow="visible" visibility="visible"/><path id="path4194" fill="url(#linearGradient4242)" fill-opacity="1" fill-rule="evenodd" stroke="none" stroke-linecap="butt" stroke-linejoin="miter" stroke-opacity="1" stroke-width="1" d="M 7.8579947,36.736680 C 7.8579947,36.736680 7.8579947,32.725195 7.8579947,32.725195 C 9.6935221,35.904421 16.154485,36.736680 20.795492,36.736680 C 20.795492,36.736680 7.8579947,36.736680 7.8579947,36.736680 z" opacity=".811"/><path id="path4201" fill="#fff" fill-opacity="1" fill-rule="evenodd" stroke="none" stroke-linecap="butt" stroke-linejoin="miter" stroke-opacity="1" stroke-width="1" d="M 44.796162,25.628688 C 44.859684,26.878662 44.382159,27.944528 43.474046,27.972438 C 43.474046,27.972438 5.3553296,27.972437 5.3553297,27.972438 C 4.0660978,27.972438 3.4875937,27.647491 3.2712790,27.104382 C 3.3630404,28.048714 4.0970964,28.753688 5.3553297,28.753688 C 5.3553296,28.753687 43.474046,28.753688 43.474046,28.753688 C 44.550053,28.720617 45.226851,27.329664 44.826210,25.758897 L 44.796162,25.628688 z"/><path stroke-width="2" style="marker:none" id="path4211" fill="url(#linearGradient4272)" fill-opacity="1" fill-rule="evenodd" stroke="none" stroke-dasharray="none" stroke-dashoffset="0" stroke-linecap="round" stroke-linejoin="round" stroke-miterlimit="4" stroke-opacity="1" marker-end="none" marker-mid="none" marker-start="none" d="M 10.968750 10.156250 C 10.922675 10.356571 10.781250 10.543047 10.781250 10.750000 C 10.781250 11.698605 11.372230 12.539474 12.125000 13.343750 C 12.365268 13.189675 12.490117 12.989342 12.750000 12.843750 C 11.809691 12.027746 11.196604 11.127168 10.968750 10.156250 z M 37.625000 10.156250 C 37.396273 11.125866 36.782988 12.028676 35.843750 12.843750 C 36.117894 12.997332 36.247738 13.211990 36.500000 13.375000 C 37.257262 12.568344 37.812500 11.701956 37.812500 10.750000 C 37.812500 10.543047 37.670906 10.356571 37.625000 10.156250 z M 39.812500 18.593750 C 39.198709 22.633861 32.513887 25.843750 24.281250 25.843750 C 16.068996 25.843751 9.4211001 22.650964 8.7812500 18.625000 C 8.7488928 18.822132 8.6562500 19.016882 8.6562500 19.218750 C 8.6562503 23.536697 15.645354 27.062501 24.281250 27.062500 C 32.917146 27.062500 39.937499 23.536698 39.937500 19.218750 C 39.937500 19.005826 39.848449 18.801394 39.812500 18.593750 z" color="#000" display="inline" opacity=".691" overflow="visible" visibility="visible"/><path id="path4224" fill="#fff" fill-opacity=".458" fill-rule="evenodd" stroke="none" stroke-dasharray="none" stroke-dashoffset="0" stroke-linecap="round" stroke-linejoin="round" stroke-miterlimit="4" stroke-opacity="1" stroke-width="2" marker-end="none" marker-mid="none" marker-start="none" d="M 8.5736699 25.593554 A 1.3700194 1.0164660 0 1 1 5.8336310,25.593554 A 1.3700194 1.0164660 0 1 1 8.5736699 25.593554 z" color="#000" display="inline" opacity="1" overflow="visible" transform="translate(8.838843e-2,0.176776)" visibility="visible" style="marker:none"/><path id="path4226" fill="#fff" fill-opacity=".458" fill-rule="evenodd" stroke="none" stroke-dasharray="none" stroke-dashoffset="0" stroke-linecap="round" stroke-linejoin="round" stroke-miterlimit="4" stroke-opacity="1" stroke-width="2" marker-end="none" marker-mid="none" marker-start="none" d="M 8.5736699 25.593554 A 1.3700194 1.0164660 0 1 1 5.8336310,25.593554 A 1.3700194 1.0164660 0 1 1 8.5736699 25.593554 z" color="#000" display="inline" opacity="1" overflow="visible" transform="translate(33.96705,8.838804e-2)" visibility="visible" style="marker:none"/><path id="path4252" fill="none" fill-opacity="1" fill-rule="evenodd" stroke="url(#linearGradient4260)" stroke-dasharray="none" stroke-linecap="round" stroke-linejoin="round" stroke-miterlimit="4" stroke-opacity="1" stroke-width="1" d="M 11.642515,8.4157227 C 11.040823,8.4157227 10.649724,8.6950813 10.409049,9.2280100 C 10.409048,9.2280100 3.9940341,25.818732 3.9940341,25.818732 C 3.9940341,25.818732 3.7533573,26.465247 3.7533573,27.533555 C 3.7533573,27.533555 3.7533573,36.823651 3.7533573,36.823651 C 3.7533573,38.178391 4.1974134,38.450550 5.3478414,38.450550 L 43.034746,38.450550 C 44.357872,38.450550 44.569062,38.134153 44.569062,36.613058 L 44.569062,27.322962 C 44.569062,27.322962 44.671072,26.581271 44.478807,26.059409 L 37.885616,9.2534336 C 37.707973,8.7606171 37.334964,8.4271840 36.865071,8.4157227 L 11.642515,8.4157227 z"/><path id="path4282" fill="none" fill-opacity=".75" fill-rule="evenodd" stroke="#fff" stroke-linecap="square" stroke-linejoin="miter" stroke-opacity=".424" stroke-width="1" d="M 40.500000,31.429166 L 40.500000,36.450101"/><path id="path4284" fill="none" fill-opacity=".75" fill-rule="evenodd" stroke="#fff" stroke-linecap="square" stroke-linejoin="miter" stroke-opacity=".424" stroke-width="1" d="M 38.500000,31.488943 L 38.500000,36.509878"/><path id="path4286" fill="none" fill-opacity=".75" fill-rule="evenodd" stroke="#fff" stroke-linecap="square" stroke-linejoin="miter" stroke-opacity=".424" stroke-width="1" d="M 36.500000,31.488943 L 36.500000,36.509878"/><path id="path4288" fill="none" fill-opacity=".75" fill-rule="evenodd" stroke="#fff" stroke-linecap="square" stroke-linejoin="miter" stroke-opacity=".424" stroke-width="1" d="M 34.500000,31.488943 L 34.500000,36.509878"/><path id="path4290" fill="none" fill-opacity=".75" fill-rule="evenodd" stroke="#fff" stroke-linecap="square" stroke-linejoin="miter" stroke-opacity=".424" stroke-width="1" d="M 32.500000,31.488943 L 32.500000,36.509878"/><path id="path4292" fill="none" fill-opacity=".75" fill-rule="evenodd" stroke="#fff" stroke-linecap="square" stroke-linejoin="miter" stroke-opacity=".424" stroke-width="1" d="M 30.500000,31.488943 L 30.500000,36.509878"/><path id="path4294" fill="none" fill-opacity=".75" fill-rule="evenodd" stroke="#000" stroke-linecap="square" stroke-linejoin="miter" stroke-opacity="1" stroke-width="1" d="M 39.500000,31.479065 L 39.500000,36.500000" opacity=".097"/><path id="path4296" fill="none" fill-opacity=".75" fill-rule="evenodd" stroke="#000" stroke-linecap="square" stroke-linejoin="miter" stroke-opacity="1" stroke-width="1" d="M 37.500000,31.538842 L 37.500000,36.559777" opacity=".097"/><path id="path4298" fill="none" fill-opacity=".75" fill-rule="evenodd" stroke="#000" stroke-linecap="square" stroke-linejoin="miter" stroke-opacity="1" stroke-width="1" d="M 35.500000,31.538842 L 35.500000,36.559777" opacity=".097"/><path id="path4300" fill="none" fill-opacity=".75" fill-rule="evenodd" stroke="#000" stroke-linecap="square" stroke-linejoin="miter" stroke-opacity="1" stroke-width="1" d="M 33.500000,31.538842 L 33.500000,36.559777" opacity=".097"/><path id="path4302" fill="none" fill-opacity=".75" fill-rule="evenodd" stroke="#000" stroke-linecap="square" stroke-linejoin="miter" stroke-opacity="1" stroke-width="1" d="M 31.500000,31.538842 L 31.500000,36.559777" opacity=".097"/><path id="path4572" fill="#fff" fill-opacity="1" fill-rule="evenodd" stroke="none" stroke-linecap="butt" stroke-linejoin="miter" stroke-opacity="1" stroke-width="1" d="M 7.8750000,31.187500 L 7.8750000,36.718750 L 20.437500,36.718750 L 8.2187500,36.375000 L 7.8750000,31.187500 z" opacity=".44"/><path id="path2545" fill="url(#linearGradient2553)" fill-opacity="1" fill-rule="evenodd" stroke="none" stroke-dasharray="none" stroke-dashoffset="0" stroke-linecap="square" stroke-linejoin="round" stroke-miterlimit="4" stroke-opacity=".424" stroke-width=".934" marker-end="none" marker-mid="none" marker-start="none" d="M 39.875000 19.562500 A 14.875000 6.6875000 0 1 1 10.125000,19.562500 A 14.875000 6.6875000 0 1 1 39.875000 19.562500 z" color="#000" display="inline" opacity=".206" overflow="visible" transform="matrix(1.037815,0.000000,0.000000,1.060747,-1.632878,-2.094626)" visibility="visible" style="marker:none"/></g></svg>