<svg xmlns="http://www.w3.org/2000/svg" xmlns:cc="http://web.resource.org/cc/" xmlns:svg="http://www.w3.org/2000/svg" xmlns:xlink="http://www.w3.org/1999/xlink" id="svg2" width="48" height="48" version="1.0"><defs id="defs4"><linearGradient id="linearGradient13938"><stop id="stop13940" offset="0" stop-color="#000" stop-opacity="1"/><stop id="stop13942" offset="1" stop-color="#000" stop-opacity="0"/></linearGradient><pattern id="pattern9067" patternTransform="matrix(1.8193364,0,0,1.8193364,6.1875005,6.2382812)" xlink:href="#pattern9048"/><linearGradient id="linearGradient8021"><stop id="stop8023" offset="0" stop-color="#2e3436" stop-opacity="1"/><stop id="stop8025" offset="1" stop-color="#000" stop-opacity="1"/></linearGradient><linearGradient id="linearGradient8003"><stop id="stop8005" offset="0" stop-color="#000" stop-opacity="1"/><stop id="stop8007" offset="1" stop-color="#888a85" stop-opacity="1"/></linearGradient><linearGradient id="linearGradient6045"><stop id="stop6047" offset="0" stop-color="#2e3436" stop-opacity="1"/><stop id="stop7993" offset="1" stop-color="#5d5d5d" stop-opacity="1"/></linearGradient><linearGradient id="linearGradient6051" x1="143.601" x2="366.795" y1="106.309" y2="499.89" gradientUnits="userSpaceOnUse" xlink:href="#linearGradient8021"/><pattern id="pattern9048" width="19.07" height="19.07" patternTransform="translate(-34.046875,-0.890625)" patternUnits="userSpaceOnUse"><g id="g8065" transform="translate(34.046875,0.890625)"><path id="path8039" fill="none" fill-opacity="1" stroke="#373730" stroke-dasharray="none" stroke-linecap="round" stroke-linejoin="round" stroke-miterlimit="4" stroke-opacity="1" stroke-width=".1" d="M -15.039062 8.6445312 A 9.4726562 9.4726562 0 1 1 -33.984375,8.6445313 A 9.4726562 9.4726562 0 1 1 -15.039062 8.6445312 z" opacity="1"/><path id="path8043" fill="none" fill-opacity="1" stroke="#373730" stroke-dasharray="none" stroke-linecap="round" stroke-linejoin="round" stroke-miterlimit="4" stroke-opacity="1" stroke-width=".1" d="M -15.039062 8.6445312 A 9.4726562 9.4726562 0 1 1 -33.984375,8.6445313 A 9.4726562 9.4726562 0 1 1 -15.039062 8.6445312 z" opacity="1" transform="matrix(0.9487915,0,0,0.9487915,-1.2552089,0.4426737)"/><path id="path8045" fill="none" fill-opacity="1" stroke="#373730" stroke-dasharray="none" stroke-linecap="round" stroke-linejoin="round" stroke-miterlimit="4" stroke-opacity="1" stroke-width=".1" d="M -15.039062 8.6445312 A 9.4726562 9.4726562 0 1 1 -33.984375,8.6445313 A 9.4726562 9.4726562 0 1 1 -15.039062 8.6445312 z" opacity="1" transform="matrix(0.8976011,0,0,0.8976011,-2.5099739,0.8851908)"/><path id="path8047" fill="none" fill-opacity="1" stroke="#373730" stroke-dasharray="none" stroke-linecap="round" stroke-linejoin="round" stroke-miterlimit="4" stroke-opacity="1" stroke-width=".1" d="M -15.039062 8.6445312 A 9.4726562 9.4726562 0 1 1 -33.984375,8.6445313 A 9.4726562 9.4726562 0 1 1 -15.039062 8.6445312 z" opacity="1" transform="matrix(0.8464308,0,0,0.8464308,-3.7642449,1.3275337)"/><path id="path8049" fill="none" fill-opacity="1" stroke="#373730" stroke-dasharray="none" stroke-linecap="round" stroke-linejoin="round" stroke-miterlimit="4" stroke-opacity="1" stroke-width=".1" d="M -15.039062 8.6445312 A 9.4726562 9.4726562 0 1 1 -33.984375,8.6445313 A 9.4726562 9.4726562 0 1 1 -15.039062 8.6445312 z" opacity="1" transform="matrix(0.7952831,0,0,0.7952831,-5.0179628,1.7696815)"/><path id="path8051" fill="none" fill-opacity="1" stroke="#373730" stroke-dasharray="none" stroke-linecap="round" stroke-linejoin="round" stroke-miterlimit="4" stroke-opacity="1" stroke-width=".1" d="M -15.039062 8.6445312 A 9.4726562 9.4726562 0 1 1 -33.984375,8.6445313 A 9.4726562 9.4726562 0 1 1 -15.039062 8.6445312 z" opacity="1" transform="matrix(0.7441608,0,0,0.7441608,-6.2710574,2.2116095)"/><path id="path8053" fill="none" fill-opacity="1" stroke="#373730" stroke-dasharray="none" stroke-linecap="round" stroke-linejoin="round" stroke-miterlimit="4" stroke-opacity="1" stroke-width=".1" d="M -15.039062 8.6445312 A 9.4726562 9.4726562 0 1 1 -33.984375,8.6445313 A 9.4726562 9.4726562 0 1 1 -15.039062 8.6445312 z" opacity="1" transform="matrix(0.7441608,0,0,0.7441608,-6.2710574,2.2116095)"/><path id="path8055" fill="none" fill-opacity="1" stroke="#373730" stroke-dasharray="none" stroke-linecap="round" stroke-linejoin="round" stroke-miterlimit="4" stroke-opacity="1" stroke-width=".1" d="M -15.039062 8.6445312 A 9.4726562 9.4726562 0 1 1 -33.984375,8.6445313 A 9.4726562 9.4726562 0 1 1 -15.039062 8.6445312 z" opacity="1" transform="matrix(0.6828487,0,0,0.6828487,-7.7739214,2.7416235)"/><path id="path8057" fill="none" fill-opacity="1" stroke="#373730" stroke-dasharray="none" stroke-linecap="round" stroke-linejoin="round" stroke-miterlimit="4" stroke-opacity="1" stroke-width=".1" d="M -15.039062 8.6445312 A 9.4726562 9.4726562 0 1 1 -33.984375,8.6445313 A 9.4726562 9.4726562 0 1 1 -15.039062 8.6445312 z" opacity="1" transform="matrix(0.6113744,0,0,0.6113744,-9.5258803,3.3594856)"/><path id="path8059" fill="none" fill-opacity="1" stroke="#373730" stroke-dasharray="none" stroke-linecap="round" stroke-linejoin="round" stroke-miterlimit="4" stroke-opacity="1" stroke-width=".1" d="M -15.039062 8.6445312 A 9.4726562 9.4726562 0 1 1 -33.984375,8.6445313 A 9.4726562 9.4726562 0 1 1 -15.039062 8.6445312 z" opacity="1" transform="matrix(0.5297807,0,0,0.5297807,-11.525881,4.0648246)"/><path id="path8061" fill="none" fill-opacity="1" stroke="#373730" stroke-dasharray="none" stroke-linecap="round" stroke-linejoin="round" stroke-miterlimit="4" stroke-opacity="1" stroke-width=".1" d="M -15.039062 8.6445312 A 9.4726562 9.4726562 0 1 1 -33.984375,8.6445313 A 9.4726562 9.4726562 0 1 1 -15.039062 8.6445312 z" opacity="1" transform="matrix(0.448321,0,0,0.448321,-13.522599,4.7690057)"/><path id="path8063" fill="none" fill-opacity="1" stroke="#373730" stroke-dasharray="none" stroke-linecap="round" stroke-linejoin="round" stroke-miterlimit="4" stroke-opacity="1" stroke-width=".1" d="M -15.039062 8.6445312 A 9.4726562 9.4726562 0 1 1 -33.984375,8.6445313 A 9.4726562 9.4726562 0 1 1 -15.039062 8.6445312 z" opacity="1" transform="matrix(0.3670429,0,0,0.3670429,-15.514864,5.4716164)"/></g></pattern><radialGradient id="radialGradient13944" cx="23.633" cy="44.729" r="14.063" fx="23.633" fy="44.729" gradientTransform="matrix(1,0,0,0.1284722,0,38.982144)" gradientUnits="userSpaceOnUse" xlink:href="#linearGradient13938"/></defs><metadata id="metadata7"/><g id="layer1"><path id="path2162" fill="#fff" fill-opacity="1" stroke="url(#linearGradient6051)" stroke-dasharray="none" stroke-linecap="round" stroke-linejoin="round" stroke-miterlimit="4" stroke-opacity="1" stroke-width="9.342" d="M 434.28571 309.50504 A 185.71428 185.71428 0 1 1 62.857147,309.50504 A 185.71428 185.71428 0 1 1 434.28571 309.50504 z" opacity="1" transform="matrix(0.1070437,0,0,0.1070437,-3.1258714,-9.6969705)"/><path id="path4105" fill="#0f0f0f" fill-opacity="1" stroke="#d3d7cf" stroke-dasharray="none" stroke-linecap="round" stroke-linejoin="round" stroke-miterlimit="4" stroke-opacity="1" stroke-width="9.346" d="M 434.28571 309.50504 A 185.71428 185.71428 0 1 1 62.857147,309.50504 A 185.71428 185.71428 0 1 1 434.28571 309.50504 z" opacity="1" transform="matrix(0.1021784,0,0,0.1021784,-1.9164765,-8.1911103)"/><rect id="rect9065" width="34.695" height="34.695" x="6.188" y="6.238" fill="url(#pattern9067)" stroke="none"/><path id="path9069" fill="#a40000" fill-opacity="1" fill-rule="nonzero" stroke="#373730" stroke-dasharray="none" stroke-linecap="round" stroke-linejoin="round" stroke-miterlimit="4" stroke-opacity="1" stroke-width=".623" d="M -11.132813 30.714844 A 3.515625 3.515625 0 1 1 -18.164063,30.714844 A 3.515625 3.515625 0 1 1 -11.132813 30.714844 z" opacity="1" transform="matrix(1.6584376,0,0,1.6584376,47.857279,-27.324109)"/><path id="path10058" fill="#000" fill-opacity="1" fill-rule="nonzero" stroke="none" stroke-dasharray="none" stroke-linecap="round" stroke-linejoin="round" stroke-miterlimit="4" stroke-opacity="1" stroke-width="1" d="M 24.99733 23.624151 A 1.381068 1.381068 0 1 1 22.235194,23.624151 A 1.381068 1.381068 0 1 1 24.99733 23.624151 z" opacity="1" transform="matrix(0.7,0,0,0.7,7.0848785,7.0872451)"/><path id="path12967" fill="url(#radialGradient13944)" fill-opacity="1" fill-rule="nonzero" stroke="none" stroke-dasharray="none" stroke-linecap="round" stroke-linejoin="round" stroke-miterlimit="4" stroke-opacity="1" stroke-width="1" d="M 37.695312 44.728516 A 14.0625 1.8066406 0 1 1 9.5703125,44.728516 A 14.0625 1.8066406 0 1 1 37.695312 44.728516 z" opacity=".617" transform="matrix(1.3521021,0,0,1.3243243,-8.321163,-13.920608)"/></g></svg>