<svg xmlns="http://www.w3.org/2000/svg" xmlns:svg="http://www.w3.org/2000/svg" id="svg2" width="200" height="200" version="1.1"><metadata id="metadata7"/><g id="layer1" transform="translate(0,-852.36218)"><path id="path3189" fill="#3a0440" fill-opacity="1" fill-rule="nonzero" stroke="none" d="m 0,852.36218 0,200.00002 200,0 0,-200.00002 -200,0 z" display="inline" enable-background="new"/><path id="path4919-6" fill="#000" fill-opacity="1" stroke="#585858" stroke-dasharray="none" stroke-miterlimit="4" stroke-opacity="1" stroke-width=".227" d="m 89.524769,48.144024 c 0,25.035397 -18.853618,45.330597 -42.110733,45.330597 -23.257116,0 -42.1107332,-20.2952 -42.1107332,-45.330597 0,-25.035397 18.8536172,-45.330597 42.1107332,-45.330597 23.257115,0 42.110733,20.2952 42.110733,45.330597 z" display="inline" transform="matrix(2.288202,0,0,2.1256694,-8.4929119,850.02388)"/><path id="path4010" fill="#9e9e9e" fill-opacity="1" fill-rule="nonzero" stroke="none" d="m 99.999969,908.3461 c -24.309379,0 -44.016044,19.70667 -44.016044,44.01605 0,24.3094 19.706665,44.01604 44.016044,44.01604 24.309401,0 44.016041,-19.70664 44.016041,-44.01604 0,-24.30938 -19.70664,-44.01605 -44.016041,-44.01605 z" display="inline"/><path id="path3830-7" fill="#000" fill-opacity="1" fill-rule="nonzero" stroke="none" d="m 53.033009,48.017754 c 0,2.37104 -1.922108,4.293148 -4.293148,4.293148 -2.371041,0 -4.293149,-1.922108 -4.293149,-4.293148 0,-2.371041 1.922108,-4.293149 4.293149,-4.293149 2.37104,0 4.293148,1.922108 4.293148,4.293149 z" display="inline" transform="matrix(0.58324207,0,0,0.58324207,71.572838,924.35618)"/></g></svg>