<svg xmlns="http://www.w3.org/2000/svg" xmlns:svg="http://www.w3.org/2000/svg" id="svg2" width="96" height="96" version="1.1"><metadata id="metadata7"/><g id="layer1" transform="translate(0,-956.36218)"><rect id="rect4605" width="96" height="96" x="0" y="0" fill="#333" fill-opacity="1" stroke="none" transform="translate(0,956.36218)"/><path id="path4919-6-3" fill="#000" fill-opacity="1" stroke="none" d="m 89.524769,48.144024 c 0,25.035397 -18.853618,45.330597 -42.110733,45.330597 -23.257116,0 -42.1107332,-20.2952 -42.1107332,-45.330597 0,-25.035397 18.8536172,-45.330597 42.1107332,-45.330597 23.257115,0 42.110733,20.2952 42.110733,45.330597 z" display="inline" transform="matrix(1.098337,0,0,1.0203213,-4.0765977,955.2398)"/><path font-size="medium" style="text-indent:0;text-align:start;line-height:normal;text-transform:none;block-progression:tb;marker:none;-inkscape-font-specification:Sans" id="path4919-6" fill="#585858" fill-opacity="1" fill-rule="nonzero" stroke="none" stroke-width=".227" d="m 48.000001,957.99168 c -25.616581,0 -46.3704139,20.7877 -46.3704139,46.38642 0,25.5988 20.7538329,46.3546 46.3704139,46.3546 25.61658,0 46.370412,-20.7558 46.370412,-46.3546 0,-25.59872 -20.753832,-46.38642 -46.370412,-46.38642 z m 0,0.25505 c 25.471716,0 46.130153,20.64876 46.130153,46.13137 0,25.4826 -20.658437,46.1314 -46.130153,46.1314 -25.471718,0 -46.1301527,-20.6488 -46.1301527,-46.1314 0,-25.48261 20.6584347,-46.13137 46.1301527,-46.13137 z" baseline-shift="baseline" color="#000" direction="ltr" display="inline" enable-background="accumulate" font-family="Sans" font-stretch="normal" font-style="normal" font-variant="normal" font-weight="normal" letter-spacing="normal" overflow="visible" text-anchor="start" text-decoration="none" visibility="visible" word-spacing="normal" writing-mode="lr-tb"/><path id="path4010" fill="#9e9e9e" fill-opacity="1" fill-rule="nonzero" stroke="none" d="m 47.999985,983.23446 c -11.668502,0 -21.127701,9.4592 -21.127701,21.12774 0,11.6685 9.459199,21.1277 21.127701,21.1277 11.668513,0 21.1277,-9.4592 21.1277,-21.1277 0,-11.66854 -9.459187,-21.12774 -21.1277,-21.12774 z" display="inline"/><path id="path3830-7" fill="#000" fill-opacity="1" fill-rule="nonzero" stroke="none" d="m 53.033009,48.017754 c 0,2.37104 -1.922108,4.293148 -4.293148,4.293148 -2.371041,0 -4.293149,-1.922108 -4.293149,-4.293148 0,-2.371041 1.922108,-4.293149 4.293149,-4.293149 2.37104,0 4.293148,1.922108 4.293148,4.293149 z" display="inline" transform="matrix(0.27995619,0,0,0.27995619,34.354962,990.9193)"/><rect id="rect4605-3" width="96" height="96" x="0" y="956.362" fill="#333" fill-opacity="1" stroke="none" opacity=".5"/></g></svg>