<svg xmlns="http://www.w3.org/2000/svg" xmlns:svg="http://www.w3.org/2000/svg" id="svg2" width="50" height="50" enable-background="new" version="1.1"><defs id="defs4"><linearGradient id="linearGradient3861"><stop id="stop3863" offset="0" stop-color="#eece33" stop-opacity="1"/><stop id="stop3865" offset="1" stop-color="#eece33" stop-opacity="0"/></linearGradient><linearGradient id="linearGradient3851"><stop id="stop3853" offset="0" stop-color="#eece33" stop-opacity="1"/><stop id="stop3855" offset="1" stop-color="#eece33" stop-opacity="0"/></linearGradient><linearGradient id="linearGradient3851-7"><stop id="stop3853-0" offset="0" stop-color="#eece33" stop-opacity="1"/><stop id="stop3855-9" offset="1" stop-color="#eece33" stop-opacity="0"/></linearGradient><linearGradient id="linearGradient3861-9"><stop id="stop3863-1" offset="0" stop-color="#eece33" stop-opacity="1"/><stop id="stop3865-2" offset="1" stop-color="#eece33" stop-opacity="0"/></linearGradient></defs><metadata id="metadata7"/><g id="layer6" display="none" transform="translate(0,-46)"><rect id="rect3003" width="96" height="96" x="0" y="0" fill="#0f0f0f" fill-opacity="1" fill-rule="nonzero" stroke="none"/></g><g id="g4080" display="none" transform="translate(0,-46)"><path id="path4082" fill="#bf880f" fill-opacity="1" fill-rule="nonzero" stroke="none" d="m 71.071428,46.267857 a 17.946428,11.875 0 1 1 -35.892856,0 17.946428,11.875 0 1 1 35.892856,0 z" transform="matrix(1.1144279,0,0,1.6842105,-11.203982,-29.92481)"/><path id="path4084" fill="#000" fill-opacity="1" fill-rule="nonzero" stroke="none" d="m 53.033009,48.017754 a 4.2931485,4.2931485 0 1 1 -8.586297,0 4.2931485,4.2931485 0 1 1 8.586297,0 z" display="inline" transform="matrix(0.93171713,0,0,0.93171713,2.588237,3.2610364)"/></g><g id="layer3" display="none" opacity=".96" transform="translate(0,-46)"><path id="rect3776" fill="#fff" fill-opacity="1" fill-rule="nonzero" stroke="none" d="M 46,3.7264493 C 45.96903,2.8335721 46.545072,1.949526 47.936937,1.9914377 49.328802,2.0333497 49.963562,2.675413 49.984216,3.742233 L 50,28.157989 c 0,0.681626 -1.287693,1.112807 -2.049321,1.104854 C 47.18905,29.254891 46.015784,28.805118 46,28.157989 z"/></g><g id="layer2" display="inline" transform="scale(0.52083335,0.52083335)"><path id="path3830-7-5" fill="#fff" fill-opacity="1" fill-rule="nonzero" stroke="none" d="m 47.71875,2.53125 c -1.998912,0.1408911 -3.723709,1.9961347 -3.71875,4 l 0,33.3125 c 0,2.094395 1.905605,3.999998 4,3.999998 2.094395,0 4,-1.905603 4,-3.999998 l 0,-33.3125 c 10e-4,-2.0533728 -1.82263,-3.9358323 -3.875,-4 -0.1353,-0.00688 -0.27095,-0.00688 -0.40625,0 z" display="inline" enable-background="new"/></g></svg>