<svg xmlns="http://www.w3.org/2000/svg" xmlns:svg="http://www.w3.org/2000/svg" id="svg2" width="96" height="96" enable-background="new" version="1.1"><defs id="defs4"><linearGradient id="linearGradient3861"><stop id="stop3863" offset="0" stop-color="#eece33" stop-opacity="1"/><stop id="stop3865" offset="1" stop-color="#eece33" stop-opacity="0"/></linearGradient><linearGradient id="linearGradient3851"><stop id="stop3853" offset="0" stop-color="#eece33" stop-opacity="1"/><stop id="stop3855" offset="1" stop-color="#eece33" stop-opacity="0"/></linearGradient></defs><metadata id="metadata7"/><path id="path5294" fill="#333" fill-opacity="1" fill-rule="nonzero" stroke="none" d="M 0 0 L 0 96 L 96 96 L 96 0 L 0 0 z M 48 1.875 C 73.474392 1.875 94.125 22.515393 94.125 48 C 94.125 73.484597 73.474392 94.125 48 94.125 C 22.525606 94.125 1.875 73.484597 1.875 48 C 1.875 22.515393 22.525606 1.875 48 1.875 z" display="inline"/><path font-size="medium" style="text-indent:0;text-align:start;line-height:normal;text-transform:none;block-progression:tb;marker:none;-inkscape-font-specification:Sans" id="path5348" fill="#585858" fill-opacity="1" fill-rule="nonzero" stroke="none" stroke-width=".227" d="M 48 1.625 C 22.383419 1.625 1.625 22.43253 1.625 48.03125 C 1.625 73.63005 22.383419 94.375 48 94.375 C 73.61658 94.375 94.375 73.63005 94.375 48.03125 C 94.375 22.43253 73.61658 1.625 48 1.625 z M 48 1.875 C 73.468871 1.875 94.125 22.520917 94.125 48 C 94.125 73.479073 73.468871 94.125 48 94.125 C 22.531127 94.125 1.875 73.479073 1.875 48 C 1.875 22.520917 22.531127 1.875 48 1.875 z" baseline-shift="baseline" color="#000" direction="ltr" display="inline" enable-background="accumulate" font-family="Sans" font-stretch="normal" font-style="normal" font-variant="normal" font-weight="normal" letter-spacing="normal" overflow="visible" text-anchor="start" text-decoration="none" visibility="visible" word-spacing="normal" writing-mode="lr-tb"/></svg>