<svg xmlns="http://www.w3.org/2000/svg" xmlns:svg="http://www.w3.org/2000/svg" id="svg2" width="96" height="96" enable-background="new" version="1.1"><defs id="defs4"><linearGradient id="linearGradient3861"><stop id="stop3863" offset="0" stop-color="#eece33" stop-opacity="1"/><stop id="stop3865" offset="1" stop-color="#eece33" stop-opacity="0"/></linearGradient><linearGradient id="linearGradient3851"><stop id="stop3853" offset="0" stop-color="#eece33" stop-opacity="1"/><stop id="stop3855" offset="1" stop-color="#eece33" stop-opacity="0"/></linearGradient></defs><metadata id="metadata7"/><g id="layer6" display="none"><rect id="rect3003" width="96" height="96" x="0" y="0" fill="#0f0f0f" fill-opacity="1" fill-rule="nonzero" stroke="none"/></g><g id="layer7" display="none"><path id="rect3842-3" fill="#0f0f0f" fill-opacity="1" fill-rule="nonzero" stroke="none" d="M 0,0 0,96 96,96 96,0 0,0 z M 48,2 C 73.405099,2 94,22.594902 94,48 94,73.405099 73.405099,94 48,94 22.594902,94 2,73.405099 2,48 2,22.594902 22.594902,2 48,2 z" display="inline"/><path id="path4919-6" fill="none" stroke="#585858" stroke-dasharray="none" stroke-miterlimit="4" stroke-opacity="1" stroke-width="1.9" d="m 89.524769,48.144024 a 42.110733,45.330597 0 1 1 -84.2214662,0 42.110733,45.330597 0 1 1 84.2214662,0 z" display="inline" transform="matrix(1.0923581,0,0,1.0147671,-3.7931057,-0.85497323)"/></g><g id="layer5" display="none"><path id="path3823" fill="#52b5ff" fill-opacity="1" fill-rule="nonzero" stroke="none" d="m 71.071428,46.267857 a 17.946428,11.875 0 1 1 -35.892856,0 17.946428,11.875 0 1 1 35.892856,0 z" transform="matrix(1.1144279,0,0,1.6842105,-11.203982,-29.92481)"/><path id="path3830-7" fill="#000" fill-opacity="1" fill-rule="nonzero" stroke="none" d="m 53.033009,48.017754 a 4.2931485,4.2931485 0 1 1 -8.586297,0 4.2931485,4.2931485 0 1 1 8.586297,0 z" display="inline" transform="matrix(0.93171713,0,0,0.93171713,2.588237,3.2610364)"/></g><g id="g4080" display="none"><path id="path4082" fill="#bf880f" fill-opacity="1" fill-rule="nonzero" stroke="none" d="m 71.071428,46.267857 a 17.946428,11.875 0 1 1 -35.892856,0 17.946428,11.875 0 1 1 35.892856,0 z" transform="matrix(1.1144279,0,0,1.6842105,-11.203982,-29.92481)"/><path id="path4084" fill="#000" fill-opacity="1" fill-rule="nonzero" stroke="none" d="m 53.033009,48.017754 a 4.2931485,4.2931485 0 1 1 -8.586297,0 4.2931485,4.2931485 0 1 1 8.586297,0 z" display="inline" transform="matrix(0.93171713,0,0,0.93171713,2.588237,3.2610364)"/></g><g id="layer3" display="inline" opacity=".96"><path id="rect3776" fill="#fff" fill-opacity="1" fill-rule="nonzero" stroke="#000" stroke-dasharray="none" stroke-miterlimit="4" stroke-opacity="1" stroke-width="1.5" d="m 48,1.9078363 c -1.100151,0 -2,0.8685988 -2,1.96875 l 0,21.9279027 c 0,1.100151 0.899849,2 2,2 1.100151,0 2,-0.899849 2,-2 L 49.96875,3.8765863 c 0,-1.1001512 -0.868599,-1.96875 -1.96875,-1.96875 z"/></g></svg>